<?xml version="1.0" encoding="utf-8"?>
<!-- Generator: Adobe Illustrator 26.4.1, SVG Export Plug-In . SVG Version: 6.00 Build 0)  -->
<svg version="1.1" id="Layer_2_00000063608351942340182080000017661688566873939644_"
	 xmlns="http://www.w3.org/2000/svg" xmlns:xlink="http://www.w3.org/1999/xlink" x="0px" y="0px" viewBox="0 0 52.6 44.5"
	 style="enable-background:new 0 0 52.6 44.5;" xml:space="preserve">
<style type="text/css">
	.st0{fill:#FFFFFF;}
</style>
<g id="sectors">
	<path class="st0" d="M39.2,44.6c-0.1,0-0.1,0-0.2,0c-5.9-0.1-11-3.9-12.7-9.6l-1,0.8c-1.1,0.9-2.3,1.3-3.5,1.3s-2.4-0.5-3.4-1.3
		C14,32.1,10,28.8,6,25.3c-2.5-2.2-4.1-4.3-5-6.8c-0.4-1.1-0.7-2.3-0.9-3.4l0-0.1C0,14.7,0,14.3,0.2,14c0.2-0.3,0.5-0.5,0.9-0.6
		c0.1,0,0.2,0,0.2,0c0.7,0,1.2,0.5,1.4,1.2c0.5,3.1,1.8,5.7,4,7.6c2.7,2.4,5.5,4.9,8.2,7.2l0.9,0.8c1,0.8,1.9,1.6,2.9,2.4
		c0.5,0.4,0.9,0.7,1.3,1.1c0.5,0.4,1.1,0.7,1.6,0.7s1.1-0.2,1.6-0.7l0.2-0.2c0.6-0.5,1.2-1,1.8-1.5c0.1-0.1,0.1-0.2,0.1-0.3
		c-0.3-7,4.5-12.9,11.5-14.1c0.7-0.1,1.4-0.1,2.2-0.1c0.2,0,0.5,0,0.7,0c0,0,0.1,0,0.1,0c0,0,0,0,0,0c1.2-2.9,1.2-6.1-0.2-8.9
		c-1.4-2.8-3.9-4.8-7-5.5c-0.6-0.2-1.3-0.2-1.9-0.2c-1.5,0-3,0.4-4.5,1.2c-0.8,0.4-1.7,1-2.7,1.8c-0.7,0.6-1.4,0.8-2,0.8
		s-1.3-0.3-2-0.8c-1.9-1.6-3.7-2.5-5.7-2.9c-0.6-0.1-1.1-0.2-1.7-0.2c-1.9,0-3.7,0.7-5.5,2C6.4,5.2,6,5.6,5.5,6.1
		C5.3,6.3,5.1,6.5,4.9,6.7C4.6,7,4.2,7.2,3.9,7.2C3.7,7.2,3.5,7.1,3.3,7C2.7,6.7,2.4,6.1,2.5,5.5c0-0.2,0.2-0.5,0.3-0.7
		C5.7,1.6,8.9,0,12.5,0c0.3,0,0.6,0,0.9,0c2.4,0.2,4.7,1.1,7.3,2.9c0,0,0.1,0.1,0.1,0.1c0.2,0.2,0.5,0.3,0.7,0.6
		c0.1,0.1,0.2,0.1,0.2,0.1c0,0,0.1,0,0.3-0.2c2.2-1.9,4.6-3,7.1-3.5c0.6-0.1,1.3-0.2,2-0.2c2.7,0,5.4,1,7.7,3c4.5,3.7,6,9.2,4,14.8
		c0,0.1,0,0.2-0.1,0.2c0,0,0,0,0,0c0.3,0.1,0.6,0.2,0.9,0.3c5,2,7.9,5.8,8.7,11.1c0,0.1,0,0.1,0,0.2c0,0,0,0.1,0,0.1
		c0,0,0,0.1,0,0.1v2.2c0,0,0,0.1,0,0.1c-0.1,0.3-0.1,0.7-0.2,1c-0.1,0.7-0.3,1.5-0.5,2.2C51,38,49.3,40.3,47,42
		C44.7,43.7,42,44.5,39.2,44.6L39.2,44.6z M39.1,20.2c-5.9,0-10.6,4.8-10.7,10.8c0,5.9,4.8,10.7,10.6,10.8h0
		C45,41.8,49.7,37,49.8,31C49.8,25.1,45,20.3,39.1,20.2L39.1,20.2L39.1,20.2z M1.7,11.5c0.8,0,1.4-0.6,1.4-1.4
		c0-0.8-0.6-1.4-1.4-1.4c-0.8,0-1.4,0.6-1.4,1.4c0,0.4,0.1,0.7,0.4,1C0.9,11.4,1.3,11.5,1.7,11.5L1.7,11.5L1.7,11.5z M39.1,38.5
		c-0.4,0-0.7,0-1.1,0c-1.6,0-2.7-1.1-2.7-2.7c0-0.3,0-0.6,0-0.9c0,0,0,0,0,0c0,0,0,0,0,0c-0.1,0-0.3,0-0.4,0c-0.2,0-0.3,0-0.5,0
		c-1.7,0-2.7-1.1-2.7-2.8c0-0.8,0-1.6,0-2.3c0-1.5,1.1-2.6,2.6-2.6c0.2,0,0.3,0,0.5,0c0.1,0,0.5,0,0.5,0c0,0,0,0,0,0
		c0-0.3,0-0.6,0-0.9c0-1.7,1.1-2.7,2.8-2.7c0.4,0,0.8,0,1.2,0s0.7,0,1.1,0c1.5,0,2.6,1.1,2.6,2.7c0,0.3,0,0.6,0,0.9c0,0,0,0,0,0.1
		c0,0,0.3,0,0.5,0c0.2,0,0.3,0,0.5,0c1.5,0,2.6,1.1,2.7,2.6c0,0.9,0,1.7,0,2.5c0,1.5-1.1,2.5-2.6,2.6c-0.2,0-0.3,0-0.5,0
		c-0.1,0-0.3,0-0.4,0c0,0-0.1,0-0.1,0v0c0,0.3,0,0.6,0,0.9c0,1.6-1.1,2.8-2.8,2.8C39.8,38.5,39.4,38.5,39.1,38.5L39.1,38.5z
		 M40.1,36.5c0.3,0,0.5-0.1,0.6-0.2c0.2-0.2,0.2-0.4,0.2-0.7c0-0.5,0-1.1,0-1.6v-0.4c0-0.7,0.2-0.8,0.9-0.8h0c0.3,0,0.7,0,1,0
		s0.6,0,0.9,0h0c0.3,0,0.5-0.1,0.6-0.2s0.2-0.4,0.2-0.6c0-0.6,0-1.3,0-2c0-0.1,0-0.4-0.2-0.6c-0.1-0.1-0.3-0.2-0.6-0.2c0,0,0,0,0,0
		c-0.2,0-0.5,0-0.8,0l0,0c-0.2,0-0.4,0-0.6,0c-0.2,0-0.3,0-0.5,0c-0.7,0-0.9-0.2-0.9-0.9c0-0.2,0-0.3,0-0.5v-0.3c0-0.1,0-0.2,0-0.4
		c0-0.3,0-0.5,0-0.8c0-0.3-0.1-0.5-0.2-0.6c-0.1-0.1-0.3-0.2-0.6-0.2h0c-0.3,0-0.7,0-1.1,0c-0.3,0-0.6,0-0.9,0c0,0,0,0-0.1,0
		c-0.3,0-0.5,0.1-0.6,0.2c-0.2,0.2-0.2,0.5-0.2,0.7c0,0.6,0,1.2,0,2c0,0.6-0.2,0.8-0.8,0.8c-0.3,0-0.7,0-1.1,0s-0.7,0-1,0h0
		c-0.2,0-0.4,0.1-0.6,0.2c-0.2,0.2-0.2,0.5-0.2,0.6c0,0.6,0,1.3,0,2.1c0,0.3,0.1,0.5,0.2,0.6c0.2,0.2,0.5,0.2,0.6,0.2h0
		c0.2,0,0.4,0,0.7,0c0.2,0,0.3,0,0.5,0c0.2,0,0.3,0,0.5,0c1,0,1.1,0.1,1.1,1.1c0,0.2,0,0.3,0,0.5c0,0.4,0,0.8,0,1.2
		c0,0.3,0.1,0.5,0.2,0.6s0.3,0.2,0.6,0.2h0c0.3,0,0.7,0,1,0S39.7,36.5,40.1,36.5L40.1,36.5L40.1,36.5z"/>
</g>
</svg>
