<?xml version="1.0" encoding="utf-8"?>
<!-- Generator: Adobe Illustrator 26.4.1, SVG Export Plug-In . SVG Version: 6.00 Build 0)  -->
<svg version="1.1" id="Layer_2_00000183217101775650945780000014282958648846370202_"
	 xmlns="http://www.w3.org/2000/svg" xmlns:xlink="http://www.w3.org/1999/xlink" x="0px" y="0px" viewBox="0 0 54.4 54.2"
	 style="enable-background:new 0 0 54.4 54.2;" xml:space="preserve">
<style type="text/css">
	.st0{fill:none;stroke:#FFFFFF;stroke-width:2;stroke-linecap:round;stroke-linejoin:round;}
</style>
<g id="sectors">
	<g>
		<path class="st0" d="M23.9,42.7c-0.1-0.7-0.6-1.3-1.3-1.7c-0.6-0.3-1.7-0.4-2.2,0c-0.9,0.7-1.7,1.5-2.5,2.3
			c-0.2,0.2-0.4,0.4-0.6,0.6c-0.5,0.5-0.8,0.6-1.5,0.2c-4.1-2.6-7.1-6.3-8.6-10.6c-0.6-1.8-0.7-3.9-0.7-5.9c0-0.9-0.1-1.9-0.1-2.8
			c0-0.1-0.1-0.1-0.2-0.1S6,24.8,6,24.9c0.1,0.9,0.1,1.8,0.1,2.7c0.1,2,0.1,4.1,0.8,6c1.5,4.4,4.6,8.1,8.7,10.8
			c0.2,0.1,0.4,0.2,0.6,0.3l0,0c-0.2,0.2-0.5,0.5-0.7,0.7c-0.5,0.5-1,1-1.6,1.5c-0.8,0.7-1.4,0.3-2.1-0.1c-0.2-0.1-0.4-0.2-0.7-0.3
			c-0.1,0-0.1,0-0.1,0c-0.1-0.4-0.2-0.8-0.5-1.1c-1.4-1.6-2.2-2.4-3.2-2.5l0.2-0.1c-0.8-1.6-0.5-3.2,0.9-4.7l0.4-0.4
			c0.1-0.1,0.1-0.2,0-0.2c-0.1-0.1-0.2-0.1-0.2,0l-0.4,0.4c-2.3,2.3-2.3,2.4-1,5c-0.9,0-1.9,0.8-3.3,2.1c-0.2,0.2-0.4,0.3-0.6,0.4
			c-0.1,0.1-0.2,0.1-0.3,0.2c-0.1,0-0.1,0.1-0.1,0.2c0,0.1,0.1,0.1,0.2,0.1c0.1-0.1,0.2-0.1,0.3-0.2c0.2-0.1,0.5-0.2,0.7-0.4
			c1.4-1.3,2.4-2.1,3.2-2c0.8,0,1.7,0.9,3,2.4c0.6,0.7,0.6,1.3,0.1,2c-0.6,1-1.4,2-2.4,3.2c-0.9,1-2.8,1.2-3.9,0.4
			c-2.4-1.8-2.5-2.8-1.6-4.2C3,46.2,3,45.9,2.5,45c-1-1.8-1.2-3.5-0.5-5.3c0.8-2.2,2.4-3.6,4.1-5c0.3-0.2,0.6-0.5,0.8-0.7
			c0.1-0.1,0.1-0.2,0-0.2s-0.2-0.1-0.2,0c-0.3,0.2-0.6,0.5-0.8,0.7c-1.6,1.4-3.3,2.8-4.2,5.2C1,41.4,1.1,43.1,2.2,45
			c0.4,0.7,0.5,1,0,1.8c-0.9,1.5-0.9,2.7,1.7,4.7c0.6,0.4,1.3,0.6,2,0.6c0.9,0,1.7-0.3,2.3-0.9c0,0.1,0,0.1,0.1,0.2
			c0.4,0.2,0.7,0.3,1.1,0.5c1,0.5,2,1,3.1,1.4c0.1,0,0.1,0,0.2,0c0.2,0,0.5-0.2,0.8-0.4c0.1-0.1,0.3-0.2,0.4-0.2
			c0.1,0,0.1-0.1,0.1-0.2c0-0.1-0.1-0.1-0.2-0.1c-0.1,0.1-0.3,0.2-0.4,0.3c-0.2,0.2-0.6,0.4-0.7,0.3c-1-0.4-2.1-0.9-3-1.4
			c-0.4-0.2-0.7-0.3-1.1-0.5H8.5c1-1.2,1.8-2.2,2.4-3.1c0.2-0.4,0.4-0.7,0.4-1.1l0,0c0.2,0.1,0.4,0.2,0.6,0.3
			c0.4,0.2,0.9,0.5,1.4,0.5c0.4,0,0.7-0.1,1.1-0.5c0.6-0.5,1.1-1,1.6-1.5c0.2-0.2,0.5-0.5,0.7-0.7c0,0,0.1-0.1,0-0.2
			c0.4,0,0.7-0.2,1.1-0.6c0.2-0.2,0.4-0.4,0.6-0.6c0.8-0.8,1.5-1.6,2.4-2.3c0.4-0.3,1.4-0.2,1.8,0c0.6,0.3,1,0.8,1.1,1.5
			S23.5,44,23,44.5c-1.5,1.6-3.1,3.1-4.6,4.6c-0.6,0.6-1.3,1.3-1.9,1.9c-0.1,0.1-0.1,0.2,0,0.2h0.1h0.1c0.6-0.6,1.3-1.3,1.9-1.9
			c1.5-1.5,3.1-3.1,4.6-4.6C23.8,44.1,24,43.4,23.9,42.7L23.9,42.7z"/>
		<path class="st0" d="M38.3,45.6c0.1,0.2,0.3,0.3,0.4,0.5c1.6,1.4,2.4,1.5,4.3,0.6c0.1,0,0.1-0.1,0.1-0.2c0-0.1-0.1-0.1-0.2-0.1
			c-1.8,0.9-2.4,0.8-4-0.5c-0.1-0.1-0.2-0.3-0.4-0.4c-0.2-0.2-0.3-0.4-0.6-0.6c0.3-0.3,0.6-0.5,0.9-0.8c2.2-1.8,4.4-3.6,5.9-6.2
			c0-0.1,0-0.2-0.1-0.2s-0.2,0-0.2,0.1c-1.4,2.5-3.7,4.4-5.8,6.1c-0.3,0.3-0.7,0.6-1,0.9c-0.3-0.1-0.7,0-1.2,0.4
			c-1.3,1-3,1.4-4.4,1.7c-3.1,0.6-6.7,1-10.2-0.2c-0.1,0-0.2,0-0.2,0.1s0,0.2,0.1,0.2c1.7,0.6,3.3,0.8,5,0.8c1.9,0,3.7-0.3,5.4-0.6
			c1.5-0.3,3.2-0.7,4.5-1.8C37.6,44.6,37.9,45,38.3,45.6L38.3,45.6z"/>
		<path class="st0" d="M14.4,36.2c0.2,0.2,0.5,0.5,0.8,0.7c0.5,0.5,1.1,1,1.4,1.5c0.3,0.6,0.7,0.9,1.1,1c0.1,0,0.1,0,0.2,0
			c0.5,0,1-0.4,1.5-0.8c0.2-0.2,0.4-0.3,0.5-0.5c0.1-0.1,0.3-0.3,0.4-0.4c1.3-1.2,1.9-1.8,2-2.4c0-0.7-0.6-1.3-2-2.6
			c-0.1-0.1-0.1-0.1-0.2,0l0,0L20,32.6c-1-1.5-1.5-2.2-2.1-2.3c-0.6-0.1-1.3,0.5-2.6,1.6C15.2,32,15.1,32,15,32.1s-0.3,0.2-0.4,0.3
			c-0.9,0.9-1.3,1.4-1.3,2C13,34.7,13.5,35.2,14.4,36.2L14.4,36.2z M14.6,32.4c0.1-0.1,0.3-0.2,0.4-0.3c0.1-0.1,0.2-0.1,0.3-0.2
			c1.2-1,1.8-1.5,2.3-1.5h0.1c0.5,0.1,1,0.8,1.9,2.2l0.1,0.1h-0.1l-4.1,3.7c-0.1,0.1-0.1,0.2,0,0.2h0.1h0.1l4.1-3.7
			c0,0,0.1-0.1,0-0.2h0.1c1.2,1.2,1.9,1.8,1.9,2.4c0,0.5-0.7,1.1-1.9,2.2c-0.1,0.1-0.3,0.3-0.4,0.4c-0.2,0.2-0.3,0.3-0.5,0.5
			c-0.5,0.4-1,0.8-1.4,0.7c-0.3,0-0.6-0.3-0.9-0.8c-0.4-0.6-0.9-1.1-1.5-1.6c-0.2-0.2-0.5-0.5-0.8-0.7c-0.8-0.8-1.2-1.3-1.2-1.8
			S13.8,33.2,14.6,32.4L14.6,32.4z"/>
		<path class="st0" d="M47.5,24.1l-0.1,1.7c-0.1,1.7-0.2,3.5-0.3,5.2c0,0.2-0.2,0.4-0.3,0.6c-0.1,0.1-0.2,0.2-0.2,0.3s0,0.2,0,0.2
			s0,0,0.1,0c0,0,0.1,0,0.1-0.1c0.1-0.1,0.1-0.2,0.2-0.3c0.2-0.2,0.3-0.5,0.4-0.7c0.1-1.7,0.2-3.5,0.3-5.2l0.1-1.7
			c0-0.1-0.1-0.2-0.2-0.2C47.6,24,47.5,24,47.5,24.1L47.5,24.1z"/>
		<path class="st0" d="M52.5,48.3c-0.2-1.1-0.6-1.9-1.3-2.6l0,0c0.1,0,0.1,0,0.1-0.1c0.2-0.4,0.5-0.8,0.8-1.2c0.6-1,1.2-1.9,1.3-2.9
			c0-1.7-1.3-3.5-1.9-4.2c-1.8-2.1-3.9-4.1-5.8-6.1l-0.5-0.5c-0.6-0.6-1.3-0.9-2-0.9c-0.6,0-1.2,0.2-1.6,0.7c-1.1,1.2-1,2.3,0.2,3.6
			c1.4,1.4,2.8,2.8,4.3,4.3c1.7,1.7,1.8,2,0.9,4.1c0,0.1,0,0.2,0.1,0.2s0.2,0,0.2-0.1c1-2.2,0.8-2.7-1-4.5c-1.5-1.5-2.9-2.9-4.3-4.3
			c-1.1-1.2-1.2-2.1-0.2-3.1c0.3-0.4,0.8-0.6,1.3-0.6c0.6,0,1.3,0.3,1.8,0.8l0.5,0.5c2,1.9,4,3.9,5.8,6c1.2,1.4,1.9,2.9,1.8,3.9
			c0,0.9-0.6,1.9-1.2,2.8c-0.3,0.4-0.5,0.8-0.8,1.3v0.1c-0.3-0.3-0.7-0.6-1-0.9l-0.2-0.2c-2.9-2.4-3-2.4-5.7,0.4
			c-1.3,1.4-1.4,2-0.2,3.6c0.2,0.2,0.4,0.5,0.5,0.7c0.4,0.5,0.8,1.1,1.3,1.6h-0.1c-2.2,1.9-5.6,1.7-7.5,0.3c-1.1-0.8-2.1-1.9-3-3
			c-0.4-0.5-0.8-1-1.3-1.4c-0.1-0.1-0.2-0.1-0.2,0c-0.1,0.1-0.1,0.2,0,0.2c0.4,0.5,0.9,0.9,1.3,1.4c1,1.1,1.9,2.2,3.1,3
			c1,0.7,2.4,1.2,3.8,1.2s2.9-0.4,4.1-1.5c0,0,0.1-0.1,0-0.2c0.8,0.8,1.6,1.2,2.5,1.2l0,0c0.9,0,1.9-0.5,2.7-1.4
			c0.4-0.4,0.7-0.9,1-1.4C52.2,48.9,52.3,48.7,52.5,48.3c0,0,0,0,0-0.1C52.5,48.4,52.6,48.4,52.5,48.3L52.5,48.3z M52.2,48.4
			c-0.1,0.2-0.3,0.4-0.4,0.7c-0.3,0.5-0.6,1-0.9,1.3c-0.8,0.8-1.6,1.3-2.5,1.3c-0.8,0-1.6-0.4-2.3-1.1c-0.5-0.5-0.9-1.1-1.3-1.7
			c-0.2-0.2-0.4-0.5-0.5-0.8c-1.1-1.4-1.1-1.9,0.2-3.1c1.3-1.3,1.9-2,2.6-2c0.6,0,1.3,0.6,2.6,1.6l0.2,0.2
			C51.1,45.9,52,46.9,52.2,48.4L52.2,48.4L52.2,48.4L52.2,48.4z"/>
		<path class="st0" d="M36.7,14.5c-0.1-0.1-0.2-0.1-0.2,0c-0.1,0-0.1,0-0.2,0c-0.5,0.4-1,0.9-1.5,1.3c-1.2,1-2.3,2-3.6,3
			c-0.6,0.5-0.9,0.9-0.9,1.4s0.2,1,0.7,1.5c0.3,0.3,0.6,0.6,0.9,0.9c0.8,0.8,1.6,1.6,2.3,2.5c0.3,0.4,0.6,0.6,0.9,0.6h0.1
			c0.4,0,0.7-0.2,1-0.5c1.1-0.9,2.1-1.9,3.1-2.8c0.5-0.5,1.1-1,1.6-1.5c0.3-0.3,0.6-0.6,0.6-1c0-0.3-0.1-0.6-0.4-0.9
			c-1-1-2.1-2.1-3.1-3.2C37.6,15.4,37.1,14.9,36.7,14.5L36.7,14.5z M41.2,19.9c0,0.3-0.3,0.6-0.5,0.8c-0.5,0.5-1.1,1-1.6,1.5
			c-1,0.9-2,1.9-3.1,2.8c-0.2,0.2-0.5,0.4-0.8,0.4c-0.2,0-0.4-0.2-0.7-0.5c-0.7-0.9-1.5-1.7-2.3-2.5c-0.3-0.3-0.6-0.6-0.9-0.9
			c-0.5-0.5-0.7-0.9-0.6-1.2c0-0.4,0.3-0.8,0.8-1.1c1.2-1,2.4-2,3.6-3c0.5-0.4,1-0.9,1.5-1.3c0.4,0.4,0.8,0.9,1.2,1.3
			c1,1,2,2.1,3.1,3.2C41.1,19.4,41.2,19.7,41.2,19.9L41.2,19.9z"/>
		<path class="st0" d="M9.4,23.2c0.3,0.2,0.8,0.4,1.3,0.4c0.6,0,1.2-0.1,1.6-0.4c0.5-0.3,0.9-0.8,1-1.4c0.1-0.5-0.1-1.1-0.5-1.6
			c-1.9-2-3.4-3.6-4.9-5c-1.4-1.3-1.6-2.6-0.7-4.1c0-0.1,0-0.2-0.1-0.2s-0.2,0-0.2,0.1c-1,1.7-0.7,3.1,0.8,4.5s3,3,4.9,5
			c0.5,0.5,0.5,1,0.4,1.3c-0.1,0.5-0.4,0.9-0.8,1.1c-0.6,0.4-2.1,0.4-2.5,0c-2.1-1.8-4.2-3.9-6.8-6.6c-1-1.1-1.6-2.9-1.5-4.6
			C1.4,10.2,2,9,3,8.2c0,0,0,0,0-0.1c0.1,0.1,0.2,0.2,0.3,0.3s0.2,0.2,0.3,0.3c1.5,1.4,2.5,2.1,3.4,2.1h0.1c1,0,1.9-0.8,3.2-2.4
			c0.8-1,0.8-1.9,0-2.8C9.8,5,9.3,4.4,8.9,3.8C8.7,3.5,8.5,3.3,8.2,3c3.1-2,5.7-1.9,8.2,0.2c0.2,0.2,0.5,0.4,0.7,0.6
			c0.9,0.7,1.8,1.5,2.4,2.4c0.8,1.3,1.8,1,2.7,0.8c2.4-0.7,5.1-0.8,8.6-0.3c0.3,0,0.5,0.3,0.8,0.5c0.1,0.1,0.3,0.2,0.4,0.3
			c0,0,0,0,0.1,0c-0.4,0.4-0.8,0.8-1.2,1.2c-1,1-1.1,2.5-0.2,3.6c0.4,0.5,0.9,0.8,1.5,0.9c0.6,0.1,1.3-0.2,1.9-0.7
			c1.2-1,2.4-2.2,3.5-3.3c0.5-0.5,1-1,1.5-1.5c0.8-0.8,1.4-1.2,2.1-1.1c0.7,0,1.3,0.5,2.2,1.5c0.8,0.9,1.7,1.6,2.7,2.4
			c0.2,0.1,0.4,0.3,0.5,0.4c0.4,0.3,0.7,0.9,0.7,1.5c0.1,0.8-0.2,1.6-0.7,2.2v0.1c-0.7,0.7-1.1,1.1-1.3,1.1l0,0
			c-0.2,0-0.5-0.4-1.1-1l-0.3-0.4c-1.2-1.4-2.5-2.6-3.9-3.8c-0.8-0.6-1.4-1.1-2-1.7c-0.1-0.1-0.2-0.1-0.2,0c-0.1,0.1-0.1,0.2,0,0.2
			c0.6,0.6,1.2,1.1,1.7,1.6c1.3,1.2,2.7,2.4,3.8,3.8l0.3,0.4c0.6,0.6,0.9,1,1.2,1.1c0,0,0,0.1,0,0.2l2,4.5c0,0.1,0.1,0.1,0.2,0.1
			c0,0,0,0,0.1,0s0.1-0.1,0.1-0.2l-0.1-0.1l0,0h0.1c0.4-0.4,0.8-0.8,1.2-1.1c0.9-0.8,1.8-1.7,2.7-2.6c1.1-1.1,1.7-2.9,1.6-4.7
			c-0.1-1.6-0.6-2.9-1.6-3.9l0,0c0.6-0.6,1.6-1.6,1.2-2.9c-0.5-1.6-1.5-2.7-3.1-3.2C48,1.7,46.8,2,45.9,2.9l0,0
			c-3.8-2.8-7.1-1.3-9.2,0.4c-1.5,1.3-2.9,2.7-4.2,4.1c-0.1,0.1-0.2,0.2-0.2,0.2s0-0.1-0.1-0.1c-0.1-0.1-0.3-0.2-0.4-0.3
			c-0.3-0.3-0.6-0.6-1-0.6c-3.5-0.4-6.2-0.3-8.7,0.3c-1,0.3-1.6,0.4-2.3-0.6c-0.6-1-1.6-1.7-2.5-2.5c-0.2-0.2-0.5-0.4-0.7-0.6
			C14,0.7,11.3,0.7,8,2.8l0,0l0,0c-2.6-1.5-3.6-1.4-5.6,1c-1,1.1-1,2.3-0.2,3.5C2.4,7.5,2.6,7.7,2.8,8l0,0c-1,0.8-1.6,2.1-1.7,3.7
			c-0.1,1.9,0.5,3.7,1.5,4.9C5.1,19.3,7.3,21.4,9.4,23.2L9.4,23.2z M52.5,11.9c0.1,1.7-0.5,3.4-1.5,4.5c-0.8,0.9-1.8,1.8-2.7,2.6
			c-0.4,0.4-0.8,0.8-1.2,1.1l0,0L45.2,16l0,0c0.4-0.1,0.7-0.5,1.5-1.2v-0.1c0.6-0.6,0.9-1.5,0.8-2.4c0-0.5-0.2-0.9-0.4-1.3l0,0h0.1
			c0.4-0.3,0.8-0.6,1.2-0.9c0.9-0.6,1.7-1.2,2.5-2l0,0C51.9,9.1,52.4,10.4,52.5,11.9L52.5,11.9z M32.7,7.3c1.3-1.4,2.7-2.8,4.2-4.1
			c2-1.7,5.1-3.1,8.8-0.4c-0.1,0.1-0.1,0.1-0.2,0.2c-0.7,0.8-1.4,1.7-2,2.6c-0.3,0.4-0.6,0.8-0.8,1.1c0,0.1,0,0.2,0,0.2
			c0.1,0.1,0.2,0,0.2,0c0.3-0.4,0.6-0.8,0.8-1.1c0.6-0.9,1.3-1.8,2-2.6c0.9-1.1,2.2-1.5,3.4-1.1c1.5,0.5,2.5,1.5,2.9,3
			c0.3,1.1-0.3,1.8-1.1,2.6s-1.8,1.5-2.7,2.1c-0.4,0.3-0.8,0.6-1.2,0.9l-0.1,0.1c-0.1-0.1-0.2-0.2-0.3-0.3c-0.2-0.1-0.4-0.3-0.5-0.4
			c-0.9-0.7-1.8-1.5-2.6-2.4c-1-1.1-1.7-1.6-2.5-1.6c-0.7,0-1.4,0.4-2.3,1.2c-0.5,0.5-1,1-1.5,1.5c-1.1,1.1-2.2,2.3-3.5,3.3
			c-0.3,0.3-1,0.7-1.7,0.6c-0.5-0.1-0.9-0.3-1.2-0.7C30,11.1,30.1,9.7,31,8.9C31.6,8.4,32.2,7.9,32.7,7.3L32.7,7.3z M2.4,7.1
			C1.6,6,1.7,4.9,2.6,3.9c1.1-1.3,1.9-1.8,2.8-1.8C6,2.1,6.8,2.4,7.8,3h0.1v0.1C8.2,3.4,8.4,3.7,8.6,4C9,4.6,9.5,5.2,10,5.8
			c0.7,0.8,0.7,1.6,0,2.4c-1.3,1.5-2.1,2.3-2.9,2.4c-0.8,0.1-1.8-0.6-3.2-2C3.8,8.4,3.7,8.3,3.6,8.2C3.1,7.9,2.7,7.5,2.4,7.1z"/>
		<path class="st0" d="M11.2,7.1c1.4-0.9,2.6-0.7,3.7,0.5c0.2,0.3,0.4,0.6,0.6,0.9c0.1,0.1,0.2,0.3,0.3,0.4C15.9,9,15.9,9,16,9h0.1
			c0.1-0.1,0.1-0.1,0-0.2c-0.1-0.1-0.2-0.3-0.3-0.4c-0.2-0.3-0.4-0.6-0.7-0.9C13.9,6.2,12.5,6,11,6.9c0,0-0.1,0.1,0,0.2
			C11,7.2,11.1,7.2,11.2,7.1L11.2,7.1z"/>
		<path class="st0" d="M9.3,15.5C9.2,15.7,9,15.9,8.9,16s0,0.2,0,0.2H9c0.1,0,0.1,0,0.1-0.1c0.1-0.2,0.2-0.3,0.4-0.5
			c0.3-0.3,0.5-0.7,0.8-1c2-2.8,4.7-5,8.2-6.6c0.4-0.2,0.7-0.3,1-0.5L20,7.3c0.1,0,0.1-0.1,0.1-0.2C20,7,19.9,7,19.9,7l-0.5,0.2
			c-0.3,0.2-0.7,0.3-1,0.5c-3.6,1.7-6.3,3.9-8.3,6.8C9.8,14.9,9.5,15.2,9.3,15.5L9.3,15.5z"/>
	</g>
</g>
</svg>
