<?xml version="1.0" encoding="utf-8"?>
<!-- Generator: Adobe Illustrator 26.4.1, SVG Export Plug-In . SVG Version: 6.00 Build 0)  -->
<svg version="1.1" id="Layer_2_00000109732605518566043720000009314690605790059929_"
	 xmlns="http://www.w3.org/2000/svg" xmlns:xlink="http://www.w3.org/1999/xlink" x="0px" y="0px" viewBox="0 0 52.6 45.8"
	 style="enable-background:new 0 0 52.6 45.8;" xml:space="preserve">
<style type="text/css">
	.st0{fill:#FFFFFF;}
</style>
<g id="sectors">
	<g>
		<path class="st0" d="M0,27.4c0.1-0.3,0.2-0.6,0.2-0.9c0.8-3,3.5-5.1,6.6-5.1c1.3,0,2.6-0.1,3.8,0.1c2.1,0.3,3.7,1.5,4.8,3.3
			c0.1,0.2,0.2,0.3,0.3,0.5c0.8-0.6,1.5-1.2,2.2-1.8c2-1.4,4.3-2.1,6.7-2.1c1.7,0,3.5,0,5.2,0.2c2.6,0.3,4.8,1.6,6.6,3.4
			c0.1,0.1,0.2,0.2,0.3,0.3c0,0,0.1,0,0.1,0c0.5-1.1,1.3-2,2.3-2.7c1.2-0.8,2.4-1.2,3.8-1.2c1.4,0,2.8,0,4.1,0.2
			c3.1,0.6,5.3,3.5,5.3,6.6c0,3.7,0,7.4,0,11.1c0,1.8-1.4,3.2-3.2,3.2c-2.9,0-5.8,0-8.6,0c-0.2,0-0.4,0-0.6,0c0,0.2-0.1,0.5-0.2,0.7
			c-0.4,1.5-1.8,2.6-3.4,2.6c-6.9,0-13.8,0-20.7,0c-1.7,0-3.1-1.2-3.4-2.8c0-0.1-0.1-0.3-0.1-0.4H3.7C1.5,42.5,0.8,42,0,40
			C0,35.8,0,31.6,0,27.4z M26.3,42.7c3.3,0,6.7,0,10,0c0.6,0,0.8-0.2,0.8-0.7c0-2.8,0-5.6,0-8.5c-0.1-4.3-3.2-8.1-7.4-8.8
			c-1.5-0.3-3.1-0.2-4.7-0.2c-5.3,0-9.4,4.1-9.4,9.4c0,2.7,0,5.3,0,8c0,0.7,0.1,0.8,0.9,0.8C19.7,42.7,23,42.7,26.3,42.7L26.3,42.7z
			 M12.4,39.4c0-2-0.1-3.9,0-5.8c0.1-1.2,0.3-2.3,0.5-3.4c0.1-0.6,0.3-1.3,0.3-1.9c0-1.8-1.3-3.4-3.1-3.7c-0.9-0.1-1.9-0.1-2.9-0.1
			c-2.5,0-4.1,1.6-4.1,4.1c0,3.4,0,6.9,0,10.3c0,0.2,0,0.4,0,0.5L12.4,39.4L12.4,39.4z M49.4,39.4c0-0.1,0-0.2,0-0.2
			c0-3.7,0-7.3,0-11c0-1.7-1.3-3.3-3-3.6c-1.3-0.2-2.6-0.2-3.8,0c-2.1,0.2-3.9,2.3-3.1,5.3c0.2,0.8,0.5,1.7,0.5,2.5
			c0.1,2.2,0.1,4.3,0.1,6.5c0,0.2,0,0.4,0,0.5L49.4,39.4L49.4,39.4z"/>
		<path class="st0" d="M35.2,8.9c0,4.9-4,9-8.9,9c-4.9,0-8.9-4-8.9-8.9c0-4.9,4-9,8.9-9C31.2,0,35.2,4,35.2,8.9L35.2,8.9z M32.1,8.9
			c0-3.2-2.6-5.9-5.8-5.9c-3.2,0-5.9,2.6-5.9,5.8c0,3.2,2.6,5.9,5.9,5.9C29.5,14.8,32.1,12.1,32.1,8.9L32.1,8.9z"/>
		<path class="st0" d="M13.9,12.3c0,3.1-2.6,5.6-5.7,5.6c-3.1,0-5.6-2.6-5.6-5.7c0-3.1,2.6-5.6,5.7-5.6C11.4,6.6,13.9,9.2,13.9,12.3
			z M10.8,12.2c0-1.4-1.2-2.6-2.6-2.5c-1.4,0-2.5,1.2-2.5,2.6c0,1.4,1.2,2.6,2.6,2.6S10.8,13.6,10.8,12.2z"/>
		<path class="st0" d="M44.3,17.9c-3.1,0-5.6-2.5-5.6-5.6c0-3.1,2.5-5.6,5.7-5.6S50,9.1,50,12.2S47.5,17.9,44.3,17.9L44.3,17.9z
			 M46.9,12.2c0-1.4-1.2-2.6-2.6-2.6c-1.4,0-2.5,1.2-2.5,2.6c0,1.4,1.2,2.6,2.6,2.6C45.8,14.8,46.9,13.6,46.9,12.2L46.9,12.2z"/>
	</g>
</g>
</svg>
