<?xml version="1.0" encoding="utf-8"?>
<!-- Generator: Adobe Illustrator 26.4.1, SVG Export Plug-In . SVG Version: 6.00 Build 0)  -->
<svg version="1.1" id="Layer_2_00000066479971673978349140000001509635122834719653_"
	 xmlns="http://www.w3.org/2000/svg" xmlns:xlink="http://www.w3.org/1999/xlink" x="0px" y="0px" viewBox="0 0 53.3 54.4"
	 style="enable-background:new 0 0 53.3 54.4;" xml:space="preserve">
<style type="text/css">
	.st0{fill:#FFFFFF;}
</style>
<g id="sectors">
	<path class="st0" d="M46.1,0c1.4,0.4,2.1,1.3,2.5,2.7c1.5,5.3,3,10.5,4.6,15.8c0.3,1.2,0,1.9-1.2,2.2c-1.8,0.5-3.5,1-5.3,1.5
		c0.4,0.7,0.8,1.3,1.1,2c1,2,0.1,4.5-1.9,5.5c-2.5,1.3-5.9-0.3-6-3.8c0-0.5,0-1.1,0-1.7c-0.3,0.1-0.5,0.1-0.6,0.2
		c-1.6,0.5-3.2,0.9-4.7,1.4c-1.2,0.4-1.9,0-2.2-1.2c-0.5-1.7-1-3.5-1.5-5.2c-0.4-1.2,0.2-2,1.5-2.1c0.6,0,1.3-0.1,1.9-0.1
		c1.1-0.1,2-0.7,2.3-1.7c0.3-1,0-2.1-0.7-2.8c-0.8-0.7-1.9-0.8-2.9-0.3c-0.6,0.3-1.2,0.7-1.8,1c-1,0.5-1.9,0.1-2.3-1
		c-0.5-1.7-1-3.4-1.5-5c-0.4-1.3,0.1-2.2,1.4-2.5C34,3.2,39.5,1.7,44.8,0.1C44.9,0.1,45,0,45,0C45.4,0,45.7,0,46.1,0z M32.2,18.8
		c0.5,1.9,1.1,3.7,1.6,5.5c0.2,0,0.3-0.1,0.5-0.1c1.7-0.5,3.4-1,5-1.5c1-0.3,1.8,0.2,2,1.2c0.1,0.5,0.1,1,0.1,1.5
		c0,0.4,0,0.9,0.2,1.3c0.4,1.4,1.9,2.1,3.3,1.6c1.4-0.5,2.1-2,1.5-3.4c-0.3-0.7-0.8-1.4-1.1-2c-0.5-1.1-0.1-2,1-2.3
		c1.3-0.4,2.7-0.8,4-1.2c0.5-0.1,0.9-0.3,1.4-0.4c0-0.2-0.1-0.3-0.1-0.4c-0.8-2.8-1.6-5.6-2.4-8.4c-0.7-2.5-1.5-5-2.2-7.5
		c-0.3-1-0.9-1.3-1.9-1.1C44.7,1.8,44.3,1.9,44,2c-4.9,1.4-9.8,2.8-14.7,4.2c-0.4,0.1-0.6,0.3-0.4,0.8c0.4,1.3,0.7,2.5,1.1,3.8
		c0.1,0.4,0.2,0.7,0.3,1.2c0.6-0.4,1.2-0.7,1.7-1c1.7-0.9,3.5-0.7,4.9,0.6c1.3,1.2,1.6,2.8,1,4.4s-1.9,2.6-3.6,2.7
		C33.6,18.7,33,18.7,32.2,18.8L32.2,18.8z M1.6,32.6h5.8C7.2,32,7,31.4,6.9,30.8c-0.6-2.5,0.9-4.8,3.4-5.1c2.3-0.4,4.5,1.3,4.7,3.8
		c0.1,0.6-0.1,1.1-0.2,1.7c-0.1,0.5-0.2,0.9-0.4,1.4c0.1,0,0.2,0,0.3,0c1.8,0,3.6,0,5.4,0c0-0.2,0-0.4,0-0.6c0-1.7,0-3.4,0-5
		c0-1.2,0.8-1.9,2-1.6c0.6,0.1,1.3,0.3,1.9,0.5c1.1,0.2,2.1-0.2,2.7-1.1s0.6-1.9,0-2.8c-0.6-0.9-1.6-1.3-2.7-1
		c-0.6,0.1-1.2,0.3-1.8,0.4c-1.3,0.3-2-0.4-2-1.6c0-1.6,0-3.3,0-4.9c0-0.5-0.1-0.7-0.7-0.7c-2.2,0-4.4,0-6.6,0
		c-0.6,0-0.9-0.2-0.9-0.7c-0.1-0.5,0.3-0.9,0.9-0.9c1.6,0,3.2,0,4.8,0c0.7,0,1.5,0,2.2,0c1.1,0,1.9,0.8,1.9,1.9c0,1.7,0,3.3,0,5
		c0,0.1,0,0.2,0,0.4c0.7-0.2,1.4-0.4,2-0.5c2.2-0.5,4.4,0.9,4.9,3.1c0.5,2.2-0.8,4.4-2.9,5c-0.8,0.2-1.6,0.1-2.5-0.1
		c-0.5-0.1-1-0.2-1.5-0.4v5.7c0.9,0,1.7,0,2.6,0c1,0,2,0,3.1,0c1.1,0,1.8,0.8,1.6,1.9c-0.1,0.7-0.3,1.3-0.5,2
		c-0.3,1.3,0.3,2.6,1.5,3c1.2,0.5,2.5,0,3.2-1.1c0.4-0.6,0.4-1.3,0.2-2c-0.1-0.6-0.3-1.2-0.4-1.8c-0.2-1.2,0.4-2,1.6-2
		c1.7,0,3.5,0,5.2,0c1.3,0,2,0.8,2,2c0,2.2,0,4.5,0,6.7c0,0.3-0.1,0.7-0.3,0.8c-0.2,0.2-0.6,0.2-0.8,0.1c-0.2-0.1-0.5-0.5-0.5-0.7
		c0-1,0-2,0-3c0-1.3,0-2.6,0-3.9c0-0.2,0-0.5-0.3-0.5c-1.8,0-3.6,0-5.4,0c0.2,0.9,0.4,1.7,0.5,2.6c0.2,1.7-0.5,2.9-1.9,3.8
		c-1.4,0.9-2.9,0.9-4.4,0c-1.4-0.9-2.1-2.1-1.9-3.8c0.1-0.8,0.3-1.7,0.5-2.6h-5.7c0,0.2,0,0.4,0,0.5c0,1.7,0,3.4,0,5.1
		c0,1.2-0.8,1.8-1.9,1.6c-0.6-0.1-1.2-0.3-1.9-0.5c-1.5-0.4-2.9,0.5-3.2,2c-0.3,1.5,0.8,2.9,2.3,3c0.4,0,0.7-0.1,1.1-0.2
		c0.5-0.1,1.1-0.3,1.6-0.4c1.1-0.2,1.9,0.4,1.9,1.6c0,1.7,0,3.4,0,5c0,0.2,0,0.4,0,0.7h0.6c5.4,0,10.9,0,16.3,0
		c1.2,0,1.7-0.5,1.7-1.7c0-1.8,0-3.7,0-5.5c0-0.7,0.3-1,0.8-1c0.5,0,0.8,0.4,0.8,1c0,1.9,0,3.8,0,5.7c0,1.8-1.3,3-3,3
		c-12,0-23.9,0-35.8,0c-1.8,0-3-1.3-3-3c0-12,0-23.9,0-35.8c0-1.8,1.2-3,3-3.1c2,0,3.9,0,5.8,0c0.7,0,1.1,0.4,0.9,1
		C9.7,13.9,9.3,14,8.9,14c-1.9,0-3.7,0-5.6,0c-1.2,0-1.7,0.5-1.7,1.7c0,5.4,0,10.9,0,16.3L1.6,32.6L1.6,32.6z M1.6,34.2
		c0,0.2,0,0.4,0,0.6c0,5.4,0,10.9,0,16.3c0,1.2,0.5,1.7,1.7,1.7c5.4,0,10.9,0,16.3,0h0.6V47c-0.7,0.2-1.3,0.3-1.9,0.5
		c-3,0.7-5.6-2-5-5c0.5-2.2,2.7-3.6,5-3.1c0.6,0.2,1.3,0.3,1.9,0.5v-5.7c-0.2,0-0.4,0-0.5,0c-1.7,0-3.4,0-5,0c-1.3,0-1.9-0.8-1.6-2
		c0.1-0.6,0.3-1.2,0.4-1.8c0.2-1.1-0.2-2.2-1.1-2.8c-0.9-0.6-2-0.5-2.9,0c-0.9,0.6-1.3,1.7-1,2.8c0.1,0.6,0.3,1.1,0.4,1.7
		c0.3,1.3-0.4,2.1-1.7,2.1C5.4,34.2,3.5,34.2,1.6,34.2L1.6,34.2z"/>
</g>
</svg>
