<?xml version="1.0" encoding="utf-8"?>
<!-- Generator: Adobe Illustrator 26.4.1, SVG Export Plug-In . SVG Version: 6.00 Build 0)  -->
<svg version="1.1" id="Layer_2_00000154410966017794203970000001799706012595067567_"
	 xmlns="http://www.w3.org/2000/svg" xmlns:xlink="http://www.w3.org/1999/xlink" x="0px" y="0px" viewBox="0 0 53.3 53.3"
	 style="enable-background:new 0 0 53.3 53.3;" xml:space="preserve">
<style type="text/css">
	.st0{fill:#FFFFFF;}
</style>
<g id="sectors">
	<path class="st0" d="M26.6,53.3C11.9,53.2,0,41.3,0,26.6C0,11.9,12,0,26.7,0c14.7,0,26.6,12,26.6,26.7
		C53.2,41.4,41.3,53.3,26.6,53.3z M51.2,26.6C51.2,13.1,40.2,2,26.6,2.1c-13.5,0-24.5,11-24.6,24.6c0,13.5,11,24.6,24.6,24.6
		C40.2,51.2,51.2,40.2,51.2,26.6z M49.2,26.6c0.1,12.3-10,22.5-22.4,22.5C14.5,49.2,4.2,39.2,4.1,27C4,14.4,14,4.2,26.5,4.1
		C39,4,49.1,14.1,49.2,26.6L49.2,26.6z M6.2,26.2c0.3,0.1,0.6,0.2,0.9,0.2c9,2.5,15.6,10.5,16.4,19.7c0,0.6,0.3,0.8,0.8,0.8
		c1.6,0,3.1,0,4.7,0c0.6,0,0.8-0.3,0.8-0.8c1-8.4,5.3-14.6,12.8-18.4c1.4-0.7,2.9-1.1,4.4-1.7c0,0,0,0,0,0c-0.1-3.3-1-6.4-2.6-9.3
		c-0.1-0.2-0.4-0.3-0.6-0.3c-11.5,0-23,0-34.6,0c-0.4,0-0.6,0.1-0.7,0.4c-0.5,1.2-1.1,2.4-1.6,3.7C6.5,22.3,6.2,24.2,6.2,26.2
		L6.2,26.2z M42.9,14.3c-3.1-4.4-9.5-8.6-17.3-8.1c-6.3,0.3-11.4,3.1-15.4,8.1H42.9z M6.2,28.4C6.7,33,8.4,37,11.5,40.4
		c2.7,2.9,6,4.9,9.9,6C21,38.6,14.9,30.5,6.2,28.4z M31.9,46.4c4.2-1.2,7.7-3.4,10.4-6.7c2.7-3.3,4.3-7,4.7-11.3
		C38.6,30.3,32.2,38.5,31.9,46.4L31.9,46.4z M33.8,26.6c0,3.9-3.2,7.2-7.2,7.2s-7.2-3.2-7.2-7.2s3.2-7.2,7.2-7.2
		S33.8,22.7,33.8,26.6z M31.8,26.7c0-2.8-2.3-5.1-5.1-5.2c-2.8,0-5.1,2.2-5.1,5c0,2.8,2.2,5.2,5.1,5.2
		C29.4,31.8,31.7,29.5,31.8,26.7L31.8,26.7z M26.7,22.5c2.3,0,4.1,1.9,4.1,4.1c0,2.2-1.9,4.1-4.2,4.1c-2.2,0-4-1.9-4-4.1
		C22.5,24.4,24.4,22.5,26.7,22.5z M26.7,24.6c-1.1,0-2,0.9-2.1,2s0.9,2.1,2,2.1c1.1,0,2.1-0.9,2.1-2C28.7,25.5,27.8,24.6,26.7,24.6
		L26.7,24.6z"/>
</g>
</svg>
