<svg xmlns="http://www.w3.org/2000/svg" xmlns:xlink="http://www.w3.org/1999/xlink" width="56.676" height="56.649" viewBox="0 0 56.676 56.649">
  <defs>
    <clipPath id="clip-path">
      <path id="Path_1712" data-name="Path 1712" d="M0,0H56.676V-56.649H0Z" fill="none"/>
    </clipPath>
  </defs>
  <g id="Group_2975" data-name="Group 2975" transform="translate(0 56.649)">
    <g id="Group_2974" data-name="Group 2974" clip-path="url(#clip-path)">
      <g id="Group_2964" data-name="Group 2964" transform="translate(2.803 -49.016)">
        <path id="Path_1702" data-name="Path 1702" d="M0,0A1.218,1.218,0,0,0-1.278.884,1.134,1.134,0,0,0-.716,2.247Q.937,3.063,2.631,3.8a1.166,1.166,0,0,0,1.538-.585,1.169,1.169,0,0,0-.537-1.6C2.547,1.076,1.436.589.334.088A1.563,1.563,0,0,0,0,0M52.441,1.361A1.219,1.219,0,0,0,50.765.1c-1.1.467-2.179.974-3.251,1.5a1.179,1.179,0,0,0-.583,1.587A1.172,1.172,0,0,0,48.5,3.79c1.1-.471,2.175-.98,3.252-1.493a1.1,1.1,0,0,0,.686-.936M-.195,19.631a.632.632,0,0,0,.164-.011,20.086,20.086,0,0,0,3.88-1.8,1.106,1.106,0,0,0,.215-1.5,1.128,1.128,0,0,0-1.378-.518q-1.77.757-3.5,1.611a1.149,1.149,0,0,0-.522,1.339,1.191,1.191,0,0,0,1.14.876m51.323,0a1.184,1.184,0,0,0,1.223-.9,1.149,1.149,0,0,0-.636-1.38c-1.089-.53-2.189-1.039-3.3-1.517a1.162,1.162,0,0,0-1.522.612,1.138,1.138,0,0,0,.468,1.531c1.13.57,2.291,1.079,3.443,1.6a1.043,1.043,0,0,0,.325.051M.179,11.05v0c.57,0,1.141.022,1.71-.006A1.252,1.252,0,0,0,3.158,9.786a1.229,1.229,0,0,0-1.334-1.17c-1.084-.009-2.169-.007-3.254,0A1.227,1.227,0,0,0-2.8,9.8a1.239,1.239,0,0,0,1.327,1.249c.551.02,1.1,0,1.655,0" fill="#fff"/>
      </g>
      <g id="Group_2965" data-name="Group 2965" transform="translate(29.555 -56.649)">
        <path id="Path_1703" data-name="Path 1703" d="M0,0A11.319,11.319,0,0,0,1.921.305,18.229,18.229,0,0,1,16.681,14.4c1.561,7.571-.912,13.705-7.061,18.356a1.086,1.086,0,0,0-.554,1.122,3.143,3.143,0,0,1,0,.719,2.893,2.893,0,0,0,.737,2.326,4.305,4.305,0,0,1-.155,5.545c-.211.244-.218.354-.006.612a4.263,4.263,0,0,1,.662,4.752,4.217,4.217,0,0,1-4,2.553c-.361.009-.495.083-.559.464a7.11,7.11,0,0,1-6.964,5.8,7.114,7.114,0,0,1-6.96-5.807c-.065-.387-.209-.449-.565-.459a4.223,4.223,0,0,1-4-2.558,4.254,4.254,0,0,1,.668-4.75c.217-.262.2-.368-.012-.611a4.436,4.436,0,0,1,.342-6.137.685.685,0,0,0,.243-.571c-.011-.719-.024-1.44.005-2.158a.74.74,0,0,0-.381-.711,17.625,17.625,0,0,1-7.233-10.435,18.375,18.375,0,0,1,9.347-20.3,18.4,18.4,0,0,1,7-2.041C-2.68.1-2.579.12-2.546,0ZM-5.513,35.147a17.679,17.679,0,0,0,2.392,0H.68a17.952,17.952,0,0,0,2.388,0c1.068.008,2.137.007,3.206.031.3.007.374-.1.367-.382-.016-.719.008-1.438-.01-2.157A1.313,1.313,0,0,1,7.3,31.4q.306-.187.6-.4c5.136-3.691,7.483-8.642,6.611-14.96A15.773,15.773,0,0,0,.5,2.579a15.454,15.454,0,0,0-15.229,7.447,15.219,15.219,0,0,0,.56,17.326A15.759,15.759,0,0,0-9.881,31.3a1.539,1.539,0,0,1,.818,1.5c-.037.661,0,1.327-.013,1.991-.006.268.045.4.357.391,1.069-.025,2.138-.023,3.206-.032m4.295,12.8c2.509,0,5.018.005,7.527,0a1.88,1.88,0,0,0,1.893-1.4,1.972,1.972,0,0,0-2.059-2.556q-5.978-.01-11.954,0c-.941,0-1.882-.01-2.823,0a1.9,1.9,0,0,0-1.986,1.358,1.938,1.938,0,0,0,1.931,2.6c2.49.012,4.981,0,7.471,0m0-10.344h-2.1c-1.789,0-3.578-.008-5.366,0A1.841,1.841,0,0,0-10.626,39a1.928,1.928,0,0,0,2,2.541c3.578.012,7.155,0,10.733,0,1.4,0,2.8.011,4.2,0a1.859,1.859,0,0,0,1.886-1.4A1.931,1.931,0,0,0,6.249,37.6c-2.49-.013-4.979,0-7.469,0m0,12.78c-1.365,0-2.729.013-4.093-.007-.4-.006-.505.069-.38.486a4.729,4.729,0,0,0,4.454,3.352,4.727,4.727,0,0,0,4.5-3.36c.132-.44-.013-.482-.391-.477-1.364.017-2.729.006-4.093.006" fill="#fff"/>
      </g>
      <g id="Group_2966" data-name="Group 2966" transform="translate(56.676 -38.716)">
        <path id="Path_1704" data-name="Path 1704" d="M0,0A2.022,2.022,0,0,1-1.935.76C-2.853.719-3.773.766-4.692.741A1.211,1.211,0,0,1-5.9-.133a1.153,1.153,0,0,1,.351-1.25,1.164,1.164,0,0,1,.86-.3c1.139,0,2.28.018,3.419,0A1.5,1.5,0,0,1,0-.885Z" fill="#05cece"/>
      </g>
      <g id="Group_2967" data-name="Group 2967" transform="translate(2.803 -49.016)">
        <path id="Path_1705" data-name="Path 1705" d="M0,0A1.563,1.563,0,0,1,.334.088c1.1.5,2.213.988,3.3,1.526a1.169,1.169,0,0,1,.537,1.6A1.166,1.166,0,0,1,2.631,3.8Q.939,3.064-.716,2.247A1.134,1.134,0,0,1-1.278.884,1.218,1.218,0,0,1,0,0" fill="#05cece"/>
      </g>
      <g id="Group_2968" data-name="Group 2968" transform="translate(55.244 -47.655)">
        <path id="Path_1706" data-name="Path 1706" d="M0,0A1.1,1.1,0,0,1-.685.936c-1.078.513-2.158,1.022-3.253,1.493A1.171,1.171,0,0,1-5.509,1.82,1.178,1.178,0,0,1-4.927.234c1.073-.522,2.154-1.03,3.251-1.5A1.219,1.219,0,0,1,0,0" fill="#05cece"/>
      </g>
      <g id="Group_2969" data-name="Group 2969" transform="translate(2.608 -29.386)">
        <path id="Path_1707" data-name="Path 1707" d="M0,0A1.191,1.191,0,0,1-1.14-.876,1.15,1.15,0,0,1-.618-2.215q1.726-.852,3.5-1.611a1.128,1.128,0,0,1,1.377.518,1.106,1.106,0,0,1-.215,1.5,20.086,20.086,0,0,1-3.88,1.8A.632.632,0,0,1,0,0" fill="#05cece"/>
      </g>
      <g id="Group_2970" data-name="Group 2970" transform="translate(53.931 -29.387)">
        <path id="Path_1708" data-name="Path 1708" d="M0,0A1.043,1.043,0,0,1-.325-.051C-1.477-.577-2.638-1.086-3.768-1.656a1.139,1.139,0,0,1-.468-1.532A1.162,1.162,0,0,1-2.714-3.8q1.668.717,3.3,1.517A1.149,1.149,0,0,1,1.223-.9,1.183,1.183,0,0,1,0,0" fill="#05cece"/>
      </g>
      <g id="Group_2971" data-name="Group 2971" transform="translate(2.982 -37.966)">
        <path id="Path_1709" data-name="Path 1709" d="M0,0C-.552,0-1.1.016-1.655,0A1.24,1.24,0,0,1-2.982-1.253,1.227,1.227,0,0,1-1.609-2.435c1.085-.006,2.17-.008,3.254,0a1.229,1.229,0,0,1,1.334,1.17A1.253,1.253,0,0,1,1.71-.008C1.141.019.57,0,0,0Z" fill="#05cece"/>
      </g>
      <g id="Group_2972" data-name="Group 2972" transform="translate(30.235 -21.502)">
        <path id="Path_1710" data-name="Path 1710" d="M0,0Q-.011-4.368-.019-8.735a1.144,1.144,0,0,1,.385-.83c1.352-1.333,2.7-2.67,4.063-3.992a1.2,1.2,0,0,1,1.734-.057,1.215,1.215,0,0,1-.028,1.777Q4.461-10.148,2.743-8.5a1.027,1.027,0,0,0-.339.819C2.41-5.122,2.4-2.561,2.388,0A17.952,17.952,0,0,1,0,0" fill="#05cece"/>
      </g>
      <g id="Group_2973" data-name="Group 2973" transform="translate(24.042 -21.502)">
        <path id="Path_1711" data-name="Path 1711" d="M0,0C-.007-2.486-.032-4.972-.008-7.458A1.545,1.545,0,0,0-.537-8.7C-1.613-9.733-2.661-10.8-3.7-11.861a1.161,1.161,0,0,1-.2-1.513A1.221,1.221,0,0,1-2.514-13.9a1.2,1.2,0,0,1,.515.31q2.016,2.01,4.026,4.024a1.223,1.223,0,0,1,.386.888L2.392,0A17.845,17.845,0,0,1,0,0" fill="#05cece"/>
      </g>
    </g>
  </g>
</svg>
