<svg xmlns="http://www.w3.org/2000/svg" xmlns:xlink="http://www.w3.org/1999/xlink" width="56.657" height="56.646" viewBox="0 0 56.657 56.646">
  <defs>
    <clipPath id="clip-path">
      <path id="Path_1726" data-name="Path 1726" d="M0,0H56.657V-56.646H0Z" fill="none"/>
    </clipPath>
  </defs>
  <g id="Group_2990" data-name="Group 2990" transform="translate(0 56.646)">
    <g id="Group_2989" data-name="Group 2989" clip-path="url(#clip-path)">
      <g id="Group_2976" data-name="Group 2976" transform="translate(27.13 -47.182)">
        <path id="Path_1713" data-name="Path 1713" d="M0,0A4.787,4.787,0,0,1-3.582-4.274a4.725,4.725,0,0,1,2.6-4.668c.452-.214.941-.35,1.412-.522h1.44c.274.2.616.156.919.258a4.758,4.758,0,0,1,3.23,4.613A4.84,4.84,0,0,1,2.666-.061l-.26.088A6.3,6.3,0,0,1,0,0M1.228-7.033a2.374,2.374,0,0,0-2.4,2.315A2.353,2.353,0,0,0,1.218-2.283a2.354,2.354,0,0,0,2.369-2.4A2.374,2.374,0,0,0,1.228-7.033" fill="#fff"/>
      </g>
      <g id="Group_2977" data-name="Group 2977" transform="translate(0 -29.193)">
        <path id="Path_1714" data-name="Path 1714" d="M0,0C.2-.076.154-.279.195-.42A4.638,4.638,0,0,1,4.8-3.911,4.615,4.615,0,0,1,9.425-.457a.985.985,0,0,0,.07.147A6.74,6.74,0,0,1,9.5,2.081a4.838,4.838,0,0,1-9.285.226C.16,2.125.186,1.9,0,1.771ZM4.806,3.23A2.319,2.319,0,0,0,7.2.871,2.38,2.38,0,0,0,2.437.846,2.328,2.328,0,0,0,4.806,3.23" fill="#fff"/>
      </g>
      <g id="Group_2978" data-name="Group 2978" transform="translate(28.338 -20.793)">
        <path id="Path_1715" data-name="Path 1715" d="M0,0A7.558,7.558,0,0,1-7.521-7.43a7.421,7.421,0,0,1,7.55-7.584A7.418,7.418,0,0,1,7.523-7.429,7.558,7.558,0,0,1,0,0M0-12.606A5.1,5.1,0,0,0-5.083-7.611,5.015,5.015,0,0,0,0-2.47,5.017,5.017,0,0,0,5.086-7.61a5.1,5.1,0,0,0-5.084-5" fill="#fff"/>
      </g>
      <g id="Group_2979" data-name="Group 2979" transform="translate(49.805 -11.644)">
        <path id="Path_1716" data-name="Path 1716" d="M0,0A4.968,4.968,0,0,1-3.088,4.461,4.827,4.827,0,0,1-8.311,3.248a4.6,4.6,0,0,1-.9-5.257.642.642,0,0,0-.179-.881c-1.332-1.3-2.638-2.629-3.957-3.943A1.228,1.228,0,0,1-13.684-8.2a1.136,1.136,0,0,1,.995-.768,1.316,1.316,0,0,1,1.126.467c1.3,1.308,2.611,2.6,3.9,3.918a.618.618,0,0,0,.836.174A4.822,4.822,0,0,1,0,0M-4.831-2.414A2.35,2.35,0,0,0-7.206-.033,2.381,2.381,0,0,0-4.812,2.343,2.414,2.414,0,0,0-2.45-.023,2.381,2.381,0,0,0-4.831-2.414" fill="#fff"/>
      </g>
      <g id="Group_2980" data-name="Group 2980" transform="translate(11.662 -16.512)">
        <path id="Path_1717" data-name="Path 1717" d="M0,0A4.338,4.338,0,0,1,2.078.477.533.533,0,0,0,2.827.335Q4.824-1.7,6.852-3.7a1.2,1.2,0,0,1,1.509-.251,1.209,1.209,0,0,1,.571,1.372,1.568,1.568,0,0,1-.484.723C7.156-.563,5.874.737,4.569,2.012a.613.613,0,0,0-.149.84,4.606,4.606,0,0,1-.935,5.3A4.79,4.79,0,0,1-1.746,9.308a4.943,4.943,0,0,1-3.042-4.6A4.915,4.915,0,0,1,0,0M2.426,4.848A2.425,2.425,0,0,0,.051,2.438a2.442,2.442,0,0,0-2.4,2.391A2.483,2.483,0,0,0,.008,7.223,2.436,2.436,0,0,0,2.426,4.848" fill="#fff"/>
      </g>
      <g id="Group_2981" data-name="Group 2981" transform="translate(44.937 -40.144)">
        <path id="Path_1718" data-name="Path 1718" d="M0,0A4.2,4.2,0,0,1-2.026-.465a.5.5,0,0,0-.7.128q-2,2.031-4.025,4.033a1.263,1.263,0,0,1-1.561.261,1.257,1.257,0,0,1-.553-1.34,1.461,1.461,0,0,1,.476-.725C-7.095.6-5.809-.7-4.509-1.977a.6.6,0,0,0,.175-.832,4.78,4.78,0,0,1,.849-5.285,4.767,4.767,0,0,1,5.318-1.18A4.977,4.977,0,0,1,4.871-4.609,4.844,4.844,0,0,1,0,0M-2.334-4.79a2.363,2.363,0,0,0,2.4,2.364A2.445,2.445,0,0,0,2.43-4.8a2.442,2.442,0,0,0-2.4-2.394,2.37,2.37,0,0,0-2.362,2.4" fill="#fff"/>
      </g>
      <g id="Group_2982" data-name="Group 2982" transform="translate(16.51 -44.875)">
        <path id="Path_1719" data-name="Path 1719" d="M0,0A4,4,0,0,1-.47,2.015a.457.457,0,0,0,.125.651C.968,3.96,2.267,5.27,3.571,6.573a1.827,1.827,0,0,1,.489.658A1.213,1.213,0,0,1,2.195,8.613a3.413,3.413,0,0,1-.366-.336c-1-1-2.05-1.97-3-3.024A1.953,1.953,0,0,0-3.63,4.53,4.257,4.257,0,0,1-8.545,2.911a4.424,4.424,0,0,1-.5-5.211A4.683,4.683,0,0,1-4.4-4.892,4.822,4.822,0,0,1,0,0M-2.436-.065A2.369,2.369,0,0,0-4.8-2.463a2.443,2.443,0,0,0-2.4,2.4A2.444,2.444,0,0,0-4.829,2.306,2.362,2.362,0,0,0-2.436-.065" fill="#fff"/>
      </g>
      <g id="Group_2983" data-name="Group 2983" transform="translate(29.532 -9.468)">
        <path id="Path_1720" data-name="Path 1720" d="M0,0A4.625,4.625,0,0,1,3.585,4.315,4.773,4.773,0,0,1-.234,9.39a4.839,4.839,0,0,1-5.6-3.435C-6.544,3.323-5.191.988-2.387,0A7.894,7.894,0,0,1,0,0M-1.2,2.3A2.367,2.367,0,0,0-3.571,4.629,2.345,2.345,0,0,0-1.219,7.04a2.349,2.349,0,0,0,2.4-2.416A2.367,2.367,0,0,0-1.2,2.3" fill="#fff"/>
      </g>
      <g id="Group_2984" data-name="Group 2984" transform="translate(47.182 -29.504)">
        <path id="Path_1721" data-name="Path 1721" d="M0,0A4.625,4.625,0,0,1,3.548-3.473,4.713,4.713,0,0,1,9.309-.057,4.8,4.8,0,0,1,6.035,5.808,4.83,4.83,0,0,1,.088,2.65C.06,2.564.025,2.479-.006,2.394A6.8,6.8,0,0,1,0,0M4.7,3.541A2.33,2.33,0,0,0,7.06,1.147,2.409,2.409,0,0,0,4.683-1.205,2.4,2.4,0,0,0,2.3,1.191a2.319,2.319,0,0,0,2.4,2.35" fill="#fff"/>
      </g>
      <g id="Group_2985" data-name="Group 2985" transform="translate(29.532 -9.468)">
        <path id="Path_1722" data-name="Path 1722" d="M0,0A7.894,7.894,0,0,0-2.387,0c-.007-2.081-.027-4.162-.016-6.243a1.166,1.166,0,0,1,1.182-1.2,1.168,1.168,0,0,1,1.238,1.2C.028-4.162.008-2.081,0,0" fill="#5bccc9"/>
      </g>
      <g id="Group_2986" data-name="Group 2986" transform="translate(9.501 -27.112)">
        <path id="Path_1723" data-name="Path 1723" d="M0,0A6.74,6.74,0,0,0-.006-2.391c2.1-.008,4.194-.028,6.291-.019A1.168,1.168,0,0,1,7.439-1.185,1.2,1.2,0,0,1,6.182.01c-1.214.017-2.429.007-3.643,0C1.692.013.846,0,0,0" fill="#5bccc9"/>
      </g>
      <g id="Group_2987" data-name="Group 2987" transform="translate(47.182 -29.504)">
        <path id="Path_1724" data-name="Path 1724" d="M0,0A6.8,6.8,0,0,0-.006,2.394c-2.061,0-4.121.018-6.182.008a1.2,1.2,0,0,1-1.256-1.25A1.191,1.191,0,0,1-6.18-.023C-4.12-.024-2.06-.009,0,0" fill="#5bccc9"/>
      </g>
      <g id="Group_2988" data-name="Group 2988" transform="translate(27.13 -47.182)">
        <path id="Path_1725" data-name="Path 1725" d="M0,0A6.3,6.3,0,0,0,2.406.027c.007,2.062.022,4.123.016,6.185A1.214,1.214,0,1,1,0,6.186C-.012,4.124,0,2.062,0,0" fill="#5bccc9"/>
      </g>
    </g>
  </g>
</svg>
