<?xml version="1.0" encoding="utf-8"?>
<!-- Generator: Adobe Illustrator 26.4.1, SVG Export Plug-In . SVG Version: 6.00 Build 0)  -->
<svg version="1.1" id="Layer_2_00000022543192965205819140000018133516628769312903_"
	 xmlns="http://www.w3.org/2000/svg" xmlns:xlink="http://www.w3.org/1999/xlink" x="0px" y="0px" viewBox="0 0 53.3 53.5"
	 style="enable-background:new 0 0 53.3 53.5;" xml:space="preserve">
<style type="text/css">
	.st0{fill:#FFFFFF;}
</style>
<g id="sectors">
	<path class="st0" d="M15,49.9c0,0.6,0.4,1,1,1c0.6,0,1-0.5,1-1c0-0.6-0.5-1-1-1C15.5,48.9,15,49.3,15,49.9z M25,0
		c0.5,0.2,0.9,0.5,1.1,1.1c0,0.1,0.2,0.2,0.4,0.3c5,1.8,7.9,5.3,8.8,10.5c0,0.2,0.2,0.4,0.3,0.5c1.2,0.7,1.8,1.6,1.9,3
		c0,1.3-0.6,2.3-1.7,3c-0.2,0.1-0.4,0.3-0.3,0.6c0.2,4-1.5,7.2-4.1,10c0,0-0.1,0.1-0.2,0.2c3.3,1.1,6.2,2.8,8.5,5.4
		c1.2-0.7,2.2-1.5,3.1-2.4c0.9-0.8,1.2-0.8,2.1,0c1.9,1.8,4,3.2,6.6,3.8c0.2,0,0.4,0.1,0.6,0.1c0.9,0.1,1.2,0.5,1.2,1.3
		C53.4,42,51.9,46,49,49.6c-0.8,1-1.7,2-2.7,2.8c-1.8,1.5-3.1,1.4-5,0c-0.4-0.3-0.8-0.7-1.2-1.1c-0.3-0.4-0.7-0.5-1.1-0.5
		c-5.9,0-11.8,0-17.8,0c-0.2,0-0.5,0-0.7,0c-0.5-0.1-0.8-0.5-0.8-1.1c0-0.5,0.4-0.9,0.9-1c0.2,0,0.4,0,0.6,0c5.4,0,10.8,0,16.1,0
		h0.7c-0.2-0.3-0.3-0.5-0.4-0.7c-2.2-3.2-3.3-6.8-3.2-10.7c0-1,0.3-1.3,1.3-1.5c0.7-0.1,1.3-0.3,2.1-0.5c-1.5-1.5-3-2.7-4.8-3.5
		c-0.1,0.8-0.2,1.6-0.3,2.4c-0.4,1.9-1.5,3.4-2.7,4.8c-0.5,0.5-1,0.5-1.6-0.1c-1.8-1.7-3.5-3.4-5.3-5.1c-0.1-0.1-0.3-0.3-0.4-0.4
		c-1.3,1.2-2.5,2.4-3.8,3.7c-0.7,0.7-1.3,1.3-2,2c-0.5,0.5-1.1,0.5-1.5,0c-1.4-1.6-2.5-3.3-2.8-5.4c-0.1-0.6-0.1-1.2-0.2-1.9
		c-0.4,0.2-0.8,0.4-1.2,0.7c-3.8,2.2-6.2,5.5-7.7,9.5c-0.5,1.4-0.9,3-1.2,4.5c-0.3,1.5,0,2,1.6,2.1c2.3,0.1,4.7,0,7.1,0.1
		c0.2,0,0.4,0,0.7,0c0.5,0.1,0.9,0.5,0.9,1c0,0.5-0.3,0.9-0.8,1c-0.1,0-0.2,0-0.4,0c-2.5,0-5.1,0-7.6,0c-0.1,0-0.2,0-0.3,0
		c-2.4-0.2-3.7-1.7-3.3-4.1C1,41,3.4,36,8,32.3c1.7-1.4,3.6-2.3,5.7-3c0.1,0,0.2-0.1,0.4-0.1c-0.1-0.2-0.3-0.3-0.4-0.4
		c-1.8-1.9-3.1-4.1-3.7-6.7c-0.2-1-0.2-2-0.2-3c0-0.3-0.1-0.5-0.4-0.7c-2.3-1.4-2.2-4.7,0.2-6c0.3-0.2,0.4-0.4,0.4-0.7
		c0.5-3.3,2.1-6,4.7-8.1c1.3-1,2.7-1.8,4.3-2.3c0.1,0,0.3-0.1,0.4-0.2c0.3-0.3,0.7-0.7,1-1C22,0,23.5,0,25,0z M11.8,18.8
		c0.1,1,0.1,2.1,0.3,3c1.3,4.3,4.1,7.2,8.2,8.8c1.2,0.5,2.5,0.6,3.8,0.2c4.5-1.4,7.5-4.4,9-8.8c0.4-1,0.3-2.1,0.3-3.3H11.8z
		 M51.2,38c-2.9-0.6-5.2-2.1-7.3-4c-3,2.5-3.4,2.6-7.4,4c0,0.7,0.1,1.4,0.2,2.1c0.6,4.1,2.7,7.5,5.6,10.3c1.3,1.2,1.9,1.2,3.2,0
		c2-1.9,3.6-4.2,4.7-6.7C50.9,41.9,51.2,40.1,51.2,38L51.2,38z M22.6,16.8c3.7,0,7.3,0,11,0c0.2,0,0.5,0,0.7,0
		c0.6-0.1,1-0.5,1.1-1.1c0.2-0.9-0.5-1.6-1.5-1.6c-1.8,0-3.6,0-5.4,0c-3.5,0-6.9,0-10.4,0c-2.2,0-4.4,0-6.6,0c-0.2,0-0.5,0-0.7,0.1
		c-0.6,0.1-1,0.6-1,1.3c0,0.9,0.6,1.4,1.6,1.4C15.1,16.8,18.9,16.8,22.6,16.8z M12.1,11.9c0,0,0.1,0,0.1,0c1.8,0,3.6,0,5.4,0
		c0.1,0,0.4-0.2,0.4-0.4c1-2.6,1.2-5.4,1.2-8.2C15.6,4.4,12.4,8.5,12.1,11.9L12.1,11.9z M26.2,3.5c0,2.8,0.2,5.5,1.2,8.2
		c0.1,0.3,0.3,0.3,0.5,0.3c1.6,0,3.2,0,4.9,0c0.1,0,0.3,0,0.4-0.1C32.6,7.7,29.2,4.4,26.2,3.5L26.2,3.5z M21.4,2.1
		c0,3.3-0.1,6.7-1.2,9.8h5.1c-1.1-3.2-1.2-6.5-1.2-9.8L21.4,2.1L21.4,2.1z M16.2,37c1.4-1.4,2.8-2.7,4.2-4.1
		c-0.2-0.1-0.3-0.1-0.4-0.2c-1.1-0.5-2.2-0.9-3.2-1.5c-0.6-0.4-1.2-0.5-1.9-0.2c-0.2,0.1-0.4,0.2-0.4,0.5
		C14.2,33.6,14.9,35.4,16.2,37L16.2,37z M29.1,37c1.3-1.6,1.9-3.3,1.7-5.2c0-0.2-0.1-0.6-0.3-0.7C30,31,29.6,30.6,29,30.9
		c-1.1,0.6-2.3,1.2-3.4,1.8c-0.2,0.1-0.4,0.2-0.7,0.2C26.3,34.3,27.7,35.7,29.1,37L29.1,37z M15,49.9c0-0.6,0.4-1,1-1
		c0.6,0,1,0.5,1,1c0,0.6-0.5,1-1,1S15,50.5,15,49.9z M47.1,40.1c0.4,0.1,0.7,0.4,0.7,0.8c0,0.3-0.1,0.7-0.3,0.9
		c-1.1,1.2-2.2,2.5-3.3,3.7c-0.4,0.5-0.9,0.5-1.5,0.1c-0.6-0.4-1.1-0.8-1.7-1.3c-0.5-0.4-0.6-1-0.2-1.5c0.4-0.5,1-0.5,1.5-0.2
		c0.3,0.2,0.6,0.5,1,0.7"/>
</g>
</svg>
