<?xml version="1.0" encoding="utf-8"?>
<!-- Generator: Adobe Illustrator 26.4.1, SVG Export Plug-In . SVG Version: 6.00 Build 0)  -->
<svg version="1.1" id="Layer_2_00000150072479467179598740000003421416021355983805_"
	 xmlns="http://www.w3.org/2000/svg" xmlns:xlink="http://www.w3.org/1999/xlink" x="0px" y="0px" viewBox="0 0 52.6 52.5"
	 style="enable-background:new 0 0 52.6 52.5;" xml:space="preserve">
<style type="text/css">
	.st0{fill:#FFFFFF;}
</style>
<g id="sectors">
	<g>
		<path class="st0" d="M21.8,22.9c1.1,0,2.1-0.9,2.1-2c0-1.1-0.9-2-2-2.1c-1.1,0-2.1,0.9-2.1,2C19.7,21.9,20.6,22.9,21.8,22.9z
			 M30,18.8c-1.1,0-2.1,0.9-2.1,2c0,1.1,0.9,2,2,2c1.1,0,2.1-0.9,2.1-2C32,19.7,31.1,18.8,30,18.8z M38.2,22.9c1.1,0,2.1-0.9,2-2.1
			c0-1.1-0.9-2-2-2c-1.1,0-2.1,0.9-2.1,2C36.1,21.9,37.1,22.9,38.2,22.9z"/>
		<path class="st0" d="M0,31.6c0.2-0.9,0.2-1.7,0.5-2.6c1-4,3.3-7.2,6.6-9.6c0.4-0.3,0.6-0.6,0.7-1.1c0.8-6,3.9-10.6,8.8-14.1
			c3.4-2.4,7.1-3.7,11.1-4c8.1-0.6,15,1.8,20.3,8.1c3.6,4.3,5.1,9.3,4.4,14.9c0,0.3-0.1,0.6-0.2,1c-0.3,0.9-1.3,1.5-2.2,1.3
			c-1-0.2-1.7-1-1.7-2c0-0.7,0.2-1.4,0.2-2.1c0.1-4.4-1.5-8.2-4.5-11.4c-2.8-2.9-6.2-4.7-10.2-5.4c-6.2-1.1-11.8,0.3-16.6,4.5
			c-3,2.6-4.8,6-5.3,9.9c-0.4,3.4,0.3,6.6,2.1,9.5c2.4,4,5.9,6.7,10.3,8.1c3,1,6,1.2,9.1,0.6c1.5-0.3,2.9-0.8,4.4-1.2
			c0.8-0.2,1.5-0.2,2.2,0.1c2.1,0.9,4.2,1.8,6.2,2.8c0.2,0.1,0.3,0.1,0.6,0.2c-0.1-0.3-0.1-0.4-0.2-0.6c-0.7-1.8-1.4-3.5-2.1-5.3
			c-0.5-1.3,0.1-2.6,1.5-2.9c1-0.2,1.9,0.3,2.4,1.4c0.6,1.5,1.2,2.9,1.8,4.4c0.8,2,1.6,4,2.4,5.9c0.5,1.4-0.1,2.7-1.4,2.9
			c-0.5,0.1-1,0-1.5-0.2c-3.4-1.5-6.8-3-10.2-4.5c-0.4-0.2-0.7-0.2-1.1,0c-1.1,0.4-2.3,0.6-3.4,1c-0.2,0.1-0.4,0.2-0.5,0.3
			c-4.3,6.3-10.4,8.8-17.9,8.2c-1.5-0.1-2.9-0.6-4.4-0.9c-0.3-0.1-0.6-0.1-0.9,0c-2.6,1.2-5.2,2.3-7.8,3.4c-0.3,0.1-0.6,0.2-0.8,0.4
			H1.7c-0.8-0.2-1.4-0.8-1.7-1.6c0-0.3,0-0.5,0-0.8c1-2.4,2-4.9,3-7.3c0.2-0.4,0.1-0.6-0.1-0.9C1.6,40,0.7,38,0.3,35.7
			c-0.1-0.5-0.2-1.1-0.3-1.7C0,33.2,0,32.4,0,31.6z M28.8,41.5c-10.8-1.2-18.1-6.7-21-17.4c-2.4,2.5-3.7,5.4-3.7,8.9
			c0,2.8,1,5.2,2.7,7.3c0.7,0.9,0.9,1.8,0.4,2.8C6.8,44.1,6.5,45,6.1,46C6,46.1,6,46.3,5.9,46.5c1.5-0.7,2.9-1.2,4.2-1.9
			c0.9-0.4,1.7-0.5,2.7-0.1C17,46.2,21.2,46,25.3,44C26.6,43.4,27.8,42.6,28.8,41.5z"/>
		<path class="st0" d="M21.8,22.9c-1.1,0-2-1-2-2.1c0-1.1,1-2,2.1-2c1.1,0,2,1,2,2.1C23.8,22,22.9,22.9,21.8,22.9z"/>
		<path class="st0" d="M30,18.8c1.1,0,2,1,2,2.1s-1,2-2.1,2c-1.1,0-2-0.9-2-2C27.9,19.7,28.9,18.8,30,18.8z"/>
		<path class="st0" d="M38.2,22.9c-1.1,0-2.1-0.9-2-2.1c0-1.1,1-2,2.1-2c1.1,0,2,0.9,2,2C40.2,21.9,39.3,22.9,38.2,22.9z"/>
	</g>
</g>
</svg>
