<?xml version="1.0" encoding="utf-8"?>
<!-- Generator: Adobe Illustrator 26.4.1, SVG Export Plug-In . SVG Version: 6.00 Build 0)  -->
<svg version="1.1" id="Layer_2_00000162342556530215077950000002635234419126007190_"
	 xmlns="http://www.w3.org/2000/svg" xmlns:xlink="http://www.w3.org/1999/xlink" x="0px" y="0px" viewBox="0 0 52.6 52.5"
	 style="enable-background:new 0 0 52.6 52.5;" xml:space="preserve">
<style type="text/css">
	.st0{fill:#FFFFFF;}
</style>
<g id="sectors">
	<g>
		<path class="st0" d="M15.9,52.5c-0.3,0-0.7-0.2-0.9-0.4c-0.2-0.2-0.3-0.5-0.3-0.8c0.1-1.4-0.5-2.6-1.1-3.9
			c-0.2-0.5-0.5-1.1-0.7-1.6c-0.3-0.9-0.7-1.8-1.1-2.7c-0.2-0.5-0.4-1-0.6-1.5c-0.5-1.1-0.5-2.3-0.1-3.5c0.5-1.4,1-2.8,1.5-4.2
			c0.2-0.5,0.4-1,0.5-1.5c-2.2-1.2-3.3-3.1-3.1-5.5c0.2-2.2,1.3-3.8,3.5-4.7L13.1,22c-0.5-0.5-1-1-1.5-1.5c-0.6-0.6-1.3-1.3-1.9-1.9
			l-0.4-0.4c-0.8-0.8-0.8-1.5,0-2.3c1.2-1.2,2.6-2.7,4-4c-1.6-0.7-2.6-1.8-3.2-3.2c-0.4-1.1-0.5-2.3-0.1-3.4c0.7-2.4,2.7-4,5.1-4.1
			c0.1,0,0.2,0,0.3,0c1.8,0,4,0.9,5.1,3.5c0.6-0.6,1.1-1.1,1.7-1.7c0.8-0.8,1.6-1.6,2.4-2.4C25,0.3,25.4,0,25.9,0s0.9,0.3,1.1,0.6
			c0.7,0.7,1.3,1.3,2,2c1,1,2,2,3.1,3.1c0.3,0.3,0.8,0.8,0.5,1.5s-0.9,0.9-1.2,1c-1.5,0.3-2.5,1.6-2.4,3.2c0.1,1.4,1.2,2.6,2.6,2.8
			c0.1,0,0.3,0,0.4,0c1.3,0,2.5-0.9,2.9-2.2c0-0.1,0-0.2,0.1-0.3c0-0.1,0-0.2,0.1-0.3c0.2-0.6,0.7-1,1.2-1c0.3,0,0.6,0.1,0.9,0.4
			c1.7,1.6,3.5,3.4,5.5,5.5c0.3,0.3,0.8,1-0.2,1.9c-1.2,1.2-2.5,2.5-4.1,4.1l0,0c2.4,1.1,3.6,3,3.5,5.6c-0.1,2.2-1.4,3.8-3.9,4.9
			c0,0.3,0,0.7,0,1c0,1,0,1.9,0,2.9c0.1,1.1-0.2,2-0.8,2.7c-0.6,0.6-1.4,1-2.4,1c-0.4,0-0.8,0-1.2-0.2c-0.8-0.2-1.5-0.5-2.1-0.9
			c0.1,0.3,0.2,0.6,0.3,0.9c0.1,0.2,0.2,0.5,0.3,0.7c0.2,0.6,0.5,1.2,0.6,1.9c0.3,1.6,0.1,3.3-0.6,4.9c0,0,0,0.1-0.1,0.1
			c-0.1,0.1-0.1,0.3-0.2,0.4c-0.6,1-0.8,1.8-0.7,2.7c0.1,0.7-0.3,1.2-0.9,1.3c-0.1,0-0.2,0-0.3,0c-0.3,0-0.7-0.1-0.9-0.3
			c-0.3-0.2-0.4-0.7-0.4-1c-0.1-1.3,0.1-2.4,0.8-3.5c0.7-1.1,1-2.2,1-3.3c0-1-0.2-1.9-0.7-2.7c-0.8-1.4-1.1-2.9-1.1-4.7
			c0-3,0-6.1,0-9.1v-0.9c0-0.9-0.6-1.8-1.5-2.1c-0.2-0.1-0.5-0.1-0.7-0.1c-0.7,0-1.3,0.3-1.7,0.9c-0.3,0.4-0.5,1-0.5,1.5
			c0,2.9,0,5.8,0,8.6c0,1,0,1.9,0,2.9c0,0,0,0.1,0,0.1c0,0.1,0,0.3,0,0.4c-0.1,0.7-0.6,1.2-1.2,1.2c0,0,0,0-0.1,0
			c-0.7,0-1.1-0.4-1.2-1.1c0-0.2,0-0.3,0-0.4c0,0,0-0.1,0-0.1c0-0.7,0-1.3,0-1.9c0-1.9,0-3.9,0-5.9c0-0.4-0.1-0.6-0.3-0.8
			c-0.2-0.2-0.4-0.4-0.5-0.6c-0.9,2.2-2.6,3.3-5,3.5c-0.2,0-0.2,0-0.2,0.2c-0.4,1.2-0.8,2.4-1.2,3.6c-0.3,0.8-0.5,1.5-0.8,2.3
			c-0.2,0.6-0.2,1.1,0.1,1.7c0.6,1.5,1.3,3,1.9,4.5c0.5,1.1,0.9,2.2,1.4,3.3c0.4,1,0.4,2,0.4,2.8C17.1,52,16.7,52.4,15.9,52.5
			C16,52.5,15.9,52.5,15.9,52.5L15.9,52.5z M31.1,29.6c0,0.1-0.1,0.1-0.1,0.2c0,1.5,0,2.9,0,4.4c0.1,2,1.8,3.7,3.7,3.7l0,0
			c0.2,0,0.6,0,0.6-0.4c0-1.2,0-2.3,0-3.5c0-0.3,0-0.7,0-1C33.4,32.6,32,31.5,31.1,29.6L31.1,29.6z M32,25.6c0.2,0,0.4,0,0.6,0.1
			c0.7,0.4,0.7,1,0.7,1.5c-0.1,0.8,0.2,1.6,0.8,2.3c0.6,0.6,1.3,1,2.2,1c0,0,0,0,0.1,0c0.8,0,1.6-0.3,2.2-0.9s0.9-1.4,0.9-2.2
			c0-1.7-1.4-3-3.1-3c-0.1,0-0.1,0-0.2,0c-0.1,0-0.2,0-0.2,0l0,0c-0.3,0-1,0-1.3-0.8c-0.3-0.8,0.2-1.4,0.5-1.6
			c1.3-1.3,2.6-2.6,3.8-3.8l1-1c0,0,0.1-0.1,0.1-0.1l-3.2-3.2c-1.2,1.8-2.7,2.6-4.6,2.6c-0.4,0-0.9,0-1.4-0.1
			c-2.2-0.5-3.7-1.9-4.2-4.1c-0.5-2.5,0.3-4.6,2.5-6l-3.2-3.2c-0.1,0.1-0.1,0.2-0.2,0.2c-0.8,0.8-1.5,1.5-2.3,2.3
			c-0.8,0.8-1.7,1.7-2.5,2.5c-0.2,0.2-0.6,0.5-1.1,0.5c-0.2,0-0.3,0-0.5-0.1c-0.6-0.2-0.8-0.7-0.8-1.4c0-0.3,0-0.6,0-0.9
			c-0.3-1.5-1.5-2.5-3-2.5c-0.2,0-0.3,0-0.5,0C13.5,4,12.3,5.5,12.5,7c0.2,1.6,1.4,2.8,3.1,2.8c0.1,0,0.2,0,0.2,0s0.1,0,0.2,0
			c0.2,0,0.9,0,1.3,0.7c0.4,0.8-0.2,1.4-0.4,1.6c-0.8,0.8-1.5,1.5-2.3,2.3l-2.7,2.7c0.1,0,0.1,0.1,0.1,0.2c1,1,4.7,4.7,4.7,4.7
			c0.1,0.1,0.2,0.2,0.3,0.3c0.5,0.5,0.5,1.1,0.2,1.5c-0.3,0.3-0.7,0.5-1,0.6c-0.1,0-0.2,0-0.3,0c-0.1,0-0.2,0-0.2,0
			c-0.1,0-0.1,0-0.2,0c-1.4,0-2.6,1-2.9,2.3c-0.3,1.4,0.4,2.8,1.6,3.4c0.4,0.2,0.9,0.3,1.3,0.3c0.9,0,1.8-0.4,2.4-1.1
			c0.5-0.6,0.7-1.2,0.7-2c0,0,0-0.1,0-0.1c0-0.1,0-0.3,0-0.5l0-0.1c0.1-0.3,0.3-0.7,0.6-0.9c0.2-0.1,0.4-0.2,0.6-0.2
			c0.3,0,0.6,0.1,0.9,0.4c0.3,0.3,0.6,0.6,1,0.9c0.4-2.8,1.9-4.4,4.2-4.6c0.1,0,0.3,0,0.5,0c2.2,0,3.8,1.4,4.6,3.9c0,0,0,0,0,0
			C31.3,25.8,31.6,25.6,32,25.6L32,25.6z"/>
		<path class="st0" d="M3.9,18.9c-0.8,0-1.7,0-2.5,0c-0.8,0-1.4-0.5-1.4-1.3s0.6-1.3,1.4-1.3c0.3,0,0.7,0,1,0c0.2,0,0.5,0,0.8,0
			c0.2,0,0.5,0,0.8,0s1.2,0,1.5,0c0.3,0,0.7,0,1,0c0.8,0,1.4,0.5,1.4,1.3c0,0.3-0.1,0.7-0.3,0.9c-0.2,0.2-0.6,0.4-1,0.4
			C5.5,18.9,4.7,18.9,3.9,18.9z"/>
		<path class="st0" d="M48.7,18.9c-0.8,0-1.6,0-2.4,0c-0.8,0-1.4-0.5-1.4-1.3s0.6-1.3,1.4-1.3c0.3,0,0.7,0,1,0h1.5h1.5
			c0.3,0,0.6,0,1,0c0.8,0,1.4,0.5,1.4,1.3c0,0.3-0.1,0.6-0.3,0.9c-0.3,0.3-0.6,0.4-1.1,0.4C50.3,18.9,49.5,18.9,48.7,18.9L48.7,18.9
			z"/>
		<path class="st0" d="M2.8,31.4c-0.4,0-0.8-0.2-1-0.6c-0.2-0.3-0.2-0.6-0.2-0.9c0.1-0.4,0.4-0.7,0.8-1c1.1-0.6,2.6-1.5,4.1-2.3
			c0.2-0.1,0.3-0.1,0.5-0.2c0.1,0,0.2-0.1,0.3-0.1c0.1,0,0.1,0,0.2,0c0.1,0,0.2,0,0.3,0.1c0.1,0,0.1,0.1,0.2,0.1
			c0.2,0.1,0.5,0.3,0.6,0.6c0.1,0.4,0,0.8-0.1,1.1l0,0c-0.1,0.3-0.3,0.4-0.5,0.5c0,0-0.1,0-0.1,0c-1.1,0.6-2.6,1.5-4.1,2.4
			C3.4,31.3,3.1,31.4,2.8,31.4L2.8,31.4z"/>
		<path class="st0" d="M49.8,31.5c0,0-0.1,0-0.2,0c-0.1,0-0.2-0.1-0.3-0.1c-0.2-0.1-0.3-0.1-0.5-0.2c-1.5-0.9-2.9-1.7-4.2-2.4
			c-0.8-0.4-1-1.1-0.6-1.8c0.2-0.4,0.6-0.6,1.1-0.6c0.3,0,0.5,0.1,0.8,0.2c1.4,0.8,2.9,1.6,4.3,2.5h0c0.6,0.4,0.9,1,0.6,1.5
			c-0.1,0.3-0.3,0.5-0.5,0.6c-0.1,0.1-0.1,0.1-0.2,0.2C50,31.4,49.9,31.5,49.8,31.5L49.8,31.5z"/>
		<path class="st0" d="M7.4,8.9c-0.3,0-0.6-0.1-0.8-0.2C5.3,7.9,4,7.2,2.7,6.5L2.3,6.2c-0.6-0.4-0.9-1-0.6-1.5
			C1.8,4.4,2.1,4.2,2.3,4C2.4,4,2.4,3.9,2.5,3.9c0.1-0.1,0.2-0.1,0.3-0.1c0,0,0.1,0,0.2,0c0.1,0,0.2,0.1,0.3,0.1
			C3.4,4,3.5,4,3.7,4.1c1.6,0.9,3,1.7,4.2,2.4c0.7,0.4,1,1.1,0.6,1.8C8.3,8.7,7.9,8.9,7.4,8.9L7.4,8.9z"/>
		<path class="st0" d="M45.2,9C44.4,8.9,44.1,8.4,44,8c-0.2-0.6,0-1.1,0.6-1.5c0.5-0.3,1.1-0.6,1.7-0.9l0.6-0.4
			c0.2-0.1,0.4-0.2,0.6-0.3c0.5-0.3,1-0.6,1.5-0.8c0.3-0.1,0.5-0.2,0.8-0.2c0.5,0,0.8,0.2,1.1,0.6c0.3,0.7,0.1,1.3-0.6,1.8
			c-1.4,0.8-2.9,1.7-4.3,2.5c-0.1,0.1-0.3,0.1-0.4,0.2c0,0-0.1,0-0.1,0C45.4,9,45.3,9,45.2,9C45.2,9,45.2,9,45.2,9L45.2,9z"/>
	</g>
</g>
</svg>
