<?xml version="1.0" encoding="utf-8"?>
<!-- Generator: Adobe Illustrator 26.4.1, SVG Export Plug-In . SVG Version: 6.00 Build 0)  -->
<svg version="1.1" id="Layer_2_00000057828902725152485830000015701297539519918486_"
	 xmlns="http://www.w3.org/2000/svg" xmlns:xlink="http://www.w3.org/1999/xlink" x="0px" y="0px" viewBox="0 0 56.7 56.6"
	 style="enable-background:new 0 0 56.7 56.6;" xml:space="preserve">
<style type="text/css">
	.st0{fill:#FFFFFF;}
</style>
<g id="sectors">
	<path class="st0" d="M50.5,0h1.1c0.8,0.2,1.5,0.8,2.1,1.4c0.7,0.7,1.3,1.3,2,2c1.4,1.4,1.4,3,0,4.4c-1.6,1.6-3.3,3.3-4.9,4.9
		c-0.1,0.1-0.2,0.3-0.5,0.5c1.3,0,2.4,0,3.5,0c1.8,0,2.9,1.2,2.9,2.9c0,12.5,0,25,0,37.5c0,1.7-1.2,2.9-2.9,2.9
		c-15.3,0-30.7,0-46.1,0c-3.4,0-6.5-2.3-7.4-5.7c-0.1-0.4-0.2-0.7-0.3-1.1C0,35.5,0,21.1,0,6.6c0-0.1,0.1-0.2,0.1-0.3
		c0.6-3.1,2.5-5.1,5.5-6.1C5.9,0.2,6.3,0.1,6.6,0C7.8,0,8.9,0,10,0c1.9,0.7,2.3,1.5,2.3,3.5c0,3,0,6.1,0,9.1c0,0.2,0,0.4,0,0.6
		c0.2,0,0.4,0,0.5,0c7.8,0,15.6,0,23.4,0c0.3,0,0.6-0.2,0.8-0.4c3.8-3.8,7.6-7.6,11.4-11.4C49,0.9,49.6,0.3,50.5,0z M12.3,15.1v0.7
		c0,8.1,0,16.3,0,24.5c0,2-1.1,3.1-3.1,3.1c-0.7,0-1.4,0-2.2,0c-3.1,0.2-5.6,3.3-5,6.4c0.5,2.9,2.9,4.9,6,4.9c15.2,0,30.4,0,45.5,0
		c1,0,1.3-0.3,1.3-1.3c0-12.4,0-24.8,0-37.2c0-0.9-0.3-1.2-1.2-1.2c-1.5,0-3.1,0-4.7,0c-0.4,0-0.7,0.1-0.9,0.4
		c-2.8,2.8-5.6,5.6-8.4,8.4c-0.6,0.6-1.3,1.1-2.1,1.2c-1.4,0.2-2.9,0.4-4.3,0.4c-4.2,0-8.4,0-12.6,0c-0.2,0-0.4,0-0.7,0v10.4h22.6
		c0-0.2,0-0.4,0-0.6c0-1.3,0-2.7,0-4c0-0.6,0.4-1,0.9-1c0.5,0,0.9,0.4,1,1c0,0.1,0,0.1,0,0.2c0,4.6,0,9.2,0,13.8
		c0,0.2,0,0.5-0.1,0.7c-0.2,0.9-1,1.4-2.1,1.4c-6.1,0-12.1,0-18.2,0c-0.2,0-0.5,0-0.7-0.1c-0.4-0.2-0.6-0.5-0.6-1
		c0-0.5,0.3-0.7,0.8-0.8c0.2,0,0.4,0,0.6,0c1.8,0,3.7,0,5.5,0c0.2,0,0.4,0,0.6,0v-7.5H19.8c0,0.2,0,0.4,0,0.6c0,4,0,8,0,12.1
		c0,0.2,0,0.4,0,0.5c0,0.5-0.4,0.9-0.9,0.9c-0.5,0-0.9-0.3-1-0.8c0-0.2,0-0.4,0-0.5c0-8.1,0-16.2,0-24.3v-0.7c-1,0-1.8,0-2.7,0
		c-0.6,0-1-0.4-1.1-0.9c0-0.5,0.4-1,1-1c0.2,0,0.3,0,0.5,0c4.9,0,9.9,0,14.8,0h0.6c0.1-1.5,0.3-2.8,0.4-4.2c0.1-0.9,0.5-1.6,1.2-2.3
		c0.7-0.6,1.3-1.3,2-2L12.3,15.1L12.3,15.1z M1.9,43.9c0.8-0.5,1.5-1.1,2.3-1.5c1.5-0.8,3.1-0.9,4.8-0.8c1.2,0,1.4-0.2,1.4-1.5
		c0-12.2,0-24.5,0-36.7c0-0.2,0-0.3,0-0.4c0-0.7-0.4-1-1-1c-0.5,0-1,0-1.5,0c-3.6,0-6,2.4-6,6c0,11.9,0,23.7,0,35.5L1.9,43.9
		L1.9,43.9z M48.9,11.8c-1.4-1.4-2.7-2.7-4-4c-3.4,3.4-6.8,6.8-10.1,10.1c1.3,1.3,2.7,2.6,4,4C42.1,18.6,45.5,15.2,48.9,11.8
		L48.9,11.8z M42.5,37.8H32.1v7.5h10.3V37.8z M53.1,7.6c0.5-0.4,1-0.9,1.4-1.4c0.3-0.4,0.3-0.9,0-1.2c-0.9-0.9-1.9-1.9-2.8-2.8
		c-0.4-0.4-0.8-0.4-1.2,0c-0.5,0.5-1,1-1.4,1.4C50.4,4.9,51.7,6.3,53.1,7.6L53.1,7.6z M47.6,5c-0.4,0.4-0.9,0.8-1.3,1.2
		c1.3,1.3,2.7,2.7,4,4c0.4-0.4,0.9-0.8,1.3-1.2C50.3,7.7,49,6.4,47.6,5z M37,23.2c-1.2-1.2-2.4-2.4-3.6-3.6c-0.1,1-0.2,2.1-0.3,3.1
		c-0.1,0.6,0.2,0.9,0.9,0.8C35,23.5,36,23.3,37,23.2L37,23.2z"/>
</g>
</svg>
