<?xml version="1.0" encoding="utf-8"?>
<!-- Generator: Adobe Illustrator 26.4.1, SVG Export Plug-In . SVG Version: 6.00 Build 0)  -->
<svg version="1.1" id="Layer_2_00000078723754696214171330000006157723287244669589_"
	 xmlns="http://www.w3.org/2000/svg" xmlns:xlink="http://www.w3.org/1999/xlink" x="0px" y="0px" viewBox="0 0 56.7 53.2"
	 style="enable-background:new 0 0 56.7 53.2;" xml:space="preserve">
<style type="text/css">
	.st0{fill:#FFFFFF;}
</style>
<g id="sectors">
	<g>
		<path class="st0" d="M34.2,51.7c0-0.3,0-0.5,0-0.8c0-4,0-8.1,0-12.1c0-2.2-0.9-3.9-2.5-5.3c-0.4-0.3-0.9-0.3-1.1,0
			c-0.3,0.3-0.2,0.7,0.2,1.1c1.4,1.1,2,2.5,2,4.3c0,4,0,8.1,0,12.1c0,0.2,0,0.3,0,0.6c-0.7,0-1.4,0-2.1,0c-0.5,0-0.8,0.2-0.8,0.7
			c0,0.5,0.3,0.7,0.8,0.7c3.4,0,6.8,0,10.2,0c3.4-0.1,6-2.8,6-6.2c0-4.9,0-9.8,0-14.7c0-0.6-0.3-0.9-0.7-0.9c-0.4,0-0.7,0.3-0.7,0.9
			c0,0.7,0,1.4,0,2.2c0,4.1,0,8.2,0,12.3c0,3-2,5-5.1,5.1c-1.3,0-2.5,0-3.8,0C35.8,51.7,35.1,51.7,34.2,51.7L34.2,51.7z M21.1,51.7
			c-0.6,0-1.1,0-1.6,0c-0.5,0-0.8,0.2-0.8,0.7c0,0.4,0.3,0.7,0.8,0.7c0.7,0,1.5,0,2.2,0c0.6,0,0.8-0.2,0.8-0.8c0-0.8,0-1.5,0-2.3
			c0-0.6-0.2-0.9-0.7-0.9c-0.4,0-0.7,0.3-0.7,0.9C21.1,50.5,21.1,51.1,21.1,51.7L21.1,51.7z M9.9,40.3c0-0.4,0-0.9,0-1.3
			c0-0.4-0.2-0.7-0.7-0.7c-0.4,0-0.7,0.2-0.7,0.7c0,0.9,0,1.8,0,2.7c0,0.4,0.3,0.7,0.7,0.7c0.4,0,0.7-0.3,0.7-0.7
			C10,41.2,9.9,40.8,9.9,40.3L9.9,40.3z M9.9,33.3c0-0.4,0-0.8,0-1.3c0-0.4-0.2-0.7-0.7-0.7c-0.5,0-0.7,0.3-0.7,0.7
			c0,0.8,0,1.7,0,2.5c0,0.4,0.3,0.7,0.7,0.7c0.4,0,0.7-0.3,0.7-0.7C9.9,34.2,9.9,33.7,9.9,33.3L9.9,33.3z M8.5,46.7c0,0-0.1,0-0.1,0
			c0.2,0.8,0.3,1.5,0.5,2.2c0.1,0.4,0.4,0.6,0.8,0.5c0.4-0.1,0.6-0.4,0.5-0.8c-0.1-0.8-0.2-1.7-0.3-2.5c-0.1-0.4-0.3-0.6-0.7-0.7
			c-0.4,0-0.6,0.2-0.7,0.6C8.5,46.2,8.5,46.5,8.5,46.7L8.5,46.7z M20.7,8.3c0.2-0.1,0.4-0.1,0.5-0.2c0.7-0.7,1.4-1.4,2.1-2.1
			c0.3-0.3,0.2-0.7-0.1-0.9c-0.2-0.1-0.7-0.2-0.9,0c-0.7,0.6-1.4,1.3-2,2c-0.1,0.2-0.1,0.5-0.1,0.7C20.3,8.1,20.5,8.2,20.7,8.3
			L20.7,8.3z M21.1,15.9c0.2-0.1,0.4-0.1,0.5-0.2c0.7-0.7,1.4-1.3,2-2c0.3-0.3,0.2-0.7-0.1-0.9c-0.2-0.1-0.7-0.2-0.9-0.1
			c-0.7,0.6-1.4,1.3-2.1,2.1c-0.1,0.1-0.1,0.5,0,0.7C20.6,15.7,20.9,15.8,21.1,15.9L21.1,15.9z M18.8,18.2c-0.2-0.2-0.3-0.5-0.5-0.5
			c-0.2-0.1-0.6,0-0.8,0.1c-0.6,0.6-1.2,1.2-1.8,1.8c-0.3,0.3-0.4,0.7,0,1c0.3,0.3,0.7,0.3,1,0c0.6-0.6,1.2-1.2,1.8-1.8
			C18.6,18.7,18.7,18.5,18.8,18.2L18.8,18.2z M13.8,23.3c-0.2-0.2-0.3-0.5-0.6-0.6c-0.2-0.1-0.6,0-0.8,0.2c-0.6,0.5-1.2,1.1-1.8,1.7
			c-0.4,0.4-0.4,0.8-0.1,1.1c0.3,0.3,0.7,0.3,1.1-0.1c0.6-0.6,1.1-1.1,1.7-1.7C13.6,23.7,13.6,23.5,13.8,23.3L13.8,23.3z M0,27.6
			c0.2,0.2,0.3,0.5,0.5,0.6c0.2,0.1,0.6,0,0.8-0.2c0.6-0.5,1.2-1.1,1.7-1.7c0.4-0.4,0.4-0.8,0.1-1.1c-0.3-0.3-0.7-0.3-1.1,0.1
			c-0.6,0.5-1.1,1.1-1.7,1.7C0.2,27.2,0.2,27.4,0,27.6L0,27.6z M3,33.4c0.2-0.2,0.5-0.3,0.6-0.5c0.1-0.2,0-0.6-0.2-0.8
			c-0.5-0.6-1.1-1.2-1.7-1.7c-0.4-0.4-0.8-0.4-1.1-0.1c-0.3,0.3-0.3,0.7,0.1,1.1c0.5,0.6,1.1,1.1,1.7,1.7C2.6,33.1,2.8,33.2,3,33.4
			L3,33.4z M22.5,44c0-0.5,0-0.9,0-1.4c0-0.4-0.2-0.7-0.6-0.7c-0.4,0-0.7,0.2-0.7,0.7c0,0.9,0,1.8,0,2.7c0,0.4,0.3,0.7,0.7,0.7
			c0.4,0,0.7-0.3,0.7-0.7C22.5,44.9,22.5,44.5,22.5,44L22.5,44z M18.5,10.7c-0.2-0.2-0.3-0.5-0.5-0.6c-0.2-0.1-0.6,0-0.8,0.1
			c-0.6,0.5-1.2,1.1-1.8,1.7c-0.3,0.3-0.4,0.7-0.1,1.1c0.3,0.3,0.7,0.3,1.1-0.1c0.6-0.6,1.1-1.1,1.7-1.7
			C18.2,11.1,18.3,10.9,18.5,10.7L18.5,10.7z M5.7,23.3c0.2-0.1,0.4-0.1,0.5-0.2c0.7-0.7,1.4-1.3,2-2c0.3-0.3,0.2-0.6-0.1-0.9
			c-0.3-0.3-0.7-0.3-0.9,0c-0.7,0.6-1.3,1.3-1.9,2c-0.1,0.2-0.2,0.5-0.1,0.8C5.3,23.1,5.6,23.2,5.7,23.3L5.7,23.3z M8.8,28.3
			c-0.2-0.2-0.3-0.5-0.5-0.6c-0.2-0.1-0.6,0-0.8,0.1c-0.6,0.6-1.2,1.2-1.8,1.8c-0.3,0.3-0.4,0.7-0.1,1c0.3,0.3,0.7,0.3,1.1,0
			c0.6-0.6,1.2-1.2,1.7-1.8C8.6,28.7,8.6,28.5,8.8,28.3L8.8,28.3z M21,38.1c0,0,0.1,0,0.1,0.1c0,0.4,0.1,0.8,0.6,0.8
			c0.5,0.1,0.7-0.2,0.8-0.7c0.2-0.7,0.5-1.5,0.7-2.2c0.1-0.4,0.1-0.7-0.3-1c-0.4-0.2-0.8-0.1-0.9,0.3C21.7,36.3,21.4,37.2,21,38.1
			L21,38.1z M13.5,15.7c-0.2-0.2-0.3-0.5-0.5-0.6c-0.3-0.1-0.6,0-0.8,0.1c-0.6,0.6-1.2,1.2-1.8,1.8c-0.3,0.3-0.4,0.7,0,1
			c0.3,0.3,0.7,0.3,1,0c0.6-0.6,1.2-1.2,1.8-1.8C13.3,16.1,13.3,15.9,13.5,15.7z M14.5,53.2C14.5,53.2,14.5,53.1,14.5,53.2
			c0.1-0.1,0.2-0.1,0.2-0.1c0.6,0,1-0.2,1-0.7c0-0.5-0.3-0.6-0.9-0.7c-0.7-0.1-1.3-0.2-2-0.4c-0.4-0.1-0.8-0.1-1,0.3
			c-0.2,0.4,0,0.8,0.5,1C13,52.8,13.8,53,14.5,53.2L14.5,53.2z M26.3,53.1L26.3,53.1c0.3,0,0.5,0,0.8,0c0.4,0,0.6-0.3,0.6-0.7
			c0-0.4-0.2-0.7-0.6-0.7c-0.5,0-1.1,0-1.6,0c-0.4,0-0.6,0.3-0.6,0.7c0,0.4,0.2,0.7,0.6,0.7C25.7,53.1,26,53.1,26.3,53.1L26.3,53.1z
			 M27.1,32.3c-0.4,0.1-0.8,0.1-1.1,0.2c-0.4,0.1-0.6,0.4-0.5,0.8c0.1,0.4,0.4,0.6,0.8,0.5c0.3,0,0.7-0.1,1-0.2
			c0.4-0.1,0.7-0.3,0.6-0.8C27.9,32.4,27.5,32.2,27.1,32.3L27.1,32.3z"/>
		<path class="st0" d="M56.7,29.2c-1.4,1.4-2.8,2.8-4.2,4.2c-0.4,0.4-0.8,0.2-1.1-0.1c-1.6-1.6-3.2-3.3-4.9-4.9
			C40.3,22.3,34.2,16.1,28,10c-0.1-0.1-0.2-0.2-0.4-0.4c-0.3,0.3-0.6,0.7-0.9,1c-0.4,0.4-0.8,0.4-1.1,0c-0.3-0.4-0.2-0.7,0.1-1
			c0.5-0.5,0.9-0.9,1.4-1.4c0.4-0.4,0.7-0.4,1.1,0c0.1,0.1,0.3,0.3,0.4,0.4c7.6,7.6,15.2,15.2,22.8,22.8c0.2,0.2,0.3,0.3,0.4,0.5
			c1-1,2-2,2.9-2.9c-9-9-18-18.1-27.2-27.2c-0.4,0.4-0.7,0.8-1.2,1.2c-0.4,0.4-0.8,0.4-1.1,0.1C25,2.8,25,2.4,25.4,2
			c0.5-0.5,1-1,1.6-1.6c0.5-0.5,0.9-0.5,1.4,0C32,4,35.6,7.6,39.1,11.2c5.7,5.7,11.3,11.3,17,17c0.2,0.2,0.3,0.3,0.5,0.5
			C56.6,28.7,56.6,29.2,56.7,29.2z"/>
		<path class="st0" d="M34.2,51.7c0.8,0,1.6,0,2.3,0c1.3,0,2.5,0,3.8,0c3,0,5-2.1,5.1-5.1c0-4.1,0-8.2,0-12.3c0-0.7,0-1.4,0-2.2
			c0-0.6,0.2-0.9,0.7-0.9c0.5,0,0.7,0.3,0.7,0.9c0,4.9,0,9.8,0,14.7c0,3.4-2.7,6.1-6,6.2c-3.4,0.1-6.8,0-10.2,0
			c-0.6,0-0.9-0.3-0.8-0.7c0-0.5,0.4-0.7,0.8-0.7c0.7,0,1.4,0,2.1,0c0-0.2,0-0.4,0-0.6c0-4,0-8.1,0-12.1c0-1.8-0.7-3.2-2-4.3
			c-0.5-0.4-0.5-0.7-0.2-1.1c0.3-0.3,0.7-0.4,1.1,0c1.7,1.3,2.5,3.1,2.5,5.3c0,4,0,8.1,0,12.1C34.2,51.2,34.2,51.4,34.2,51.7
			L34.2,51.7z"/>
		<path class="st0" d="M21.1,51.7c0-0.6,0-1.2,0-1.8c0-0.6,0.2-0.9,0.7-0.9c0.5,0,0.7,0.3,0.7,0.9c0,0.8,0,1.5,0,2.3
			c0,0.6-0.2,0.8-0.8,0.8c-0.7,0-1.5,0-2.2,0c-0.5,0-0.8-0.3-0.8-0.7c0-0.5,0.3-0.7,0.8-0.7C20,51.7,20.5,51.7,21.1,51.7L21.1,51.7z
			"/>
		<path class="st0" d="M9.9,40.3c0,0.4,0,0.9,0,1.3c0,0.4-0.2,0.7-0.7,0.7c-0.4,0-0.7-0.3-0.7-0.7c0-0.9,0-1.8,0-2.7
			c0-0.4,0.3-0.7,0.7-0.7c0.4,0,0.6,0.3,0.7,0.7C9.9,39.5,9.9,39.9,9.9,40.3L9.9,40.3z"/>
		<path class="st0" d="M9.9,33.3c0,0.4,0,0.8,0,1.3c0,0.4-0.2,0.7-0.7,0.7c-0.5,0-0.7-0.3-0.7-0.7c0-0.8,0-1.7,0-2.5
			c0-0.4,0.2-0.7,0.7-0.7c0.5,0,0.7,0.3,0.7,0.7C10,32.4,10,32.9,9.9,33.3L9.9,33.3z"/>
		<path class="st0" d="M8.5,46.7c0-0.2,0-0.4,0-0.7c0.1-0.4,0.3-0.6,0.7-0.6c0.4,0,0.6,0.2,0.7,0.7c0.1,0.8,0.2,1.7,0.3,2.5
			c0.1,0.4-0.1,0.7-0.5,0.8c-0.4,0.1-0.7-0.1-0.8-0.5c-0.2-0.7-0.3-1.5-0.5-2.2C8.5,46.7,8.5,46.7,8.5,46.7L8.5,46.7z"/>
		<path class="st0" d="M20.7,8.3c-0.2-0.1-0.4-0.3-0.5-0.5s-0.1-0.6,0.1-0.7c0.6-0.7,1.3-1.4,2-2c0.2-0.2,0.6-0.1,0.9,0
			c0.3,0.2,0.4,0.6,0.1,0.9c-0.7,0.7-1.4,1.4-2.1,2.1C21.1,8.3,20.9,8.3,20.7,8.3L20.7,8.3z"/>
		<path class="st0" d="M21.1,15.9c-0.2-0.1-0.4-0.2-0.5-0.4c-0.1-0.2-0.1-0.6,0-0.7c0.6-0.7,1.3-1.4,2.1-2.1
			c0.2-0.1,0.6-0.1,0.9,0.1c0.3,0.2,0.3,0.6,0.1,0.9c-0.6,0.7-1.3,1.4-2,2C21.4,15.8,21.3,15.9,21.1,15.9L21.1,15.9z"/>
		<path class="st0" d="M18.8,18.2c-0.1,0.2-0.2,0.4-0.3,0.6c-0.6,0.6-1.2,1.2-1.8,1.8c-0.3,0.3-0.7,0.3-1,0c-0.3-0.3-0.3-0.7,0-1
			c0.6-0.6,1.2-1.2,1.8-1.8c0.2-0.2,0.5-0.2,0.8-0.1C18.5,17.7,18.6,18,18.8,18.2L18.8,18.2z"/>
		<path class="st0" d="M13.8,23.2c-0.2,0.3-0.2,0.5-0.4,0.6c-0.6,0.6-1.1,1.1-1.7,1.7c-0.4,0.4-0.8,0.4-1.1,0.1
			c-0.3-0.3-0.3-0.7,0.1-1.1c0.6-0.6,1.1-1.2,1.8-1.7c0.2-0.2,0.5-0.2,0.8-0.2C13.5,22.7,13.6,23,13.8,23.2L13.8,23.2z"/>
		<path class="st0" d="M0,27.6c0.2-0.3,0.2-0.5,0.4-0.6c0.6-0.6,1.1-1.1,1.7-1.7c0.4-0.4,0.8-0.4,1.1-0.1c0.3,0.3,0.3,0.7-0.1,1.1
			c-0.6,0.6-1.1,1.2-1.7,1.7c-0.2,0.2-0.6,0.2-0.8,0.2C0.3,28.1,0.2,27.8,0,27.6L0,27.6z"/>
		<path class="st0" d="M3,33.4c-0.3-0.2-0.5-0.2-0.6-0.4c-0.6-0.5-1.1-1.1-1.7-1.7c-0.4-0.4-0.4-0.8-0.1-1.1
			c0.3-0.3,0.7-0.3,1.1,0.1c0.6,0.6,1.2,1.1,1.7,1.7c0.2,0.2,0.2,0.5,0.2,0.8C3.6,33,3.3,33.2,3,33.4L3,33.4z"/>
		<path class="st0" d="M22.5,44c0,0.4,0,0.8,0,1.3c0,0.4-0.2,0.7-0.7,0.7c-0.4,0-0.7-0.2-0.7-0.7c0-0.9,0-1.8,0-2.7
			c0-0.4,0.3-0.7,0.7-0.7c0.4,0,0.6,0.3,0.6,0.7C22.5,43.1,22.5,43.6,22.5,44L22.5,44z"/>
		<path class="st0" d="M18.5,10.7c-0.2,0.3-0.3,0.5-0.4,0.6c-0.5,0.6-1.1,1.1-1.7,1.7c-0.4,0.4-0.8,0.4-1.1,0.1
			c-0.3-0.4-0.2-0.7,0.1-1.1c0.6-0.6,1.2-1.2,1.8-1.7c0.2-0.2,0.5-0.2,0.8-0.1C18.2,10.2,18.3,10.5,18.5,10.7L18.5,10.7z"/>
		<path class="st0" d="M5.7,23.3c-0.2-0.1-0.5-0.2-0.5-0.4c-0.1-0.2-0.1-0.6,0.1-0.8c0.6-0.7,1.3-1.3,1.9-2c0.3-0.3,0.7-0.2,0.9,0
			c0.3,0.3,0.3,0.6,0.1,0.9c-0.7,0.7-1.3,1.4-2,2C6.1,23.2,5.9,23.2,5.7,23.3L5.7,23.3z"/>
		<path class="st0" d="M8.8,28.3c-0.1,0.2-0.2,0.5-0.4,0.6c-0.6,0.6-1.2,1.2-1.8,1.8c-0.4,0.4-0.8,0.4-1.1,0c-0.3-0.4-0.3-0.7,0.1-1
			c0.6-0.6,1.2-1.2,1.8-1.8c0.2-0.2,0.5-0.2,0.8-0.1C8.5,27.8,8.6,28.1,8.8,28.3L8.8,28.3z"/>
		<path class="st0" d="M21,38c0.4-0.9,0.7-1.8,1-2.6c0.2-0.4,0.6-0.5,0.9-0.3c0.4,0.2,0.4,0.5,0.3,1c-0.3,0.7-0.5,1.4-0.7,2.2
			c-0.1,0.4-0.3,0.7-0.8,0.7c-0.5-0.1-0.6-0.4-0.6-0.8C21.1,38.1,21.1,38.1,21,38L21,38z"/>
		<path class="st0" d="M13.5,15.7c-0.1,0.2-0.2,0.4-0.3,0.6c-0.6,0.6-1.2,1.2-1.8,1.8c-0.3,0.3-0.7,0.4-1,0c-0.3-0.3-0.3-0.7,0-1
			c0.6-0.6,1.2-1.2,1.8-1.8c0.2-0.2,0.6-0.2,0.8-0.1C13.2,15.2,13.3,15.5,13.5,15.7z"/>
		<path class="st0" d="M14.5,53.2c-0.7-0.2-1.4-0.4-2.2-0.6c-0.5-0.2-0.7-0.6-0.5-1c0.2-0.5,0.6-0.5,1-0.3c0.6,0.2,1.3,0.3,2,0.4
			c0.6,0.1,0.9,0.3,0.9,0.7c0,0.5-0.3,0.7-1,0.7C14.7,53.1,14.6,53.1,14.5,53.2C14.5,53.1,14.5,53.2,14.5,53.2L14.5,53.2z"/>
		<path class="st0" d="M26.3,53.1c-0.3,0-0.5,0-0.8,0c-0.4,0-0.6-0.3-0.6-0.7c0-0.4,0.2-0.6,0.6-0.7c0.5,0,1.1,0,1.6,0
			c0.4,0,0.6,0.3,0.6,0.7s-0.2,0.6-0.6,0.7C26.8,53.1,26.5,53.1,26.3,53.1L26.3,53.1L26.3,53.1z"/>
		<path class="st0" d="M27.1,32.2c0.5,0,0.8,0.2,0.8,0.6c0,0.4-0.2,0.7-0.6,0.8c-0.3,0.1-0.7,0.1-1,0.2c-0.4,0.1-0.7-0.1-0.8-0.5
			c-0.1-0.4,0.1-0.7,0.5-0.8C26.3,32.4,26.7,32.3,27.1,32.2L27.1,32.2z"/>
	</g>
</g>
</svg>
