<svg xmlns="http://www.w3.org/2000/svg" xmlns:xlink="http://www.w3.org/1999/xlink" width="56.693" height="56.7" viewBox="0 0 56.693 56.7">
  <defs>
    <clipPath id="clip-path">
      <path id="Path_1697" data-name="Path 1697" d="M0,0H56.693V-56.7H0Z" fill="none"/>
    </clipPath>
  </defs>
  <g id="Group_2958" data-name="Group 2958" transform="translate(0 56.7)">
    <g id="Group_2957" data-name="Group 2957" clip-path="url(#clip-path)">
      <g id="Group_2948" data-name="Group 2948" transform="translate(7.084 -56.7)">
        <path id="Path_1688" data-name="Path 1688" d="M0,0C.36.1.724.186,1.079.3A6.254,6.254,0,0,1,4.658,9.35a.556.556,0,0,0,.13.814c1.52,1.505,3.021,3.029,4.529,4.546L7.624,16.4C6.108,14.9,4.585,13.4,3.082,11.876a.563.563,0,0,0-.816-.132,6,6,0,0,1-6.35-.13A6.032,6.032,0,0,1-7.074,6,6.288,6.288,0,0,1-2.468.225c.2-.054.433-.038.585-.225ZM3.035,6.345A3.846,3.846,0,0,0-.673,2.44,3.858,3.858,0,0,0-4.648,6.193a3.843,3.843,0,0,0,3.8,3.929A3.831,3.831,0,0,0,3.035,6.345" fill="#fff"/>
      </g>
      <g id="Group_2949" data-name="Group 2949" transform="translate(41.98 -16.407)">
        <path id="Path_1689" data-name="Path 1689" d="M0,0C1.54,1.529,3.084,3.054,4.614,4.592a.458.458,0,0,0,.679.1,6.27,6.27,0,0,1,9.309,4.3c.016.085-.011.188.11.219V11.2c-.2.1-.155.316-.2.478a6.053,6.053,0,0,1-4.87,4.588,5.91,5.91,0,0,1-6.329-2.546A5.967,5.967,0,0,1,2.972,7.05a.561.561,0,0,0-.138-.813C1.316,4.732-.184,3.209-1.691,1.692L0,0M4.589,10.04A3.843,3.843,0,1,0,8.495,6.283,3.854,3.854,0,0,0,4.589,10.04" fill="#fff"/>
      </g>
      <g id="Group_2950" data-name="Group 2950" transform="translate(40.29 -41.988)">
        <path id="Path_1690" data-name="Path 1690" d="M0,0C1.521-1.531,3.035-3.067,4.567-4.586a.488.488,0,0,0,.114-.725A6.253,6.253,0,0,1,9.04-14.6c.074-.014.144-.018.165-.106h1.772c.035.034.066.093.1.1a6.135,6.135,0,0,1,5.133,4.679c.052.177-.017.41.188.536V-7.4A4.3,4.3,0,0,0,16-6.232,6.263,6.263,0,0,1,7.053-2.966a.555.555,0,0,0-.814.129C4.734-1.317,3.21.184,1.692,1.692L0,0M10.049-4.589a3.85,3.85,0,0,0,3.915-3.756,3.856,3.856,0,0,0-3.747-3.927A3.842,3.842,0,0,0,6.28-8.484a3.835,3.835,0,0,0,3.769,3.895" fill="#fff"/>
      </g>
      <g id="Group_2951" data-name="Group 2951" transform="translate(40.29 -41.988)">
        <path id="Path_1691" data-name="Path 1691" d="M0,0,1.692,1.692A18.583,18.583,0,0,1,4.858,6.92a17.877,17.877,0,0,1-2.7,18.045l-.468.616L0,27.274a18.679,18.679,0,0,1-5.267,3.183,17.89,17.89,0,0,1-17.966-2.682l-.657-.5-1.693-1.692a18.968,18.968,0,0,1-3.1-5.064,17.893,17.893,0,0,1,2.8-18.432c.1-.13.2-.263.3-.395L-23.889,0a18.7,18.7,0,0,1,5.166-3.138A17.88,17.88,0,0,1-.439-.332C-.295-.219-.147-.111,0,0M-4.707,27.483a12.418,12.418,0,0,0,2.421-1.562c.163-.12.338-.226.488-.361A15.285,15.285,0,0,0,3.451,10.9,15.624,15.624,0,0,0-15.078-1.72,15.675,15.675,0,0,0-26.436,19.57,14.763,14.763,0,0,0-21.6,25.919a12.531,12.531,0,0,0,2.423,1.563,2.42,2.42,0,0,0,.271.182A15.531,15.531,0,0,0-9.473,29.1a13.058,13.058,0,0,0,4.766-1.62" fill="#02cece"/>
      </g>
      <g id="Group_2952" data-name="Group 2952" transform="translate(14.707 -16.406)">
        <path id="Path_1692" data-name="Path 1692" d="M0,0,1.692,1.692C.172,3.222-1.343,4.759-2.875,6.277A.494.494,0,0,0-2.991,7a6.014,6.014,0,0,1-.136,6.45,6.022,6.022,0,0,1-5.7,2.934A6.291,6.291,0,0,1-14.7,9.747a6.3,6.3,0,0,1,6.5-5.9,5.988,5.988,0,0,1,2.887.83c.313.189.472.147.724-.109C-3.07,3.031-1.531,1.52,0,0M-4.588,10.1A3.831,3.831,0,0,0-8.433,6.279a3.843,3.843,0,0,0-3.84,3.886,3.859,3.859,0,0,0,3.878,3.8A3.847,3.847,0,0,0-4.588,10.1" fill="#fff"/>
      </g>
      <g id="Group_2953" data-name="Group 2953" transform="translate(35.583 -14.505)">
        <path id="Path_1693" data-name="Path 1693" d="M0,0A13.076,13.076,0,0,1-4.766,1.62,15.531,15.531,0,0,1-14.2.18,2.262,2.262,0,0,1-14.476,0c.089-1.1-.065-2.21.132-3.31A7.224,7.224,0,0,1-7.238-9.244,7.22,7.22,0,0,1-.133-3.31C.061-2.209-.091-1.1,0,0" fill="#fcfffc"/>
      </g>
      <g id="Group_2954" data-name="Group 2954" transform="translate(35.583 -14.505)">
        <path id="Path_1694" data-name="Path 1694" d="M0,0C-.091-1.1.061-2.209-.133-3.31a7.22,7.22,0,0,0-7.1-5.934,7.224,7.224,0,0,0-7.106,5.932c-.2,1.1-.043,2.209-.132,3.31A12.507,12.507,0,0,1-16.9-1.565a9.384,9.384,0,0,1,4.037-8.286,9.138,9.138,0,0,1,9.974-.767,9.291,9.291,0,0,1,5.3,8.447c.008.2.007.406.011.609A12.465,12.465,0,0,1,0,0" fill="#fff"/>
      </g>
      <g id="Group_2955" data-name="Group 2955" transform="translate(28.413 -39.693)">
        <path id="Path_1695" data-name="Path 1695" d="M0,0A6.3,6.3,0,0,1,6.222,6.372,6.314,6.314,0,0,1-.247,12.557a6.327,6.327,0,0,1-6.11-6.376A6.3,6.3,0,0,1,0,0M-.076,2.437A3.86,3.86,0,0,0-3.921,6.27,3.871,3.871,0,0,0-.033,10.122,3.875,3.875,0,0,0,3.785,6.254,3.86,3.86,0,0,0-.076,2.437" fill="#fff"/>
      </g>
      <g id="Group_2956" data-name="Group 2956" transform="translate(28.336 -37.257)">
        <path id="Path_1696" data-name="Path 1696" d="M0,0A3.86,3.86,0,0,1,3.861,3.817,3.874,3.874,0,0,1,.044,7.685,3.871,3.871,0,0,1-3.845,3.834,3.861,3.861,0,0,1,0,0" fill="#fcfffc"/>
      </g>
    </g>
  </g>
</svg>
