<svg xmlns="http://www.w3.org/2000/svg" xmlns:xlink="http://www.w3.org/1999/xlink" width="1031.885" height="201.184" viewBox="0 0 1031.885 201.184">
  <defs>
    <linearGradient id="linear-gradient" y1="0.62" x2="1" y2="0.606" gradientUnits="objectBoundingBox">
      <stop offset="0" stop-color="#ff00d8"/>
      <stop offset="1" stop-color="#009eff"/>
    </linearGradient>
  </defs>
  <path id="Path_1687" data-name="Path 1687" d="M34.453,52.764a9.343,9.343,0,0,0-.667-3.64,7.64,7.64,0,0,0-2.256-2.905,16.761,16.761,0,0,0-4.187-2.41,56.226,56.226,0,0,0-6.494-2.187,60.7,60.7,0,0,1-6.768-2.307,21.168,21.168,0,0,1-5.11-2.922,12.109,12.109,0,0,1-3.247-3.862A10.906,10.906,0,0,1,4.58,27.4a11.132,11.132,0,0,1,1.23-5.229,12.079,12.079,0,0,1,3.452-4.05,16.717,16.717,0,0,1,5.3-2.632,22.956,22.956,0,0,1,6.733-.94,20.444,20.444,0,0,1,7.092,1.162,16.239,16.239,0,0,1,5.383,3.179,13.931,13.931,0,0,1,3.418,4.717,14.182,14.182,0,0,1,1.2,5.811H34.146a11.654,11.654,0,0,0-.854-4.495,9.932,9.932,0,0,0-2.5-3.572,11.713,11.713,0,0,0-4.033-2.358,16.209,16.209,0,0,0-5.469-.854,18.116,18.116,0,0,0-5.417.735,11.817,11.817,0,0,0-3.9,1.982,8.365,8.365,0,0,0-2.358,2.922,8.117,8.117,0,0,0-.8,3.555,8.007,8.007,0,0,0,.667,3.281A7.639,7.639,0,0,0,11.724,33.4a17.682,17.682,0,0,0,4.136,2.393,44.981,44.981,0,0,0,6.323,2.1,58.207,58.207,0,0,1,7.007,2.393,20.64,20.64,0,0,1,5.2,3.059A11.936,11.936,0,0,1,37.6,47.4a12.159,12.159,0,0,1,1.094,5.3,11.427,11.427,0,0,1-1.282,5.452,12.07,12.07,0,0,1-3.555,4.084,16.69,16.69,0,0,1-5.417,2.563,25.06,25.06,0,0,1-6.836.889,26.89,26.89,0,0,1-4.46-.376,23.481,23.481,0,0,1-4.307-1.145A18.664,18.664,0,0,1,8.972,62.2a13.511,13.511,0,0,1-3.11-2.854,13.287,13.287,0,0,1-2.085-3.794,14,14,0,0,1-.769-4.768h4.2a10.179,10.179,0,0,0,1.3,5.315,10.607,10.607,0,0,0,3.35,3.5,14.389,14.389,0,0,0,4.614,1.931,22.5,22.5,0,0,0,5.127.6,19.526,19.526,0,0,0,5.281-.667,12.666,12.666,0,0,0,4.067-1.9,8.551,8.551,0,0,0,2.6-2.957A8.148,8.148,0,0,0,34.453,52.764Zm42.075-5.879a28.975,28.975,0,0,1-.94,7.622,17.921,17.921,0,0,1-2.751,5.93A12.928,12.928,0,0,1,68.411,64.3a12.553,12.553,0,0,1-5.964,1.384,15.392,15.392,0,0,1-6.853-1.418,13.109,13.109,0,0,1-4.768-3.914V79.219H46.758v-51.2h3.794l.205,5.229a13.538,13.538,0,0,1,4.751-4.341,14.028,14.028,0,0,1,6.836-1.572,13.238,13.238,0,0,1,6.033,1.333,12.406,12.406,0,0,1,4.46,3.794,17.709,17.709,0,0,1,2.751,5.93,29.743,29.743,0,0,1,.94,7.776Zm-4.1-.718a25.953,25.953,0,0,0-.667-6.016A15.106,15.106,0,0,0,69.744,35.3a9.907,9.907,0,0,0-3.435-3.23,9.763,9.763,0,0,0-4.888-1.179,12.2,12.2,0,0,0-3.931.581A10.468,10.468,0,0,0,54.5,33.025a10.259,10.259,0,0,0-2.187,2.256,13.8,13.8,0,0,0-1.487,2.683V55.7a12.265,12.265,0,0,0,1.624,2.6,10.185,10.185,0,0,0,2.29,2.068,11.063,11.063,0,0,0,2.991,1.367,13.237,13.237,0,0,0,3.76.5,9.572,9.572,0,0,0,4.854-1.179,9.952,9.952,0,0,0,3.4-3.247,15.314,15.314,0,0,0,2.017-4.871,26.11,26.11,0,0,0,.667-6.05Zm27.48,19.517a16.245,16.245,0,0,1-6.665-1.35A15.61,15.61,0,0,1,88,60.574a17.283,17.283,0,0,1-3.435-5.725,20.774,20.774,0,0,1-1.23-7.28V46.1a22.2,22.2,0,0,1,1.282-7.742,18.221,18.221,0,0,1,3.469-5.913,15.556,15.556,0,0,1,5.042-3.777,14.085,14.085,0,0,1,6.033-1.333A14.743,14.743,0,0,1,105.41,28.6a12.894,12.894,0,0,1,4.6,3.521,15.459,15.459,0,0,1,2.82,5.366,23.038,23.038,0,0,1,.957,6.8v2.5H87.4v.786a17.482,17.482,0,0,0,.923,5.725,14.406,14.406,0,0,0,2.6,4.666,12.293,12.293,0,0,0,4,3.127,11.519,11.519,0,0,0,5.161,1.145,13.327,13.327,0,0,0,5.793-1.2,12.849,12.849,0,0,0,4.563-3.828L113,59.155a17.7,17.7,0,0,1-2.136,2.529,12.839,12.839,0,0,1-2.82,2.085,15.179,15.179,0,0,1-3.623,1.4A18.329,18.329,0,0,1,99.907,65.684ZM99.155,30.82a10.406,10.406,0,0,0-4.307.889,10.721,10.721,0,0,0-3.5,2.529,13.417,13.417,0,0,0-2.5,3.948,18.991,18.991,0,0,0-1.316,5.11h22.183v-.444a16.5,16.5,0,0,0-.752-4.495,11.989,11.989,0,0,0-2-3.845,9.542,9.542,0,0,0-7.81-3.691ZM135.42,62.231a12.409,12.409,0,0,0,3.743-.564,10.03,10.03,0,0,0,3.2-1.658,8.973,8.973,0,0,0,2.307-2.7,8.614,8.614,0,0,0,1.042-3.726h3.931a11.493,11.493,0,0,1-1.316,4.854,12.642,12.642,0,0,1-3.11,3.828,14.6,14.6,0,0,1-4.46,2.512,16.716,16.716,0,0,1-12.168-.513,14.086,14.086,0,0,1-4.939-3.914,17.109,17.109,0,0,1-3.008-5.862,25.206,25.206,0,0,1-1.008-7.263V45.791a25.206,25.206,0,0,1,1.008-7.263,17.091,17.091,0,0,1,2.991-5.845,14.139,14.139,0,0,1,4.939-3.914,15.429,15.429,0,0,1,6.819-1.436,16.083,16.083,0,0,1,5.52.923,13.361,13.361,0,0,1,4.443,2.632,12.648,12.648,0,0,1,3.025,4.153,14.452,14.452,0,0,1,1.265,5.452h-3.931a10.934,10.934,0,0,0-.974-4.033,9.485,9.485,0,0,0-5.435-4.973,11.34,11.34,0,0,0-3.914-.667A10.9,10.9,0,0,0,130,32.051a10.377,10.377,0,0,0-3.606,3.315,14.361,14.361,0,0,0-2.034,4.785,24.659,24.659,0,0,0-.632,5.64v1.436a25.036,25.036,0,0,0,.632,5.691,14.371,14.371,0,0,0,2.017,4.785A10.2,10.2,0,0,0,130,61,11.1,11.1,0,0,0,135.42,62.231ZM162.388,65h-4.1V28.018h4.1Zm-4.819-47.681a2.769,2.769,0,0,1,.752-1.965,2.673,2.673,0,0,1,2.051-.8,2.692,2.692,0,0,1,2.837,2.769,2.676,2.676,0,0,1-.769,1.948,2.761,2.761,0,0,1-2.068.786,2.638,2.638,0,0,1-2.8-2.734ZM196.841,65a11.749,11.749,0,0,1-.53-2.341q-.188-1.384-.256-2.82a14.6,14.6,0,0,1-5.024,4.1,17.163,17.163,0,0,1-3.452,1.265,16.455,16.455,0,0,1-4.067.479,14.523,14.523,0,0,1-4.9-.786,10.969,10.969,0,0,1-3.76-2.2,9.96,9.96,0,0,1-2.41-3.333,10.7,10.7,0,0,1,.308-9.041,10.534,10.534,0,0,1,3.35-3.691,16.358,16.358,0,0,1,5.315-2.324,28.272,28.272,0,0,1,7.024-.8h7.588V39.3a8.1,8.1,0,0,0-2.444-6.238q-2.444-2.273-7.126-2.273a12.922,12.922,0,0,0-3.965.581,10.008,10.008,0,0,0-3.127,1.606,7.631,7.631,0,0,0-2.051,2.375,5.949,5.949,0,0,0-.735,2.888l-4.1-.034A8.554,8.554,0,0,1,173.5,34.17a11.22,11.22,0,0,1,2.888-3.469,14.788,14.788,0,0,1,4.478-2.444,17.311,17.311,0,0,1,5.793-.923,18.588,18.588,0,0,1,5.417.752,11.8,11.8,0,0,1,4.255,2.256A10.236,10.236,0,0,1,199.1,34.1a12.99,12.99,0,0,1,.991,5.264v17.91q0,.957.068,1.982t.222,1.982q.154.957.359,1.829a9.62,9.62,0,0,0,.479,1.521V65Zm-12.852-2.939a14.4,14.4,0,0,0,4.119-.564,13.3,13.3,0,0,0,3.435-1.555,12.156,12.156,0,0,0,2.666-2.307,11.622,11.622,0,0,0,1.812-2.854V46.646h-7.007a25.442,25.442,0,0,0-5.623.564,13.669,13.669,0,0,0-4.187,1.624,7.663,7.663,0,0,0-2.615,2.581,6.584,6.584,0,0,0-.906,3.435,6.9,6.9,0,0,0,.581,2.82,6.715,6.715,0,0,0,1.658,2.29,7.9,7.9,0,0,0,2.615,1.538A9.973,9.973,0,0,0,183.989,62.061ZM215.571,65h-4.1V12.5h4.1Zm15.688,0h-4.1V28.018h4.1ZM226.44,17.319a2.769,2.769,0,0,1,.752-1.965,2.673,2.673,0,0,1,2.051-.8,2.692,2.692,0,0,1,2.837,2.769,2.676,2.676,0,0,1-.769,1.948,2.761,2.761,0,0,1-2.068.786,2.638,2.638,0,0,1-2.8-2.734ZM264.517,55.6a6.817,6.817,0,0,0-.393-2.256,5.391,5.391,0,0,0-1.47-2.136,11.038,11.038,0,0,0-3.008-1.88,24.934,24.934,0,0,0-5.007-1.521,43.189,43.189,0,0,1-5.486-1.5,15.79,15.79,0,0,1-4.067-2.068,8.17,8.17,0,0,1-2.512-2.888,8.542,8.542,0,0,1-.854-3.931,8.732,8.732,0,0,1,.906-3.9,9.469,9.469,0,0,1,2.6-3.213,12.991,12.991,0,0,1,4.1-2.17,17.077,17.077,0,0,1,5.417-.8,18.393,18.393,0,0,1,5.759.837,12.772,12.772,0,0,1,4.307,2.324A9.988,9.988,0,0,1,267.49,34a10.387,10.387,0,0,1,.923,4.375h-4.1a6.61,6.61,0,0,0-.632-2.8,7.073,7.073,0,0,0-1.846-2.41,9.55,9.55,0,0,0-3.008-1.692,11.956,11.956,0,0,0-4.084-.649,12.643,12.643,0,0,0-4.084.581,8.4,8.4,0,0,0-2.769,1.5,5.7,5.7,0,0,0-2.068,4.375,6.365,6.365,0,0,0,.376,2.239,4.483,4.483,0,0,0,1.453,1.88,11.066,11.066,0,0,0,3.008,1.606,39.717,39.717,0,0,0,5.042,1.453,42.161,42.161,0,0,1,5.776,1.743,14.73,14.73,0,0,1,4.016,2.273,8.428,8.428,0,0,1,2.358,3.008,9.371,9.371,0,0,1,.769,3.914,9.162,9.162,0,0,1-.957,4.187,9.318,9.318,0,0,1-2.734,3.247,13.323,13.323,0,0,1-4.307,2.1,19.755,19.755,0,0,1-5.64.752,19.547,19.547,0,0,1-6.221-.906,13.945,13.945,0,0,1-4.546-2.444,10.287,10.287,0,0,1-2.786-3.538,9.653,9.653,0,0,1-.94-4.153h4.1a7.13,7.13,0,0,0,1.128,3.64,7.722,7.722,0,0,0,2.461,2.324,10.616,10.616,0,0,0,3.264,1.248,17.218,17.218,0,0,0,3.538.376,13.967,13.967,0,0,0,4.1-.547,9.521,9.521,0,0,0,2.991-1.47A6.276,6.276,0,0,0,263.9,58.1,5.387,5.387,0,0,0,264.517,55.6ZM282.393,65h-4.1V28.018h4.1Zm-4.819-47.681a2.769,2.769,0,0,1,.752-1.965,2.673,2.673,0,0,1,2.051-.8,2.692,2.692,0,0,1,2.837,2.769,2.676,2.676,0,0,1-.769,1.948,2.761,2.761,0,0,1-2.068.786,2.638,2.638,0,0,1-2.8-2.734Zm19.824,10.7.137,6.323a16.555,16.555,0,0,1,2.2-2.871,13.367,13.367,0,0,1,6.1-3.64,13.938,13.938,0,0,1,3.76-.5,15.2,15.2,0,0,1,4.956.752,8.927,8.927,0,0,1,3.708,2.393,10.839,10.839,0,0,1,2.324,4.221,21.165,21.165,0,0,1,.8,6.238V65h-4.067V40.9a15.857,15.857,0,0,0-.615-4.785,7.731,7.731,0,0,0-1.743-3.076,6.343,6.343,0,0,0-2.751-1.658,12.319,12.319,0,0,0-3.606-.5,10.285,10.285,0,0,0-3.965.735,10.861,10.861,0,0,0-3.145,1.965,13.092,13.092,0,0,0-2.358,2.82,16.19,16.19,0,0,0-1.572,3.264V65H293.5V28.018Zm32.915,18.149a28.756,28.756,0,0,1,.974-7.776,17.793,17.793,0,0,1,2.82-5.93,12.706,12.706,0,0,1,4.495-3.794,13.16,13.16,0,0,1,6-1.333,13.71,13.71,0,0,1,6.8,1.589,13.274,13.274,0,0,1,4.683,4.426l.205-5.332h3.828V64.351a18.414,18.414,0,0,1-1.06,6.443,13.618,13.618,0,0,1-2.991,4.836,12.949,12.949,0,0,1-4.666,3.042,17.2,17.2,0,0,1-13.176-.513,16.3,16.3,0,0,1-3.2-1.965,13.028,13.028,0,0,1-2.632-2.786l2.29-2.461A15.1,15.1,0,0,0,339.473,75a12.072,12.072,0,0,0,5.537,1.282,12.631,12.631,0,0,0,4.666-.8,9.181,9.181,0,0,0,3.435-2.324,10.187,10.187,0,0,0,2.136-3.691,15.365,15.365,0,0,0,.735-4.939V60.215a12.97,12.97,0,0,1-4.683,4.016,14.683,14.683,0,0,1-6.768,1.453,12.58,12.58,0,0,1-5.947-1.384,13.2,13.2,0,0,1-4.478-3.862,18.01,18.01,0,0,1-2.82-5.93,28.015,28.015,0,0,1-.974-7.622Zm4.136.718a26.542,26.542,0,0,0,.649,6.033,15.081,15.081,0,0,0,1.982,4.836,9.751,9.751,0,0,0,3.367,3.213,9.589,9.589,0,0,0,4.836,1.162,13.127,13.127,0,0,0,3.811-.513,10.52,10.52,0,0,0,2.991-1.418,10.31,10.31,0,0,0,2.256-2.136,13.988,13.988,0,0,0,1.641-2.7V38.169a14.318,14.318,0,0,0-1.487-2.751,10.571,10.571,0,0,0-2.187-2.324,10.29,10.29,0,0,0-2.991-1.606,11.991,11.991,0,0,0-3.965-.6,9.644,9.644,0,0,0-4.888,1.179,9.856,9.856,0,0,0-3.384,3.23,15.074,15.074,0,0,0-1.982,4.854,26.606,26.606,0,0,0-.649,6.016ZM392.383,65h-4.1V28.018h4.1Zm-4.819-47.681a2.769,2.769,0,0,1,.752-1.965,2.673,2.673,0,0,1,2.051-.8,2.692,2.692,0,0,1,2.837,2.769,2.676,2.676,0,0,1-.769,1.948,2.761,2.761,0,0,1-2.068.786,2.638,2.638,0,0,1-2.8-2.734Zm19.824,10.7.137,6.323a16.555,16.555,0,0,1,2.2-2.871,13.367,13.367,0,0,1,6.1-3.64,13.938,13.938,0,0,1,3.76-.5,15.2,15.2,0,0,1,4.956.752,8.927,8.927,0,0,1,3.708,2.393,10.839,10.839,0,0,1,2.324,4.221,21.165,21.165,0,0,1,.8,6.238V65h-4.067V40.9a15.857,15.857,0,0,0-.615-4.785,7.731,7.731,0,0,0-1.743-3.076,6.343,6.343,0,0,0-2.751-1.658,12.319,12.319,0,0,0-3.606-.5,10.285,10.285,0,0,0-3.965.735,10.861,10.861,0,0,0-3.145,1.965,13.092,13.092,0,0,0-2.358,2.82,16.19,16.19,0,0,0-1.572,3.264V65h-4.067V28.018ZM479.575,61.24a11.955,11.955,0,0,1-4.238,3.281,13.807,13.807,0,0,1-5.879,1.162,15.389,15.389,0,0,1-4.99-.769,9.752,9.752,0,0,1-3.879-2.427,11.1,11.1,0,0,1-2.512-4.272,19.582,19.582,0,0,1-.889-6.272V28.018h9.878V52.012a7.809,7.809,0,0,0,.393,2.632,4.462,4.462,0,0,0,1.094,1.76,4.262,4.262,0,0,0,1.658.974,6.9,6.9,0,0,0,2.119.308,8.954,8.954,0,0,0,4.341-.923,6.312,6.312,0,0,0,2.563-2.563V28.018h9.912V65h-9.3Zm50.313-14.39a28.414,28.414,0,0,1-.94,7.485A18.325,18.325,0,0,1,526.2,60.3a13.1,13.1,0,0,1-4.495,3.948,12.877,12.877,0,0,1-6.169,1.436,12.318,12.318,0,0,1-5.178-1.025,11.6,11.6,0,0,1-3.879-2.871V79.219H496.6v-51.2h9.16l.342,3.623a12.228,12.228,0,0,1,3.982-3.179,11.984,11.984,0,0,1,5.383-1.128,13.732,13.732,0,0,1,6.221,1.35,12.378,12.378,0,0,1,4.512,3.828,17.907,17.907,0,0,1,2.751,5.947,29.311,29.311,0,0,1,.94,7.673Zm-9.878-.718a21.706,21.706,0,0,0-.393-4.255,10.92,10.92,0,0,0-1.248-3.418,6.4,6.4,0,0,0-2.2-2.273,6.241,6.241,0,0,0-3.3-.82,7.833,7.833,0,0,0-3.982.906,6.06,6.06,0,0,0-2.41,2.649V54.063a6.55,6.55,0,0,0,2.41,2.683,7.533,7.533,0,0,0,4.05.974,6.046,6.046,0,0,0,3.3-.854,6.465,6.465,0,0,0,2.188-2.341,11.327,11.327,0,0,0,1.213-3.469,22.541,22.541,0,0,0,.376-4.2Zm14.561.1a26.768,26.768,0,0,1,1.042-7.69,18.167,18.167,0,0,1,2.974-5.981,13.362,13.362,0,0,1,4.7-3.862,13.938,13.938,0,0,1,6.255-1.367,12.877,12.877,0,0,1,5.554,1.094,11.089,11.089,0,0,1,3.914,3.076l.41-3.486h8.955V63.735a16.51,16.51,0,0,1-1.3,6.733,13.971,13.971,0,0,1-3.64,4.973,15.723,15.723,0,0,1-5.605,3.076,23.675,23.675,0,0,1-7.229,1.042,21.1,21.1,0,0,1-7.4-1.4,18.841,18.841,0,0,1-3.538-1.812,11.483,11.483,0,0,1-2.837-2.6l4.375-6.016a12.933,12.933,0,0,0,3.982,3.042,11.177,11.177,0,0,0,4.973,1.094,8.469,8.469,0,0,0,6.118-2.1,7.884,7.884,0,0,0,2.188-5.964V61.821a11.446,11.446,0,0,1-3.862,2.854,12.29,12.29,0,0,1-5.127,1.008,13.339,13.339,0,0,1-6.2-1.418,13.94,13.94,0,0,1-4.683-3.914,18.233,18.233,0,0,1-2.974-5.93,25.611,25.611,0,0,1-1.042-7.468Zm9.878.718a18.887,18.887,0,0,0,.444,4.2,10.5,10.5,0,0,0,1.384,3.4,7.07,7.07,0,0,0,2.358,2.29,6.5,6.5,0,0,0,3.367.837,8,8,0,0,0,3.948-.889,6.525,6.525,0,0,0,2.512-2.5V38.75a6.647,6.647,0,0,0-2.512-2.512,7.848,7.848,0,0,0-3.879-.872,6.5,6.5,0,0,0-3.367.837,7.169,7.169,0,0,0-2.375,2.307,10.728,10.728,0,0,0-1.418,3.452,18.82,18.82,0,0,0-.461,4.272Zm52.295-9.673q-.752-.1-1.76-.188t-1.794-.085a9.833,9.833,0,0,0-4.7.974,6,6,0,0,0-2.649,2.82V65h-9.878V28.018h9.331l.273,4.409a11.084,11.084,0,0,1,3.452-3.743,8.5,8.5,0,0,1,4.785-1.35,10.711,10.711,0,0,1,1.658.137,10.2,10.2,0,0,1,1.418.308ZM621.9,65a10.969,10.969,0,0,1-.991-3.315,12.893,12.893,0,0,1-3.777,2.837,12.1,12.1,0,0,1-5.554,1.162,14.739,14.739,0,0,1-4.973-.82,12.317,12.317,0,0,1-4-2.29,10.528,10.528,0,0,1-2.649-3.5,10.343,10.343,0,0,1-.957-4.46,11.843,11.843,0,0,1,1.077-5.161,10.081,10.081,0,0,1,3.23-3.828,15.532,15.532,0,0,1,5.349-2.393,30.081,30.081,0,0,1,7.434-.82H620.5V40.288a6.094,6.094,0,0,0-1.316-4.1,5.177,5.177,0,0,0-4.153-1.538,5.885,5.885,0,0,0-3.914,1.2,4.064,4.064,0,0,0-1.418,3.281h-9.878a9.782,9.782,0,0,1,1.111-4.546,11.392,11.392,0,0,1,3.162-3.76,15.884,15.884,0,0,1,4.956-2.546,21.032,21.032,0,0,1,6.494-.94,20.617,20.617,0,0,1,5.947.82,13.445,13.445,0,0,1,4.717,2.444,11.116,11.116,0,0,1,3.093,4.067,13.635,13.635,0,0,1,1.111,5.691V56.011q0,1.572.1,2.82t.273,2.256a11.712,11.712,0,0,0,.444,1.812,10.711,10.711,0,0,0,.649,1.521V65Zm-8.169-6.87A8.474,8.474,0,0,0,618,57.019a6.87,6.87,0,0,0,1.487-1.145,6.225,6.225,0,0,0,1.008-1.333V48.184h-4.067a11.925,11.925,0,0,0-3.384.427,6.561,6.561,0,0,0-2.358,1.2,4.778,4.778,0,0,0-1.367,1.812,5.737,5.737,0,0,0-.444,2.273,3.954,3.954,0,0,0,1.3,3.042A5.045,5.045,0,0,0,613.73,58.13ZM636.46,46.235a28.528,28.528,0,0,1,.974-7.69,18.178,18.178,0,0,1,2.82-5.981A12.769,12.769,0,0,1,644.8,28.7a13.432,13.432,0,0,1,6.152-1.367,11.5,11.5,0,0,1,5.042,1.06,12.064,12.064,0,0,1,3.879,2.974V12.5h9.912V65h-8.921l-.479-3.931a12.685,12.685,0,0,1-4.067,3.4,11.584,11.584,0,0,1-5.435,1.213,12.854,12.854,0,0,1-6.1-1.418,13.32,13.32,0,0,1-4.529-3.914,18.231,18.231,0,0,1-2.82-5.93,27.289,27.289,0,0,1-.974-7.468Zm9.878.718a22.191,22.191,0,0,0,.376,4.2,10.9,10.9,0,0,0,1.213,3.4,6.4,6.4,0,0,0,2.188,2.29,6.141,6.141,0,0,0,3.3.837A7.206,7.206,0,0,0,657.4,56.66a6.918,6.918,0,0,0,2.478-2.837V39.229a6.757,6.757,0,0,0-2.478-2.854,7.164,7.164,0,0,0-3.914-1.008,6.23,6.23,0,0,0-3.315.837,6.312,6.312,0,0,0-2.2,2.307,11.419,11.419,0,0,0-1.23,3.452,21.968,21.968,0,0,0-.393,4.272ZM687.866,65h-9.912V28.018h9.912ZM677.373,18.447a4.864,4.864,0,0,1,1.487-3.657,5.585,5.585,0,0,1,4.05-1.436,6.614,6.614,0,0,1,2.29.376,4.973,4.973,0,0,1,1.743,1.06,4.739,4.739,0,0,1,1.111,1.624,5.218,5.218,0,0,1,.393,2.034,5.308,5.308,0,0,1-.393,2.068,4.739,4.739,0,0,1-1.111,1.624A4.973,4.973,0,0,1,685.2,23.2a7.162,7.162,0,0,1-4.58,0,4.973,4.973,0,0,1-1.743-1.06,4.739,4.739,0,0,1-1.111-1.624A5.308,5.308,0,0,1,677.373,18.447Zm27.72,9.57.308,4.272a12.973,12.973,0,0,1,4.614-3.674,13.852,13.852,0,0,1,6.016-1.282,14.747,14.747,0,0,1,4.785.735,8.79,8.79,0,0,1,3.691,2.41,11.317,11.317,0,0,1,2.375,4.375,22.642,22.642,0,0,1,.837,6.631V65h-9.878V41.416a9.312,9.312,0,0,0-.393-2.939,4.293,4.293,0,0,0-1.145-1.846,4.354,4.354,0,0,0-1.846-.974,9.9,9.9,0,0,0-2.529-.291,7,7,0,0,0-3.743.957,7.325,7.325,0,0,0-2.512,2.6V65H695.8V28.018ZM733.77,46.235a26.768,26.768,0,0,1,1.042-7.69,18.167,18.167,0,0,1,2.974-5.981,13.362,13.362,0,0,1,4.7-3.862,13.938,13.938,0,0,1,6.255-1.367,12.877,12.877,0,0,1,5.554,1.094,11.089,11.089,0,0,1,3.914,3.076l.41-3.486h8.955V63.735a16.51,16.51,0,0,1-1.3,6.733,13.971,13.971,0,0,1-3.64,4.973,15.723,15.723,0,0,1-5.605,3.076,23.675,23.675,0,0,1-7.229,1.042,21.1,21.1,0,0,1-7.4-1.4,18.841,18.841,0,0,1-3.538-1.812,11.483,11.483,0,0,1-2.837-2.6l4.375-6.016a12.933,12.933,0,0,0,3.982,3.042,11.177,11.177,0,0,0,4.973,1.094,8.469,8.469,0,0,0,6.118-2.1,7.884,7.884,0,0,0,2.188-5.964V61.821a11.446,11.446,0,0,1-3.862,2.854,12.29,12.29,0,0,1-5.127,1.008,13.339,13.339,0,0,1-6.2-1.418,13.94,13.94,0,0,1-4.683-3.914,18.233,18.233,0,0,1-2.974-5.93,25.611,25.611,0,0,1-1.042-7.468Zm9.878.718a18.887,18.887,0,0,0,.444,4.2,10.5,10.5,0,0,0,1.384,3.4,7.07,7.07,0,0,0,2.358,2.29,6.5,6.5,0,0,0,3.367.837,8,8,0,0,0,3.948-.889,6.525,6.525,0,0,0,2.512-2.5V38.75a6.647,6.647,0,0,0-2.512-2.512,7.848,7.848,0,0,0-3.879-.872,6.5,6.5,0,0,0-3.367.837,7.169,7.169,0,0,0-2.375,2.307,10.728,10.728,0,0,0-1.418,3.452,18.82,18.82,0,0,0-.461,4.272ZM817.065,65a11.749,11.749,0,0,1-.53-2.341q-.188-1.384-.256-2.82a14.6,14.6,0,0,1-5.024,4.1,17.163,17.163,0,0,1-3.452,1.265,16.455,16.455,0,0,1-4.067.479,14.523,14.523,0,0,1-4.9-.786,10.969,10.969,0,0,1-3.76-2.2,9.96,9.96,0,0,1-2.41-3.333,10.7,10.7,0,0,1,.308-9.041,10.534,10.534,0,0,1,3.35-3.691,16.358,16.358,0,0,1,5.315-2.324,28.272,28.272,0,0,1,7.024-.8h7.588V39.3a8.1,8.1,0,0,0-2.444-6.238q-2.444-2.273-7.126-2.273a12.922,12.922,0,0,0-3.965.581,10.008,10.008,0,0,0-3.127,1.606,7.631,7.631,0,0,0-2.051,2.375,5.949,5.949,0,0,0-.735,2.888l-4.1-.034a8.554,8.554,0,0,1,1.025-4.033,11.22,11.22,0,0,1,2.888-3.469,14.788,14.788,0,0,1,4.478-2.444,17.311,17.311,0,0,1,5.793-.923,18.588,18.588,0,0,1,5.417.752,11.8,11.8,0,0,1,4.255,2.256,10.236,10.236,0,0,1,2.769,3.76,12.99,12.99,0,0,1,.991,5.264v17.91q0,.957.068,1.982t.222,1.982q.154.957.359,1.829a9.619,9.619,0,0,0,.479,1.521V65Zm-12.852-2.939a14.4,14.4,0,0,0,4.119-.564,13.3,13.3,0,0,0,3.435-1.555,12.156,12.156,0,0,0,2.666-2.307,11.623,11.623,0,0,0,1.812-2.854V46.646h-7.007a25.442,25.442,0,0,0-5.623.564,13.669,13.669,0,0,0-4.187,1.624,7.663,7.663,0,0,0-2.615,2.581,6.584,6.584,0,0,0-.906,3.435,6.9,6.9,0,0,0,.581,2.82,6.715,6.715,0,0,0,1.658,2.29,7.9,7.9,0,0,0,2.615,1.538A9.973,9.973,0,0,0,804.214,62.061Zm30.9-34.043.137,6.323a16.552,16.552,0,0,1,2.2-2.871,13.367,13.367,0,0,1,6.1-3.64,13.938,13.938,0,0,1,3.76-.5,15.2,15.2,0,0,1,4.956.752,8.927,8.927,0,0,1,3.708,2.393A10.839,10.839,0,0,1,858.3,34.7a21.166,21.166,0,0,1,.8,6.238V65h-4.067V40.9a15.857,15.857,0,0,0-.615-4.785,7.731,7.731,0,0,0-1.743-3.076,6.344,6.344,0,0,0-2.751-1.658,12.319,12.319,0,0,0-3.606-.5,10.285,10.285,0,0,0-3.965.735,10.861,10.861,0,0,0-3.145,1.965,13.093,13.093,0,0,0-2.358,2.82,16.19,16.19,0,0,0-1.572,3.264V65h-4.067V28.018Zm32.915,18.149a28.288,28.288,0,0,1,.991-7.776,18.039,18.039,0,0,1,2.837-5.93,12.706,12.706,0,0,1,4.495-3.794,13.082,13.082,0,0,1,5.964-1.333,13.657,13.657,0,0,1,6.75,1.572,13.382,13.382,0,0,1,4.666,4.341V12.5H897.8V65H893.97l-.171-4.922a12.989,12.989,0,0,1-4.7,4.119,14.665,14.665,0,0,1-6.853,1.487,12.506,12.506,0,0,1-5.913-1.384,13.2,13.2,0,0,1-4.478-3.862,18.262,18.262,0,0,1-2.837-5.93,27.56,27.56,0,0,1-.991-7.622Zm4.136.718a26.544,26.544,0,0,0,.649,6.033,15.081,15.081,0,0,0,1.982,4.836,9.751,9.751,0,0,0,3.367,3.213A9.589,9.589,0,0,0,883,62.129a13.417,13.417,0,0,0,3.777-.5,10.716,10.716,0,0,0,3.008-1.384,10.138,10.138,0,0,0,2.29-2.119,13.926,13.926,0,0,0,1.658-2.666V38.1a16.574,16.574,0,0,0-1.5-2.7,10.219,10.219,0,0,0-2.187-2.307,10.538,10.538,0,0,0-3.008-1.606,11.991,11.991,0,0,0-3.965-.6,9.644,9.644,0,0,0-4.888,1.179,9.856,9.856,0,0,0-3.384,3.23,15.073,15.073,0,0,0-1.982,4.854,26.608,26.608,0,0,0-.649,6.016ZM13.057,102.018l.308,4.136a13.117,13.117,0,0,1,4.495-3.538,13.927,13.927,0,0,1,6.135-1.282,12.456,12.456,0,0,1,5.862,1.333,8.972,8.972,0,0,1,3.948,4.307,13.109,13.109,0,0,1,4.563-4.136,13.452,13.452,0,0,1,6.545-1.5,15.124,15.124,0,0,1,4.9.752,9.021,9.021,0,0,1,3.76,2.427,11.2,11.2,0,0,1,2.393,4.358,22.328,22.328,0,0,1,.837,6.58V139H46.895V115.45a9.911,9.911,0,0,0-.393-3.042,4.325,4.325,0,0,0-1.111-1.863,3.9,3.9,0,0,0-1.743-.923,9.61,9.61,0,0,0-2.324-.256,6.232,6.232,0,0,0-3.828,1.145,7.039,7.039,0,0,0-2.324,3.093q0,.171.017.376t.017.376V139H25.327V115.519a10.333,10.333,0,0,0-.376-3.042,4.328,4.328,0,0,0-1.094-1.88,3.957,3.957,0,0,0-1.76-.957,9.237,9.237,0,0,0-2.341-.273,6.933,6.933,0,0,0-3.691.923,6.66,6.66,0,0,0-2.393,2.563V139H3.794V102.018Zm49.8,18.149a23.323,23.323,0,0,1,1.162-7.485,17.137,17.137,0,0,1,3.384-5.964,15.584,15.584,0,0,1,5.486-3.948,18.3,18.3,0,0,1,7.434-1.436,18.507,18.507,0,0,1,7.485,1.436,15.718,15.718,0,0,1,5.52,3.948,16.993,16.993,0,0,1,3.4,5.964,23.323,23.323,0,0,1,1.162,7.485v.718a23.279,23.279,0,0,1-1.162,7.5,17.018,17.018,0,0,1-3.4,5.947,15.606,15.606,0,0,1-5.486,3.931,20.325,20.325,0,0,1-14.919,0,15.57,15.57,0,0,1-5.5-3.931,17.018,17.018,0,0,1-3.4-5.947,23.28,23.28,0,0,1-1.162-7.5Zm9.878.718a20.9,20.9,0,0,0,.41,4.238,10.434,10.434,0,0,0,1.316,3.435,6.82,6.82,0,0,0,2.358,2.307,6.937,6.937,0,0,0,3.572.854,6.794,6.794,0,0,0,3.5-.854,6.969,6.969,0,0,0,2.375-2.307,10.2,10.2,0,0,0,1.333-3.435,20.9,20.9,0,0,0,.41-4.238v-.718a20.293,20.293,0,0,0-.41-4.153,10.592,10.592,0,0,0-1.333-3.452,6.967,6.967,0,0,0-2.393-2.358,6.85,6.85,0,0,0-3.555-.872,6.688,6.688,0,0,0-3.5.872,6.871,6.871,0,0,0-2.358,2.358,10.837,10.837,0,0,0-1.316,3.452,20.293,20.293,0,0,0-.41,4.153Zm29.7-.649a28.528,28.528,0,0,1,.974-7.69,18.178,18.178,0,0,1,2.82-5.981,12.769,12.769,0,0,1,4.546-3.862,13.432,13.432,0,0,1,6.152-1.367,11.5,11.5,0,0,1,5.042,1.06,12.064,12.064,0,0,1,3.879,2.974V86.5h9.912V139h-8.921l-.479-3.931a12.685,12.685,0,0,1-4.067,3.4,11.584,11.584,0,0,1-5.435,1.213,12.854,12.854,0,0,1-6.1-1.418,13.32,13.32,0,0,1-4.529-3.914,18.231,18.231,0,0,1-2.82-5.93,27.289,27.289,0,0,1-.974-7.468Zm9.878.718a22.193,22.193,0,0,0,.376,4.2,10.9,10.9,0,0,0,1.213,3.4,6.4,6.4,0,0,0,2.188,2.29,6.141,6.141,0,0,0,3.3.837,7.206,7.206,0,0,0,3.982-1.025,6.918,6.918,0,0,0,2.478-2.837V113.229a6.757,6.757,0,0,0-2.478-2.854,7.165,7.165,0,0,0-3.914-1.008,6.23,6.23,0,0,0-3.315.837,6.311,6.311,0,0,0-2.2,2.307,11.42,11.42,0,0,0-1.23,3.452,21.967,21.967,0,0,0-.393,4.272Zm48.125,18.73a20.075,20.075,0,0,1-7.708-1.4,17.065,17.065,0,0,1-5.776-3.828,16.415,16.415,0,0,1-3.623-5.691,19.411,19.411,0,0,1-1.248-6.99V120.44a23.419,23.419,0,0,1,1.213-7.708,17.745,17.745,0,0,1,3.452-6.033,15.62,15.62,0,0,1,5.435-3.948,19.129,19.129,0,0,1,14.2-.1,14.077,14.077,0,0,1,5.11,3.691,15.7,15.7,0,0,1,3.11,5.725,25,25,0,0,1,1.042,7.451v4.2H152.1a10.3,10.3,0,0,0,.974,3.281,8.495,8.495,0,0,0,1.88,2.512,8.292,8.292,0,0,0,2.683,1.624,9.708,9.708,0,0,0,3.452.581,12.246,12.246,0,0,0,4.99-1.008,10.061,10.061,0,0,0,3.931-3.127l4.854,5.435a14.659,14.659,0,0,1-2.222,2.461,15.068,15.068,0,0,1-3.145,2.136,18.533,18.533,0,0,1-4.084,1.5A20.633,20.633,0,0,1,160.439,139.684Zm-1.128-30.352a6.626,6.626,0,0,0-2.82.564,6.152,6.152,0,0,0-2.085,1.572,8.21,8.21,0,0,0-1.418,2.41,13.8,13.8,0,0,0-.786,3.11h13.74V116.2a9.957,9.957,0,0,0-.427-2.734,6,6,0,0,0-1.2-2.187,5.374,5.374,0,0,0-2.051-1.436A7.754,7.754,0,0,0,159.312,109.332Zm42.725,1.948q-.752-.1-1.76-.188t-1.794-.085a9.833,9.833,0,0,0-4.7.974,6,6,0,0,0-2.649,2.82V139h-9.878V102.018h9.331l.273,4.409a11.084,11.084,0,0,1,3.452-3.743,8.5,8.5,0,0,1,4.785-1.35,10.711,10.711,0,0,1,1.658.137,10.2,10.2,0,0,1,1.418.308Zm13.843-9.263.308,4.272a12.973,12.973,0,0,1,4.614-3.674,13.852,13.852,0,0,1,6.016-1.282,14.747,14.747,0,0,1,4.785.735,8.79,8.79,0,0,1,3.691,2.41,11.316,11.316,0,0,1,2.375,4.375,22.642,22.642,0,0,1,.837,6.631V139h-9.878V115.416a9.311,9.311,0,0,0-.393-2.939,4.293,4.293,0,0,0-1.145-1.846,4.354,4.354,0,0,0-1.846-.974,9.9,9.9,0,0,0-2.529-.291,7,7,0,0,0-3.743.957,7.326,7.326,0,0,0-2.512,2.6V139h-9.878V102.018ZM256.416,139H246.5V102.018h9.912ZM245.923,92.447a4.864,4.864,0,0,1,1.487-3.657,5.585,5.585,0,0,1,4.05-1.436,6.614,6.614,0,0,1,2.29.376,4.973,4.973,0,0,1,1.743,1.06,4.739,4.739,0,0,1,1.111,1.624A5.218,5.218,0,0,1,257,92.447a5.308,5.308,0,0,1-.393,2.068,4.739,4.739,0,0,1-1.111,1.624,4.973,4.973,0,0,1-1.743,1.06,7.162,7.162,0,0,1-4.58,0,4.973,4.973,0,0,1-1.743-1.06,4.739,4.739,0,0,1-1.111-1.624A5.308,5.308,0,0,1,245.923,92.447ZM284.58,128.78a3.311,3.311,0,0,0-.308-1.436,3.138,3.138,0,0,0-1.162-1.213,10.673,10.673,0,0,0-2.324-1.077,30.565,30.565,0,0,0-3.794-.991,36,36,0,0,1-5.247-1.538,16.184,16.184,0,0,1-4.17-2.29,10.237,10.237,0,0,1-2.751-3.179,8.62,8.62,0,0,1-.991-4.2,10,10,0,0,1,1.008-4.409,11.044,11.044,0,0,1,2.905-3.674,14.164,14.164,0,0,1,4.648-2.512,19.45,19.45,0,0,1,6.2-.923,21.813,21.813,0,0,1,6.46.889,14.745,14.745,0,0,1,4.871,2.478,10.987,10.987,0,0,1,3.076,3.777,10.687,10.687,0,0,1,1.077,4.785H284.2a4.779,4.779,0,0,0-1.367-3.5,5.786,5.786,0,0,0-4.272-1.384A5.912,5.912,0,0,0,274.7,109.5a3.561,3.561,0,0,0-1.367,2.871,2.891,2.891,0,0,0,.359,1.453,3.522,3.522,0,0,0,1.162,1.162,9.28,9.28,0,0,0,2.119.974,25.851,25.851,0,0,0,3.23.82,44.058,44.058,0,0,1,5.571,1.436,16.239,16.239,0,0,1,4.426,2.2,9.91,9.91,0,0,1,2.922,3.281,10.349,10.349,0,0,1-.034,9.194,10.578,10.578,0,0,1-3.127,3.572,15.709,15.709,0,0,1-4.9,2.358,22.5,22.5,0,0,1-6.426.854,19.847,19.847,0,0,1-6.87-1.094,15.814,15.814,0,0,1-5.007-2.871,11.963,11.963,0,0,1-3.059-4,10.6,10.6,0,0,1-1.025-4.478h9.365a5.722,5.722,0,0,0,.632,2.478,4.86,4.86,0,0,0,1.487,1.692,6.41,6.41,0,0,0,2.136.957,10.325,10.325,0,0,0,2.546.308,7.152,7.152,0,0,0,4.29-1.077A3.35,3.35,0,0,0,284.58,128.78ZM310.967,139h-9.912V102.018h9.912ZM300.474,92.447a4.864,4.864,0,0,1,1.487-3.657,5.585,5.585,0,0,1,4.05-1.436,6.614,6.614,0,0,1,2.29.376,4.973,4.973,0,0,1,1.743,1.06,4.739,4.739,0,0,1,1.111,1.624,5.218,5.218,0,0,1,.393,2.034,5.308,5.308,0,0,1-.393,2.068,4.739,4.739,0,0,1-1.111,1.624A4.973,4.973,0,0,1,308.3,97.2a7.162,7.162,0,0,1-4.58,0,4.973,4.973,0,0,1-1.743-1.06,4.739,4.739,0,0,1-1.111-1.624A5.308,5.308,0,0,1,300.474,92.447Zm27.72,9.57.308,4.272a12.973,12.973,0,0,1,4.614-3.674,13.852,13.852,0,0,1,6.016-1.282,14.747,14.747,0,0,1,4.785.735,8.79,8.79,0,0,1,3.691,2.41,11.316,11.316,0,0,1,2.375,4.375,22.643,22.643,0,0,1,.837,6.631V139h-9.878V115.416a9.311,9.311,0,0,0-.393-2.939,4.293,4.293,0,0,0-1.145-1.846,4.354,4.354,0,0,0-1.846-.974,9.9,9.9,0,0,0-2.529-.291,7,7,0,0,0-3.743.957,7.326,7.326,0,0,0-2.512,2.6V139H318.9V102.018Zm28.677,18.218a26.769,26.769,0,0,1,1.042-7.69,18.166,18.166,0,0,1,2.974-5.981,13.362,13.362,0,0,1,4.7-3.862,13.938,13.938,0,0,1,6.255-1.367,12.877,12.877,0,0,1,5.554,1.094,11.089,11.089,0,0,1,3.914,3.076l.41-3.486h8.955v35.718a16.51,16.51,0,0,1-1.3,6.733,13.97,13.97,0,0,1-3.64,4.973,15.724,15.724,0,0,1-5.605,3.076,23.675,23.675,0,0,1-7.229,1.042,21.1,21.1,0,0,1-7.4-1.4,18.843,18.843,0,0,1-3.538-1.812,11.483,11.483,0,0,1-2.837-2.6l4.375-6.016a12.933,12.933,0,0,0,3.982,3.042,11.177,11.177,0,0,0,4.973,1.094,8.469,8.469,0,0,0,6.118-2.1,7.884,7.884,0,0,0,2.188-5.964v-1.982a11.446,11.446,0,0,1-3.862,2.854,12.29,12.29,0,0,1-5.127,1.008,13.339,13.339,0,0,1-6.2-1.418,13.94,13.94,0,0,1-4.683-3.914,18.232,18.232,0,0,1-2.974-5.93,25.612,25.612,0,0,1-1.042-7.468Zm9.878.718a18.885,18.885,0,0,0,.444,4.2,10.5,10.5,0,0,0,1.384,3.4,7.07,7.07,0,0,0,2.358,2.29,6.5,6.5,0,0,0,3.367.837,8,8,0,0,0,3.948-.889,6.525,6.525,0,0,0,2.512-2.5V112.75a6.647,6.647,0,0,0-2.512-2.512,7.848,7.848,0,0,0-3.879-.872A6.5,6.5,0,0,0,371,110.2a7.169,7.169,0,0,0-2.375,2.307,10.727,10.727,0,0,0-1.418,3.452,18.82,18.82,0,0,0-.461,4.272Zm79.844-.068a28.976,28.976,0,0,1-.94,7.622,17.921,17.921,0,0,1-2.751,5.93,12.878,12.878,0,0,1-4.443,3.862,12.654,12.654,0,0,1-5.981,1.384,14.619,14.619,0,0,1-6.956-1.538,13.244,13.244,0,0,1-4.734-4.2L420.615,139h-3.828V86.5h4.067v20.884a13.174,13.174,0,0,1,4.683-4.46,13.859,13.859,0,0,1,6.87-1.589,13.132,13.132,0,0,1,6.016,1.333,12.6,12.6,0,0,1,4.46,3.794,17.511,17.511,0,0,1,2.769,5.93,29.743,29.743,0,0,1,.94,7.776Zm-4.1-.718a28.025,28.025,0,0,0-.615-6.016,14.775,14.775,0,0,0-1.931-4.854,9.293,9.293,0,0,0-8.289-4.409,12.213,12.213,0,0,0-4.1.632,10.253,10.253,0,0,0-3.076,1.692,10.516,10.516,0,0,0-2.187,2.427,14.433,14.433,0,0,0-1.436,2.837v16.68a13.649,13.649,0,0,0,1.624,2.751,10.421,10.421,0,0,0,2.307,2.222,10.727,10.727,0,0,0,3.059,1.47,13.2,13.2,0,0,0,3.879.53,9.517,9.517,0,0,0,4.8-1.162,9.751,9.751,0,0,0,3.367-3.213,14.811,14.811,0,0,0,1.965-4.836,27.232,27.232,0,0,0,.632-6.033Zm36.914,14.15a11.856,11.856,0,0,1-4.631,3.948,16.168,16.168,0,0,1-7.161,1.418,15.081,15.081,0,0,1-4.956-.769,9.56,9.56,0,0,1-3.828-2.444,11.183,11.183,0,0,1-2.478-4.324,20.779,20.779,0,0,1-.872-6.443V102.018h4.067v23.755a15.383,15.383,0,0,0,.684,4.956,8.427,8.427,0,0,0,1.846,3.179,6.637,6.637,0,0,0,2.717,1.709,10.468,10.468,0,0,0,3.3.513,15.582,15.582,0,0,0,4.341-.547,10.456,10.456,0,0,0,3.247-1.538,9.092,9.092,0,0,0,2.256-2.324,11.656,11.656,0,0,0,1.4-2.939V102.018h4.1V139h-3.965ZM498.647,139h-4.1V102.018h4.1Zm-4.819-47.681a2.769,2.769,0,0,1,.752-1.965,2.673,2.673,0,0,1,2.051-.8,2.692,2.692,0,0,1,2.837,2.769,2.676,2.676,0,0,1-.769,1.948,2.761,2.761,0,0,1-2.068.786,2.638,2.638,0,0,1-2.8-2.734ZM514.336,139h-4.1V86.5h4.1Zm9.468-18.833a28.288,28.288,0,0,1,.991-7.776,18.039,18.039,0,0,1,2.837-5.93,12.706,12.706,0,0,1,4.495-3.794,13.082,13.082,0,0,1,5.964-1.333,13.657,13.657,0,0,1,6.75,1.572,13.382,13.382,0,0,1,4.666,4.341V86.5h4.067V139h-3.828l-.171-4.922a12.989,12.989,0,0,1-4.7,4.119,14.665,14.665,0,0,1-6.853,1.487,12.506,12.506,0,0,1-5.913-1.384,13.2,13.2,0,0,1-4.478-3.862,18.262,18.262,0,0,1-2.837-5.93,27.56,27.56,0,0,1-.991-7.622Zm4.136.718a26.544,26.544,0,0,0,.649,6.033,15.081,15.081,0,0,0,1.982,4.836,9.751,9.751,0,0,0,3.367,3.213,9.589,9.589,0,0,0,4.836,1.162,13.417,13.417,0,0,0,3.777-.5,10.715,10.715,0,0,0,3.008-1.384,10.138,10.138,0,0,0,2.29-2.119,13.926,13.926,0,0,0,1.658-2.666V112.1a16.574,16.574,0,0,0-1.5-2.7,10.219,10.219,0,0,0-2.187-2.307,10.538,10.538,0,0,0-3.008-1.606,11.991,11.991,0,0,0-3.965-.6,9.644,9.644,0,0,0-4.888,1.179,9.856,9.856,0,0,0-3.384,3.23,15.073,15.073,0,0,0-1.982,4.854,26.608,26.608,0,0,0-.649,6.016ZM568.921,139h-4.1V102.018h4.1ZM564.1,91.319a2.769,2.769,0,0,1,.752-1.965,2.673,2.673,0,0,1,2.051-.8,2.692,2.692,0,0,1,2.837,2.769,2.676,2.676,0,0,1-.769,1.948,2.761,2.761,0,0,1-2.068.786,2.638,2.638,0,0,1-2.8-2.734Zm19.824,10.7.137,6.323a16.552,16.552,0,0,1,2.2-2.871,13.367,13.367,0,0,1,6.1-3.64,13.938,13.938,0,0,1,3.76-.5,15.2,15.2,0,0,1,4.956.752,8.927,8.927,0,0,1,3.708,2.393,10.839,10.839,0,0,1,2.324,4.221,21.166,21.166,0,0,1,.8,6.238V139h-4.067V114.9a15.857,15.857,0,0,0-.615-4.785,7.731,7.731,0,0,0-1.743-3.076,6.344,6.344,0,0,0-2.751-1.658,12.319,12.319,0,0,0-3.606-.5,10.285,10.285,0,0,0-3.965.735,10.86,10.86,0,0,0-3.145,1.965,13.093,13.093,0,0,0-2.358,2.82,16.19,16.19,0,0,0-1.572,3.264V139h-4.067V102.018Zm32.915,18.149a28.756,28.756,0,0,1,.974-7.776,17.793,17.793,0,0,1,2.82-5.93,12.706,12.706,0,0,1,4.495-3.794,13.16,13.16,0,0,1,6-1.333,13.71,13.71,0,0,1,6.8,1.589,13.273,13.273,0,0,1,4.683,4.426l.205-5.332h3.828v36.333a18.415,18.415,0,0,1-1.06,6.443,13.618,13.618,0,0,1-2.991,4.836,12.948,12.948,0,0,1-4.666,3.042,17.2,17.2,0,0,1-13.176-.513,16.3,16.3,0,0,1-3.2-1.965,13.027,13.027,0,0,1-2.632-2.786l2.29-2.461A15.1,15.1,0,0,0,626,149a12.072,12.072,0,0,0,5.537,1.282,12.631,12.631,0,0,0,4.666-.8,9.182,9.182,0,0,0,3.435-2.324,10.187,10.187,0,0,0,2.136-3.691,15.365,15.365,0,0,0,.735-4.939v-4.307a12.969,12.969,0,0,1-4.683,4.016,14.683,14.683,0,0,1-6.768,1.453,12.58,12.58,0,0,1-5.947-1.384,13.2,13.2,0,0,1-4.478-3.862,18.01,18.01,0,0,1-2.82-5.93,28.015,28.015,0,0,1-.974-7.622Zm4.136.718a26.544,26.544,0,0,0,.649,6.033,15.081,15.081,0,0,0,1.982,4.836,9.751,9.751,0,0,0,3.367,3.213,9.589,9.589,0,0,0,4.836,1.162,13.127,13.127,0,0,0,3.811-.513,10.52,10.52,0,0,0,2.991-1.418,10.309,10.309,0,0,0,2.256-2.136,13.991,13.991,0,0,0,1.641-2.7V112.169a14.322,14.322,0,0,0-1.487-2.751,10.57,10.57,0,0,0-2.187-2.324,10.289,10.289,0,0,0-2.991-1.606,11.991,11.991,0,0,0-3.965-.6,9.644,9.644,0,0,0-4.888,1.179,9.856,9.856,0,0,0-3.384,3.23,15.073,15.073,0,0,0-1.982,4.854,26.608,26.608,0,0,0-.649,6.016Zm58.481,8.716a6.818,6.818,0,0,0-.393-2.256,5.39,5.39,0,0,0-1.47-2.136,11.038,11.038,0,0,0-3.008-1.88,24.934,24.934,0,0,0-5.007-1.521,43.189,43.189,0,0,1-5.486-1.5,15.791,15.791,0,0,1-4.067-2.068,8.17,8.17,0,0,1-2.512-2.888,8.542,8.542,0,0,1-.854-3.931,8.732,8.732,0,0,1,.906-3.9,9.469,9.469,0,0,1,2.6-3.213,12.991,12.991,0,0,1,4.1-2.17,17.077,17.077,0,0,1,5.417-.8,18.393,18.393,0,0,1,5.759.837,12.773,12.773,0,0,1,4.307,2.324,9.987,9.987,0,0,1,2.683,3.5,10.387,10.387,0,0,1,.923,4.375h-4.1a6.61,6.61,0,0,0-.632-2.8,7.074,7.074,0,0,0-1.846-2.41,9.549,9.549,0,0,0-3.008-1.692,11.956,11.956,0,0,0-4.084-.649,12.643,12.643,0,0,0-4.084.581,8.4,8.4,0,0,0-2.769,1.5,5.7,5.7,0,0,0-2.068,4.375,6.365,6.365,0,0,0,.376,2.239,4.484,4.484,0,0,0,1.453,1.88,11.066,11.066,0,0,0,3.008,1.606,39.718,39.718,0,0,0,5.042,1.453,42.16,42.16,0,0,1,5.776,1.743,14.729,14.729,0,0,1,4.016,2.273,8.428,8.428,0,0,1,2.358,3.008,9.371,9.371,0,0,1,.769,3.914,9.162,9.162,0,0,1-.957,4.187,9.318,9.318,0,0,1-2.734,3.247,13.322,13.322,0,0,1-4.307,2.1,19.756,19.756,0,0,1-5.64.752,19.547,19.547,0,0,1-6.221-.906,13.945,13.945,0,0,1-4.546-2.444,10.287,10.287,0,0,1-2.786-3.538,9.653,9.653,0,0,1-.94-4.153h4.1a7.13,7.13,0,0,0,1.128,3.64,7.723,7.723,0,0,0,2.461,2.324,10.616,10.616,0,0,0,3.264,1.248,17.217,17.217,0,0,0,3.538.376,13.967,13.967,0,0,0,4.1-.547,9.521,9.521,0,0,0,2.991-1.47,6.276,6.276,0,0,0,1.829-2.119A5.387,5.387,0,0,0,679.458,129.6Zm17.227,7.759a14.948,14.948,0,0,1-2.769,8.665A14.184,14.184,0,0,1,691.9,148.3l-2.427-1.777a18.011,18.011,0,0,0,2.393-4.255,13.412,13.412,0,0,0,.82-4.836v-4.854h4Zm35.342-6.87.615,3.179.82-3.35,8.887-28.3h3.486l8.784,28.062.957,3.9.786-3.589,7.588-28.369h4.238L757.422,139h-3.486l-9.5-29.326-.444-2.017-.444,2.051L734.214,139h-3.486L720,102.018h4.2Zm48.5,8.511h-4.1V102.018h4.1Zm-4.819-47.681a2.769,2.769,0,0,1,.752-1.965,2.673,2.673,0,0,1,2.051-.8,2.692,2.692,0,0,1,2.837,2.769,2.676,2.676,0,0,1-.769,1.948,2.761,2.761,0,0,1-2.068.786,2.638,2.638,0,0,1-2.8-2.734Zm22.285,1.23v9.468h7.656v3.35h-7.656v24.644a10.155,10.155,0,0,0,.393,3.127,4.637,4.637,0,0,0,1.06,1.846,3.3,3.3,0,0,0,1.538.889,7.376,7.376,0,0,0,1.829.222,12.811,12.811,0,0,0,1.777-.12q.854-.12,1.538-.222l.171,3.35a9.333,9.333,0,0,1-1.965.427,19.145,19.145,0,0,1-2.41.154,10.849,10.849,0,0,1-3.23-.461,5.79,5.79,0,0,1-2.546-1.589,7.761,7.761,0,0,1-1.658-2.991,15.345,15.345,0,0,1-.6-4.631V105.367h-6.8v-3.35h6.8V92.55Zm20.2,15.723a15.581,15.581,0,0,1,2.222-2.854,13.872,13.872,0,0,1,2.786-2.187,13.567,13.567,0,0,1,3.281-1.4,13.752,13.752,0,0,1,3.743-.5,15.2,15.2,0,0,1,4.956.752,8.927,8.927,0,0,1,3.708,2.393,10.839,10.839,0,0,1,2.324,4.221,21.166,21.166,0,0,1,.8,6.238V139h-4.067V114.9a15.857,15.857,0,0,0-.615-4.785,7.731,7.731,0,0,0-1.743-3.076,6.344,6.344,0,0,0-2.751-1.658,12.319,12.319,0,0,0-3.606-.5,10.285,10.285,0,0,0-3.965.735,10.86,10.86,0,0,0-3.145,1.965,13.093,13.093,0,0,0-2.358,2.82,16.19,16.19,0,0,0-1.572,3.264V139h-4.067V86.5h4.067ZM857.124,139h-4.1V102.018h4.1ZM852.3,91.319a2.769,2.769,0,0,1,.752-1.965,2.673,2.673,0,0,1,2.051-.8,2.692,2.692,0,0,1,2.837,2.769,2.676,2.676,0,0,1-.769,1.948,2.761,2.761,0,0,1-2.068.786,2.638,2.638,0,0,1-2.8-2.734Zm19.824,10.7.137,6.323a16.552,16.552,0,0,1,2.2-2.871,13.367,13.367,0,0,1,6.1-3.64,13.938,13.938,0,0,1,3.76-.5,15.2,15.2,0,0,1,4.956.752A8.927,8.927,0,0,1,893,104.479a10.839,10.839,0,0,1,2.324,4.221,21.166,21.166,0,0,1,.8,6.238V139h-4.067V114.9a15.857,15.857,0,0,0-.615-4.785,7.731,7.731,0,0,0-1.743-3.076,6.344,6.344,0,0,0-2.751-1.658,12.319,12.319,0,0,0-3.606-.5,10.285,10.285,0,0,0-3.965.735,10.86,10.86,0,0,0-3.145,1.965,13.093,13.093,0,0,0-2.358,2.82,16.19,16.19,0,0,0-1.572,3.264V139h-4.067V102.018ZM19,210.231a12.409,12.409,0,0,0,3.743-.564,10.03,10.03,0,0,0,3.2-1.658,8.973,8.973,0,0,0,2.307-2.7,8.614,8.614,0,0,0,1.042-3.726h3.931a11.493,11.493,0,0,1-1.316,4.854,12.642,12.642,0,0,1-3.11,3.828,14.6,14.6,0,0,1-4.46,2.512,15.7,15.7,0,0,1-5.332.906,15.558,15.558,0,0,1-6.836-1.418,14.086,14.086,0,0,1-4.939-3.914,17.109,17.109,0,0,1-3.008-5.862,25.206,25.206,0,0,1-1.008-7.263v-1.436a25.206,25.206,0,0,1,1.008-7.263,17.091,17.091,0,0,1,2.991-5.845,14.139,14.139,0,0,1,4.939-3.914,15.429,15.429,0,0,1,6.819-1.436,16.083,16.083,0,0,1,5.52.923,13.361,13.361,0,0,1,4.443,2.632,12.648,12.648,0,0,1,3.025,4.153,14.452,14.452,0,0,1,1.265,5.452H29.292a10.934,10.934,0,0,0-.974-4.033,9.485,9.485,0,0,0-5.435-4.973,11.34,11.34,0,0,0-3.914-.667,10.9,10.9,0,0,0-5.383,1.23,10.378,10.378,0,0,0-3.606,3.315,14.361,14.361,0,0,0-2.034,4.785,24.659,24.659,0,0,0-.632,5.64v1.436a25.036,25.036,0,0,0,.632,5.691A14.371,14.371,0,0,0,9.963,205.7a10.2,10.2,0,0,0,3.623,3.3A11.1,11.1,0,0,0,19,210.231Zm20.132-16.27a22.708,22.708,0,0,1,1.179-7.451,17.653,17.653,0,0,1,3.333-5.9,15.249,15.249,0,0,1,5.2-3.879,15.984,15.984,0,0,1,6.768-1.4,16.267,16.267,0,0,1,6.853,1.4,15.2,15.2,0,0,1,5.212,3.879,17.426,17.426,0,0,1,3.315,5.9,23.013,23.013,0,0,1,1.162,7.451v1.128a23.013,23.013,0,0,1-1.162,7.451,17.426,17.426,0,0,1-3.315,5.9,15.058,15.058,0,0,1-5.2,3.862,17.4,17.4,0,0,1-13.6,0,15.23,15.23,0,0,1-5.212-3.862,17.493,17.493,0,0,1-3.35-5.9,22.708,22.708,0,0,1-1.179-7.451Zm4.1,1.128a20.172,20.172,0,0,0,.82,5.793A14.921,14.921,0,0,0,46.45,205.7a11.724,11.724,0,0,0,3.9,3.3,12.131,12.131,0,0,0,10.647,0,11.777,11.777,0,0,0,3.879-3.3,14.921,14.921,0,0,0,2.393-4.819,20.172,20.172,0,0,0,.82-5.793v-1.128a19.931,19.931,0,0,0-.82-5.725,15.128,15.128,0,0,0-2.393-4.836,11.77,11.77,0,0,0-3.914-3.333,11.2,11.2,0,0,0-5.349-1.248,10.925,10.925,0,0,0-5.281,1.248A11.878,11.878,0,0,0,46.45,183.4a15.128,15.128,0,0,0-2.393,4.836,19.931,19.931,0,0,0-.82,5.725Zm41.084-19.072.137,6.016a15.738,15.738,0,0,1,2.136-2.751,12.555,12.555,0,0,1,2.717-2.119,13.519,13.519,0,0,1,3.281-1.35,14.68,14.68,0,0,1,3.828-.479,13.517,13.517,0,0,1,6.973,1.709,9.44,9.44,0,0,1,4.136,5.469,15.165,15.165,0,0,1,2.136-2.854,13.442,13.442,0,0,1,2.837-2.273,14.451,14.451,0,0,1,3.5-1.5,15,15,0,0,1,4.136-.547,15.848,15.848,0,0,1,5.127.769,9.2,9.2,0,0,1,3.811,2.427,10.93,10.93,0,0,1,2.375,4.221,20.316,20.316,0,0,1,.82,6.152V213h-4.1V188.869a15.5,15.5,0,0,0-.649-4.871,7.455,7.455,0,0,0-1.846-3.076,6.481,6.481,0,0,0-2.854-1.589,14.038,14.038,0,0,0-3.64-.444,10.816,10.816,0,0,0-7.844,3.23,10.756,10.756,0,0,0-2.991,6.409V213h-4.1V188.562a14.057,14.057,0,0,0-.649-4.614,7.354,7.354,0,0,0-1.846-2.974,6.867,6.867,0,0,0-2.854-1.606,13.224,13.224,0,0,0-3.674-.479,10.667,10.667,0,0,0-4.1.735,10.167,10.167,0,0,0-3.093,1.965,11.016,11.016,0,0,0-2.17,2.8,17.536,17.536,0,0,0-1.367,3.247V213h-4.1V176.018Zm62.036,0,.137,6.016a15.738,15.738,0,0,1,2.136-2.751,12.555,12.555,0,0,1,2.717-2.119,13.519,13.519,0,0,1,3.281-1.35,14.68,14.68,0,0,1,3.828-.479,13.517,13.517,0,0,1,6.973,1.709,9.44,9.44,0,0,1,4.136,5.469,15.165,15.165,0,0,1,2.136-2.854,13.442,13.442,0,0,1,2.837-2.273,14.451,14.451,0,0,1,3.5-1.5,15,15,0,0,1,4.136-.547,15.848,15.848,0,0,1,5.127.769,9.2,9.2,0,0,1,3.811,2.427,10.93,10.93,0,0,1,2.375,4.221,20.316,20.316,0,0,1,.82,6.152V213h-4.1V188.869a15.5,15.5,0,0,0-.649-4.871,7.455,7.455,0,0,0-1.846-3.076,6.481,6.481,0,0,0-2.854-1.589,14.038,14.038,0,0,0-3.64-.444,10.816,10.816,0,0,0-7.844,3.23,10.756,10.756,0,0,0-2.991,6.409V213h-4.1V188.562a14.057,14.057,0,0,0-.649-4.614,7.354,7.354,0,0,0-1.846-2.974,6.867,6.867,0,0,0-2.854-1.606,13.224,13.224,0,0,0-3.674-.479,10.667,10.667,0,0,0-4.1.735,10.167,10.167,0,0,0-3.093,1.965,11.016,11.016,0,0,0-2.17,2.8,17.537,17.537,0,0,0-1.367,3.247V213h-4.1V176.018Zm72.632,37.666a16.245,16.245,0,0,1-6.665-1.35,15.61,15.61,0,0,1-5.247-3.76,17.283,17.283,0,0,1-3.435-5.725,20.774,20.774,0,0,1-1.23-7.28V194.1a22.2,22.2,0,0,1,1.282-7.742,18.221,18.221,0,0,1,3.469-5.913,15.556,15.556,0,0,1,5.042-3.777,14.085,14.085,0,0,1,6.033-1.333,14.743,14.743,0,0,1,6.255,1.265,12.894,12.894,0,0,1,4.6,3.521,15.459,15.459,0,0,1,2.82,5.366,23.038,23.038,0,0,1,.957,6.8v2.5H206.479v.786a17.482,17.482,0,0,0,.923,5.725,14.406,14.406,0,0,0,2.6,4.666,12.293,12.293,0,0,0,4,3.127,11.519,11.519,0,0,0,5.161,1.145,13.327,13.327,0,0,0,5.793-1.2,12.849,12.849,0,0,0,4.563-3.828l2.563,1.948a17.706,17.706,0,0,1-2.136,2.529,12.839,12.839,0,0,1-2.82,2.085,15.179,15.179,0,0,1-3.623,1.4A18.329,18.329,0,0,1,218.989,213.684Zm-.752-34.863a10.406,10.406,0,0,0-4.307.889,10.721,10.721,0,0,0-3.5,2.529,13.417,13.417,0,0,0-2.5,3.948,18.99,18.99,0,0,0-1.316,5.11H228.8v-.444a16.5,16.5,0,0,0-.752-4.495,11.989,11.989,0,0,0-2-3.845,9.542,9.542,0,0,0-7.81-3.691Zm39.683.684a15.277,15.277,0,0,0-2.769-.239,10.844,10.844,0,0,0-3.76.615,9.436,9.436,0,0,0-2.957,1.726,10.089,10.089,0,0,0-2.153,2.632A14.6,14.6,0,0,0,244.9,187.6V213H240.83V176.018h4l.068,5.879a12.24,12.24,0,0,1,4.084-4.8,10.988,10.988,0,0,1,6.34-1.76,8.969,8.969,0,0,1,1.538.137,5.117,5.117,0,0,1,1.162.308ZM277.4,210.231a12.409,12.409,0,0,0,3.743-.564,10.03,10.03,0,0,0,3.2-1.658,8.973,8.973,0,0,0,2.307-2.7,8.614,8.614,0,0,0,1.042-3.726h3.931a11.493,11.493,0,0,1-1.316,4.854,12.642,12.642,0,0,1-3.11,3.828,14.6,14.6,0,0,1-4.46,2.512,16.716,16.716,0,0,1-12.168-.513,14.086,14.086,0,0,1-4.939-3.914,17.109,17.109,0,0,1-3.008-5.862,25.206,25.206,0,0,1-1.008-7.263v-1.436a25.206,25.206,0,0,1,1.008-7.263,17.091,17.091,0,0,1,2.991-5.845,14.139,14.139,0,0,1,4.939-3.914,15.429,15.429,0,0,1,6.819-1.436,16.083,16.083,0,0,1,5.52.923,13.36,13.36,0,0,1,4.443,2.632,12.648,12.648,0,0,1,3.025,4.153,14.452,14.452,0,0,1,1.265,5.452H287.69a10.934,10.934,0,0,0-.974-4.033,9.485,9.485,0,0,0-5.435-4.973,11.34,11.34,0,0,0-3.914-.667,10.9,10.9,0,0,0-5.383,1.23,10.377,10.377,0,0,0-3.606,3.315,14.361,14.361,0,0,0-2.034,4.785,24.66,24.66,0,0,0-.632,5.64v1.436a25.037,25.037,0,0,0,.632,5.691,14.371,14.371,0,0,0,2.017,4.785,10.2,10.2,0,0,0,3.623,3.3A11.1,11.1,0,0,0,277.4,210.231ZM304.37,213h-4.1V176.018h4.1Zm-4.819-47.681a2.769,2.769,0,0,1,.752-1.965,2.673,2.673,0,0,1,2.051-.8,2.692,2.692,0,0,1,2.837,2.769,2.677,2.677,0,0,1-.769,1.948,2.761,2.761,0,0,1-2.068.786,2.638,2.638,0,0,1-2.8-2.734ZM338.823,213a11.749,11.749,0,0,1-.53-2.341q-.188-1.384-.256-2.82a14.6,14.6,0,0,1-5.024,4.1,17.163,17.163,0,0,1-3.452,1.265,16.454,16.454,0,0,1-4.067.479,14.523,14.523,0,0,1-4.9-.786,10.969,10.969,0,0,1-3.76-2.2,9.961,9.961,0,0,1-2.41-3.333,10.7,10.7,0,0,1,.308-9.041,10.534,10.534,0,0,1,3.35-3.691,16.358,16.358,0,0,1,5.315-2.324,28.273,28.273,0,0,1,7.024-.8H338v-4.2a8.1,8.1,0,0,0-2.444-6.238q-2.444-2.273-7.126-2.273a12.922,12.922,0,0,0-3.965.581,10.009,10.009,0,0,0-3.127,1.606,7.63,7.63,0,0,0-2.051,2.375,5.949,5.949,0,0,0-.735,2.888l-4.1-.034a8.554,8.554,0,0,1,1.025-4.033,11.221,11.221,0,0,1,2.888-3.469,14.788,14.788,0,0,1,4.478-2.444,17.311,17.311,0,0,1,5.793-.923,18.588,18.588,0,0,1,5.417.752,11.8,11.8,0,0,1,4.255,2.256,10.236,10.236,0,0,1,2.769,3.76,12.991,12.991,0,0,1,.991,5.264v17.91q0,.957.068,1.982t.222,1.982q.154.957.359,1.829a9.622,9.622,0,0,0,.479,1.521V213Zm-12.852-2.939a14.4,14.4,0,0,0,4.119-.564,13.3,13.3,0,0,0,3.435-1.555,12.156,12.156,0,0,0,2.666-2.307A11.622,11.622,0,0,0,338,202.78v-8.135H331a25.442,25.442,0,0,0-5.623.564,13.669,13.669,0,0,0-4.187,1.624,7.663,7.663,0,0,0-2.615,2.581,6.584,6.584,0,0,0-.906,3.435,6.9,6.9,0,0,0,.581,2.82,6.715,6.715,0,0,0,1.658,2.29,7.9,7.9,0,0,0,2.615,1.538A9.973,9.973,0,0,0,325.972,210.061ZM357.554,213h-4.1V160.5h4.1Zm51.475,0a11.749,11.749,0,0,1-.53-2.341q-.188-1.384-.256-2.82a14.6,14.6,0,0,1-5.024,4.1,17.163,17.163,0,0,1-3.452,1.265,16.454,16.454,0,0,1-4.067.479,14.523,14.523,0,0,1-4.9-.786,10.969,10.969,0,0,1-3.76-2.2,9.961,9.961,0,0,1-2.41-3.333,10.7,10.7,0,0,1,.308-9.041,10.534,10.534,0,0,1,3.35-3.691A16.358,16.358,0,0,1,393.6,192.3a28.273,28.273,0,0,1,7.024-.8h7.588v-4.2a8.1,8.1,0,0,0-2.444-6.238q-2.444-2.273-7.126-2.273a12.922,12.922,0,0,0-3.965.581,10.009,10.009,0,0,0-3.127,1.606,7.63,7.63,0,0,0-2.051,2.375,5.949,5.949,0,0,0-.735,2.888l-4.1-.034a8.554,8.554,0,0,1,1.025-4.033,11.221,11.221,0,0,1,2.888-3.469,14.788,14.788,0,0,1,4.478-2.444,17.311,17.311,0,0,1,5.793-.923,18.588,18.588,0,0,1,5.417.752,11.8,11.8,0,0,1,4.255,2.256,10.236,10.236,0,0,1,2.769,3.76,12.991,12.991,0,0,1,.991,5.264v17.91q0,.957.068,1.982t.222,1.982q.154.957.359,1.829a9.622,9.622,0,0,0,.479,1.521V213Zm-12.852-2.939a14.4,14.4,0,0,0,4.119-.564,13.3,13.3,0,0,0,3.435-1.555,12.156,12.156,0,0,0,2.666-2.307,11.622,11.622,0,0,0,1.812-2.854v-8.135H401.2a25.442,25.442,0,0,0-5.623.564,13.669,13.669,0,0,0-4.187,1.624,7.663,7.663,0,0,0-2.615,2.581,6.584,6.584,0,0,0-.906,3.435,6.9,6.9,0,0,0,.581,2.82,6.715,6.715,0,0,0,1.658,2.29,7.9,7.9,0,0,0,2.615,1.538A9.973,9.973,0,0,0,396.177,210.061Zm30.9-34.043.137,6.323a16.555,16.555,0,0,1,2.2-2.871,13.367,13.367,0,0,1,6.1-3.64,13.938,13.938,0,0,1,3.76-.5,15.2,15.2,0,0,1,4.956.752,8.927,8.927,0,0,1,3.708,2.393,10.839,10.839,0,0,1,2.324,4.221,21.165,21.165,0,0,1,.8,6.238V213H447V188.9a15.857,15.857,0,0,0-.615-4.785,7.731,7.731,0,0,0-1.743-3.076,6.343,6.343,0,0,0-2.751-1.658,12.319,12.319,0,0,0-3.606-.5,10.285,10.285,0,0,0-3.965.735,10.861,10.861,0,0,0-3.145,1.965,13.092,13.092,0,0,0-2.358,2.82,16.19,16.19,0,0,0-1.572,3.264V213h-4.067V176.018Zm32.915,18.149a28.289,28.289,0,0,1,.991-7.776,18.038,18.038,0,0,1,2.837-5.93,12.706,12.706,0,0,1,4.495-3.794,13.082,13.082,0,0,1,5.964-1.333,13.657,13.657,0,0,1,6.75,1.572,13.382,13.382,0,0,1,4.666,4.341V160.5h4.067V213h-3.828l-.171-4.922a12.988,12.988,0,0,1-4.7,4.119,14.665,14.665,0,0,1-6.853,1.487A12.506,12.506,0,0,1,468.3,212.3a13.2,13.2,0,0,1-4.478-3.862,18.261,18.261,0,0,1-2.837-5.93,27.561,27.561,0,0,1-.991-7.622Zm4.136.718a26.542,26.542,0,0,0,.649,6.033,15.081,15.081,0,0,0,1.982,4.836,9.751,9.751,0,0,0,3.367,3.213,9.589,9.589,0,0,0,4.836,1.162,13.417,13.417,0,0,0,3.777-.5,10.716,10.716,0,0,0,3.008-1.384,10.138,10.138,0,0,0,2.29-2.119,13.925,13.925,0,0,0,1.658-2.666V186.1a16.576,16.576,0,0,0-1.5-2.7A10.219,10.219,0,0,0,482,181.093a10.538,10.538,0,0,0-3.008-1.606,11.991,11.991,0,0,0-3.965-.6,9.644,9.644,0,0,0-4.888,1.179,9.856,9.856,0,0,0-3.384,3.23,15.074,15.074,0,0,0-1.982,4.854,26.606,26.606,0,0,0-.649,6.016Zm58,18.115h-4.1V176.018h4.1Zm-4.819-47.681a2.769,2.769,0,0,1,.752-1.965,2.673,2.673,0,0,1,2.051-.8,2.692,2.692,0,0,1,2.837,2.769,2.677,2.677,0,0,1-.769,1.948,2.761,2.761,0,0,1-2.068.786,2.638,2.638,0,0,1-2.8-2.734Zm19.824,10.7.137,6.323a16.552,16.552,0,0,1,2.2-2.871,13.367,13.367,0,0,1,6.1-3.64,13.938,13.938,0,0,1,3.76-.5,15.2,15.2,0,0,1,4.956.752A8.927,8.927,0,0,1,558,178.479a10.839,10.839,0,0,1,2.324,4.221,21.166,21.166,0,0,1,.8,6.238V213h-4.067V188.9a15.857,15.857,0,0,0-.615-4.785,7.731,7.731,0,0,0-1.743-3.076,6.344,6.344,0,0,0-2.751-1.658,12.319,12.319,0,0,0-3.606-.5,10.285,10.285,0,0,0-3.965.735,10.861,10.861,0,0,0-3.145,1.965,13.093,13.093,0,0,0-2.358,2.82,16.19,16.19,0,0,0-1.572,3.264V213h-4.067V176.018Zm32.915,18.149a28.288,28.288,0,0,1,.991-7.776,18.039,18.039,0,0,1,2.837-5.93,12.706,12.706,0,0,1,4.495-3.794,13.082,13.082,0,0,1,5.964-1.333,13.657,13.657,0,0,1,6.75,1.572,13.382,13.382,0,0,1,4.666,4.341V160.5h4.067V213h-3.828l-.171-4.922a12.989,12.989,0,0,1-4.7,4.119,14.665,14.665,0,0,1-6.853,1.487,12.506,12.506,0,0,1-5.913-1.384,13.2,13.2,0,0,1-4.478-3.862,18.262,18.262,0,0,1-2.837-5.93,27.56,27.56,0,0,1-.991-7.622Zm4.136.718a26.544,26.544,0,0,0,.649,6.033,15.081,15.081,0,0,0,1.982,4.836,9.751,9.751,0,0,0,3.367,3.213,9.589,9.589,0,0,0,4.836,1.162,13.417,13.417,0,0,0,3.777-.5,10.715,10.715,0,0,0,3.008-1.384,10.138,10.138,0,0,0,2.29-2.119,13.926,13.926,0,0,0,1.658-2.666V186.1a16.574,16.574,0,0,0-1.5-2.7,10.219,10.219,0,0,0-2.187-2.307,10.538,10.538,0,0,0-3.008-1.606,11.991,11.991,0,0,0-3.965-.6,9.644,9.644,0,0,0-4.888,1.179,9.856,9.856,0,0,0-3.384,3.23,15.073,15.073,0,0,0-1.982,4.854,26.608,26.608,0,0,0-.649,6.016Zm60.19,13.433a11.856,11.856,0,0,1-4.631,3.948,16.168,16.168,0,0,1-7.161,1.418,15.081,15.081,0,0,1-4.956-.769,9.56,9.56,0,0,1-3.828-2.444,11.183,11.183,0,0,1-2.478-4.324,20.779,20.779,0,0,1-.872-6.443V176.018h4.067v23.755a15.382,15.382,0,0,0,.684,4.956,8.427,8.427,0,0,0,1.846,3.179,6.637,6.637,0,0,0,2.717,1.709,10.468,10.468,0,0,0,3.3.513,15.582,15.582,0,0,0,4.341-.547,10.456,10.456,0,0,0,3.247-1.538,9.093,9.093,0,0,0,2.256-2.324,11.655,11.655,0,0,0,1.4-2.939V176.018h4.1V213h-3.965Zm36.812-4.717a6.818,6.818,0,0,0-.393-2.256,5.39,5.39,0,0,0-1.47-2.136,11.038,11.038,0,0,0-3.008-1.88,24.934,24.934,0,0,0-5.007-1.521,43.189,43.189,0,0,1-5.486-1.5,15.791,15.791,0,0,1-4.067-2.068,8.17,8.17,0,0,1-2.512-2.888,8.542,8.542,0,0,1-.854-3.931,8.732,8.732,0,0,1,.906-3.9,9.469,9.469,0,0,1,2.6-3.213,12.991,12.991,0,0,1,4.1-2.17,17.078,17.078,0,0,1,5.417-.8,18.393,18.393,0,0,1,5.759.837,12.773,12.773,0,0,1,4.307,2.324,9.987,9.987,0,0,1,2.683,3.5,10.387,10.387,0,0,1,.923,4.375h-4.1a6.61,6.61,0,0,0-.632-2.8,7.074,7.074,0,0,0-1.846-2.41,9.549,9.549,0,0,0-3.008-1.692,11.956,11.956,0,0,0-4.084-.649,12.643,12.643,0,0,0-4.084.581,8.4,8.4,0,0,0-2.769,1.5,5.7,5.7,0,0,0-2.068,4.375,6.365,6.365,0,0,0,.376,2.239,4.484,4.484,0,0,0,1.453,1.88,11.067,11.067,0,0,0,3.008,1.606,39.716,39.716,0,0,0,5.042,1.453,42.162,42.162,0,0,1,5.776,1.743,14.729,14.729,0,0,1,4.016,2.273,8.427,8.427,0,0,1,2.358,3.008,9.371,9.371,0,0,1,.769,3.914,9.162,9.162,0,0,1-.957,4.187,9.318,9.318,0,0,1-2.734,3.247,13.322,13.322,0,0,1-4.307,2.1,19.756,19.756,0,0,1-5.64.752,19.547,19.547,0,0,1-6.221-.906,13.945,13.945,0,0,1-4.546-2.444A10.287,10.287,0,0,1,648.1,206.8a9.653,9.653,0,0,1-.94-4.153h4.1a7.13,7.13,0,0,0,1.128,3.64,7.723,7.723,0,0,0,2.461,2.324,10.616,10.616,0,0,0,3.264,1.248,17.217,17.217,0,0,0,3.538.376,13.967,13.967,0,0,0,4.1-.547,9.521,9.521,0,0,0,2.991-1.47,6.276,6.276,0,0,0,1.829-2.119A5.387,5.387,0,0,0,671.187,203.6ZM690.84,166.55v9.468H698.5v3.35H690.84v24.644a10.155,10.155,0,0,0,.393,3.127,4.637,4.637,0,0,0,1.06,1.846,3.3,3.3,0,0,0,1.538.889,7.376,7.376,0,0,0,1.829.222,12.811,12.811,0,0,0,1.777-.12q.854-.12,1.538-.222l.171,3.35a9.333,9.333,0,0,1-1.965.427,19.145,19.145,0,0,1-2.41.154,10.849,10.849,0,0,1-3.23-.461,5.79,5.79,0,0,1-2.546-1.589,7.761,7.761,0,0,1-1.658-2.991,15.345,15.345,0,0,1-.6-4.631V179.367h-6.8v-3.35h6.8V166.55ZM724.063,179.5a15.278,15.278,0,0,0-2.769-.239,10.844,10.844,0,0,0-3.76.615,9.436,9.436,0,0,0-2.957,1.726,10.089,10.089,0,0,0-2.153,2.632,14.6,14.6,0,0,0-1.384,3.367V213h-4.067V176.018h4l.068,5.879a12.24,12.24,0,0,1,4.084-4.8,10.988,10.988,0,0,1,6.34-1.76,8.969,8.969,0,0,1,1.538.137,5.117,5.117,0,0,1,1.162.308ZM735.1,213H731V176.018h4.1Zm-4.819-47.681a2.769,2.769,0,0,1,.752-1.965,2.673,2.673,0,0,1,2.051-.8,2.692,2.692,0,0,1,2.837,2.769,2.677,2.677,0,0,1-.769,1.948,2.761,2.761,0,0,1-2.068.786,2.638,2.638,0,0,1-2.8-2.734ZM769.556,213a11.749,11.749,0,0,1-.53-2.341q-.188-1.384-.256-2.82a14.6,14.6,0,0,1-5.024,4.1,17.163,17.163,0,0,1-3.452,1.265,16.454,16.454,0,0,1-4.067.479,14.523,14.523,0,0,1-4.9-.786,10.969,10.969,0,0,1-3.76-2.2,9.96,9.96,0,0,1-2.41-3.333,10.7,10.7,0,0,1,.308-9.041,10.534,10.534,0,0,1,3.35-3.691,16.358,16.358,0,0,1,5.315-2.324,28.273,28.273,0,0,1,7.024-.8h7.588v-4.2a8.1,8.1,0,0,0-2.444-6.238q-2.444-2.273-7.126-2.273a12.922,12.922,0,0,0-3.965.581,10.008,10.008,0,0,0-3.127,1.606,7.631,7.631,0,0,0-2.051,2.375,5.949,5.949,0,0,0-.735,2.888l-4.1-.034a8.554,8.554,0,0,1,1.025-4.033A11.22,11.22,0,0,1,749.1,178.7a14.788,14.788,0,0,1,4.478-2.444,17.311,17.311,0,0,1,5.793-.923,18.588,18.588,0,0,1,5.417.752,11.8,11.8,0,0,1,4.255,2.256,10.236,10.236,0,0,1,2.769,3.76,12.99,12.99,0,0,1,.991,5.264v17.91q0,.957.068,1.982t.222,1.982q.154.957.359,1.829a9.619,9.619,0,0,0,.479,1.521V213ZM756.7,210.061a14.4,14.4,0,0,0,4.119-.564,13.3,13.3,0,0,0,3.435-1.555,12.156,12.156,0,0,0,2.666-2.307,11.623,11.623,0,0,0,1.812-2.854v-8.135h-7.007a25.442,25.442,0,0,0-5.623.564,13.669,13.669,0,0,0-4.187,1.624,7.663,7.663,0,0,0-2.615,2.581,6.584,6.584,0,0,0-.906,3.435,6.9,6.9,0,0,0,.581,2.82,6.715,6.715,0,0,0,1.658,2.29,7.9,7.9,0,0,0,2.615,1.538A9.973,9.973,0,0,0,756.7,210.061ZM788.286,213h-4.1V160.5h4.1Zm50.278-9.4a6.818,6.818,0,0,0-.393-2.256,5.39,5.39,0,0,0-1.47-2.136,11.038,11.038,0,0,0-3.008-1.88,24.934,24.934,0,0,0-5.007-1.521,43.189,43.189,0,0,1-5.486-1.5,15.791,15.791,0,0,1-4.067-2.068,8.17,8.17,0,0,1-2.512-2.888,8.542,8.542,0,0,1-.854-3.931,8.732,8.732,0,0,1,.906-3.9,9.469,9.469,0,0,1,2.6-3.213,12.991,12.991,0,0,1,4.1-2.17,17.078,17.078,0,0,1,5.417-.8,18.393,18.393,0,0,1,5.759.837,12.773,12.773,0,0,1,4.307,2.324,9.987,9.987,0,0,1,2.683,3.5,10.387,10.387,0,0,1,.923,4.375h-4.1a6.61,6.61,0,0,0-.632-2.8,7.074,7.074,0,0,0-1.846-2.41,9.549,9.549,0,0,0-3.008-1.692,11.956,11.956,0,0,0-4.084-.649,12.643,12.643,0,0,0-4.084.581,8.4,8.4,0,0,0-2.769,1.5,5.7,5.7,0,0,0-2.068,4.375,6.365,6.365,0,0,0,.376,2.239,4.484,4.484,0,0,0,1.453,1.88,11.067,11.067,0,0,0,3.008,1.606,39.716,39.716,0,0,0,5.042,1.453,42.162,42.162,0,0,1,5.776,1.743,14.729,14.729,0,0,1,4.016,2.273,8.427,8.427,0,0,1,2.358,3.008,9.371,9.371,0,0,1,.769,3.914,9.162,9.162,0,0,1-.957,4.187,9.318,9.318,0,0,1-2.734,3.247,13.322,13.322,0,0,1-4.307,2.1,19.756,19.756,0,0,1-5.64.752,19.547,19.547,0,0,1-6.221-.906,13.945,13.945,0,0,1-4.546-2.444,10.287,10.287,0,0,1-2.786-3.538,9.653,9.653,0,0,1-.94-4.153h4.1a7.13,7.13,0,0,0,1.128,3.64,7.723,7.723,0,0,0,2.461,2.324,10.616,10.616,0,0,0,3.264,1.248,17.217,17.217,0,0,0,3.538.376,13.967,13.967,0,0,0,4.1-.547,9.521,9.521,0,0,0,2.991-1.47,6.276,6.276,0,0,0,1.829-2.119A5.387,5.387,0,0,0,838.564,203.6Zm27.617,10.083a16.245,16.245,0,0,1-6.665-1.35,15.61,15.61,0,0,1-5.247-3.76,17.283,17.283,0,0,1-3.435-5.725,20.774,20.774,0,0,1-1.23-7.28V194.1a22.2,22.2,0,0,1,1.282-7.742,18.221,18.221,0,0,1,3.469-5.913,15.556,15.556,0,0,1,5.042-3.777,14.085,14.085,0,0,1,6.033-1.333,14.743,14.743,0,0,1,6.255,1.265,12.894,12.894,0,0,1,4.6,3.521,15.458,15.458,0,0,1,2.82,5.366,23.039,23.039,0,0,1,.957,6.8v2.5H853.672v.786a17.482,17.482,0,0,0,.923,5.725,14.406,14.406,0,0,0,2.6,4.666,12.293,12.293,0,0,0,4,3.127,11.519,11.519,0,0,0,5.161,1.145,13.327,13.327,0,0,0,5.793-1.2,12.849,12.849,0,0,0,4.563-3.828l2.563,1.948a17.707,17.707,0,0,1-2.136,2.529,12.838,12.838,0,0,1-2.82,2.085,15.179,15.179,0,0,1-3.623,1.4A18.329,18.329,0,0,1,866.182,213.684Zm-.752-34.863a10.406,10.406,0,0,0-4.307.889,10.721,10.721,0,0,0-3.5,2.529,13.417,13.417,0,0,0-2.5,3.948,18.99,18.99,0,0,0-1.316,5.11h22.183v-.444a16.5,16.5,0,0,0-.752-4.495,11.99,11.99,0,0,0-2-3.845,9.542,9.542,0,0,0-7.81-3.691Zm36.265,31.411a12.409,12.409,0,0,0,3.743-.564,10.03,10.03,0,0,0,3.2-1.658,8.972,8.972,0,0,0,2.307-2.7,8.614,8.614,0,0,0,1.042-3.726h3.931a11.493,11.493,0,0,1-1.316,4.854,12.642,12.642,0,0,1-3.11,3.828,14.6,14.6,0,0,1-4.46,2.512,16.716,16.716,0,0,1-12.168-.513,14.086,14.086,0,0,1-4.939-3.914,17.109,17.109,0,0,1-3.008-5.862,25.207,25.207,0,0,1-1.008-7.263v-1.436a25.207,25.207,0,0,1,1.008-7.263,17.091,17.091,0,0,1,2.991-5.845,14.139,14.139,0,0,1,4.939-3.914,15.429,15.429,0,0,1,6.819-1.436,16.083,16.083,0,0,1,5.52.923,13.361,13.361,0,0,1,4.443,2.632,12.648,12.648,0,0,1,3.025,4.153,14.452,14.452,0,0,1,1.265,5.452h-3.931a10.933,10.933,0,0,0-.974-4.033,9.485,9.485,0,0,0-5.435-4.973,11.34,11.34,0,0,0-3.914-.667,10.9,10.9,0,0,0-5.383,1.23,10.378,10.378,0,0,0-3.606,3.315,14.361,14.361,0,0,0-2.034,4.785,24.658,24.658,0,0,0-.632,5.64v1.436a25.035,25.035,0,0,0,.632,5.691,14.371,14.371,0,0,0,2.017,4.785,10.2,10.2,0,0,0,3.623,3.3A11.1,11.1,0,0,0,901.694,210.231Zm28.745-43.682v9.468H938.1v3.35h-7.656v24.644a10.155,10.155,0,0,0,.393,3.127,4.637,4.637,0,0,0,1.06,1.846,3.3,3.3,0,0,0,1.538.889,7.376,7.376,0,0,0,1.829.222,12.811,12.811,0,0,0,1.777-.12q.854-.12,1.538-.222l.171,3.35a9.333,9.333,0,0,1-1.965.427,19.145,19.145,0,0,1-2.41.154,10.849,10.849,0,0,1-3.23-.461,5.79,5.79,0,0,1-2.546-1.589,7.761,7.761,0,0,1-1.658-2.991,15.345,15.345,0,0,1-.6-4.631V179.367h-6.8v-3.35h6.8V166.55Zm13.193,27.412a22.708,22.708,0,0,1,1.179-7.451,17.653,17.653,0,0,1,3.333-5.9,15.249,15.249,0,0,1,5.2-3.879,15.984,15.984,0,0,1,6.768-1.4,16.267,16.267,0,0,1,6.853,1.4,15.205,15.205,0,0,1,5.212,3.879,17.425,17.425,0,0,1,3.315,5.9,23.013,23.013,0,0,1,1.162,7.451v1.128a23.013,23.013,0,0,1-1.162,7.451,17.425,17.425,0,0,1-3.315,5.9,15.058,15.058,0,0,1-5.2,3.862,17.4,17.4,0,0,1-13.6,0,15.23,15.23,0,0,1-5.212-3.862,17.493,17.493,0,0,1-3.35-5.9,22.708,22.708,0,0,1-1.179-7.451Zm4.1,1.128a20.172,20.172,0,0,0,.82,5.793,14.921,14.921,0,0,0,2.393,4.819,11.723,11.723,0,0,0,3.9,3.3,12.131,12.131,0,0,0,10.647,0,11.777,11.777,0,0,0,3.879-3.3,14.921,14.921,0,0,0,2.393-4.819,20.172,20.172,0,0,0,.82-5.793v-1.128a19.931,19.931,0,0,0-.82-5.725,15.128,15.128,0,0,0-2.393-4.836,11.77,11.77,0,0,0-3.914-3.333,11.2,11.2,0,0,0-5.349-1.248,10.925,10.925,0,0,0-5.281,1.248,11.878,11.878,0,0,0-3.879,3.333,15.128,15.128,0,0,0-2.393,4.836,19.931,19.931,0,0,0-.82,5.725Zm54.448-15.586a15.278,15.278,0,0,0-2.769-.239,10.844,10.844,0,0,0-3.76.615,9.436,9.436,0,0,0-2.957,1.726,10.089,10.089,0,0,0-2.153,2.632,14.6,14.6,0,0,0-1.384,3.367V213h-4.067V176.018h4l.068,5.879a12.24,12.24,0,0,1,4.084-4.8,10.988,10.988,0,0,1,6.34-1.76,8.969,8.969,0,0,1,1.538.137,5.117,5.117,0,0,1,1.162.308Zm28.608,24.1a6.816,6.816,0,0,0-.393-2.256,5.391,5.391,0,0,0-1.47-2.136,11.037,11.037,0,0,0-3.008-1.88,24.935,24.935,0,0,0-5.007-1.521,43.189,43.189,0,0,1-5.486-1.5,15.791,15.791,0,0,1-4.067-2.068,8.17,8.17,0,0,1-2.512-2.888,8.542,8.542,0,0,1-.854-3.931,8.732,8.732,0,0,1,.906-3.9,9.469,9.469,0,0,1,2.6-3.213,12.991,12.991,0,0,1,4.1-2.17,17.078,17.078,0,0,1,5.417-.8,18.393,18.393,0,0,1,5.759.837,12.772,12.772,0,0,1,4.307,2.324,9.988,9.988,0,0,1,2.683,3.5,10.387,10.387,0,0,1,.923,4.375h-4.1a6.611,6.611,0,0,0-.632-2.8,7.073,7.073,0,0,0-1.846-2.41,9.55,9.55,0,0,0-3.008-1.692,11.956,11.956,0,0,0-4.084-.649,12.643,12.643,0,0,0-4.084.581,8.4,8.4,0,0,0-2.769,1.5,5.7,5.7,0,0,0-2.068,4.375,6.365,6.365,0,0,0,.376,2.239,4.484,4.484,0,0,0,1.453,1.88,11.067,11.067,0,0,0,3.008,1.606,39.716,39.716,0,0,0,5.042,1.453,42.162,42.162,0,0,1,5.776,1.743,14.73,14.73,0,0,1,4.016,2.273,8.427,8.427,0,0,1,2.358,3.008,9.371,9.371,0,0,1,.769,3.914,9.161,9.161,0,0,1-.957,4.187,9.318,9.318,0,0,1-2.734,3.247,13.324,13.324,0,0,1-4.307,2.1,19.755,19.755,0,0,1-5.64.752,19.547,19.547,0,0,1-6.221-.906,13.945,13.945,0,0,1-4.546-2.444,10.287,10.287,0,0,1-2.786-3.538,9.653,9.653,0,0,1-.94-4.153h4.1a7.13,7.13,0,0,0,1.128,3.64,7.723,7.723,0,0,0,2.461,2.324,10.616,10.616,0,0,0,3.264,1.248,17.217,17.217,0,0,0,3.538.376,13.967,13.967,0,0,0,4.1-.547,9.521,9.521,0,0,0,2.991-1.47,6.275,6.275,0,0,0,1.829-2.119A5.387,5.387,0,0,0,1030.791,203.6Z" transform="translate(-3.008 -12.5)" fill="url(#linear-gradient)"/>
</svg>
