<svg xmlns="http://www.w3.org/2000/svg" xmlns:xlink="http://www.w3.org/1999/xlink" width="56.679" height="50.678" viewBox="0 0 56.679 50.678">
  <defs>
    <clipPath id="clip-path">
      <path id="Path_1701" data-name="Path 1701" d="M0,0H56.679V-50.678H0Z" fill="none"/>
    </clipPath>
  </defs>
  <g id="Group_2963" data-name="Group 2963" transform="translate(0 50.678)">
    <g id="Group_2962" data-name="Group 2962" clip-path="url(#clip-path)">
      <g id="Group_2959" data-name="Group 2959" transform="translate(2.453 -23.456)">
        <path id="Path_1698" data-name="Path 1698" d="M0,0C-.123.763-.415,1.132-1.015,1.249-1.723,1.386-2.121.96-2.453.428v-26.9c.031-.016.077-.023.093-.049A1.225,1.225,0,0,1-.926-27.17c.593.16.846.537.926,1.337V-23.4c-.006.221-.017.442-.017.663q0,8.461,0,16.925c0,1.124.011,2.248.017,3.372V0" fill="#00cecc"/>
      </g>
      <g id="Group_2960" data-name="Group 2960" transform="translate(2.454 -46.853)">
        <path id="Path_1699" data-name="Path 1699" d="M0,0V-2.437q10.975,0,21.95-.008a8.6,8.6,0,0,1,3.8.806.7.7,0,0,0,.669.005,8.458,8.458,0,0,1,3.738-.811q10.809.025,21.618.008,0,1.218,0,2.437Q40.9,0,30.032,0a5.939,5.939,0,0,0-4.361,1.81Q22.5,4.973,19.335,8.144c-.286.286-.8.6-.78.869.025.326.5.625.794.918a3.28,3.28,0,0,0,4.943-.013c.927-.924,1.857-1.845,2.764-2.79a1.788,1.788,0,0,1,1.422-.584c1.382.027,2.766.036,4.148,0a2.1,2.1,0,0,1,1.66.686Q41.032,13.936,47.8,20.62a1.093,1.093,0,0,0,.871.347c1.032-.019,2.065-.007,3.1-.007q0,1.218,0,2.437h-1c-.052.2.127.254.214.354a4.663,4.663,0,0,1,.924,5.181,4.573,4.573,0,0,1-4.287,2.955c-.352.019-.4.112-.412.436a4.83,4.83,0,0,1-4.692,4.662c-.3.009-.383.068-.4.386a4.819,4.819,0,0,1-5.037,4.7c-.3,0-.4.058-.437.374a4.806,4.806,0,0,1-8.2,2.942c-.792-.771-1.506-1.622-2.284-2.468-.881.893-1.608,1.652-2.359,2.386a4.632,4.632,0,0,1-5.074,1.21A4.633,4.633,0,0,1,15.509,42.3c-.038-.4-.238-.315-.465-.313a4.84,4.84,0,0,1-4.825-3.763c-.1-.406.1-.957-.216-1.186-.28-.2-.78-.063-1.182-.141a4.84,4.84,0,0,1-3.867-4.568c-.006-.247.04-.434-.344-.447A4.561,4.561,0,0,1,.23,28.9a4.656,4.656,0,0,1,1.045-5.255c.048-.051.09-.107.21-.251H0V20.96c1.107,0,2.214-.019,3.32.009a1.34,1.34,0,0,0,1.109-.446c.929-.974,1.862-1.949,2.864-2.846a4.485,4.485,0,0,1,5.045-.8,4.493,4.493,0,0,1,2.919,4.188c.017.407.105.5.516.515A4.761,4.761,0,0,1,20.355,26.2c.007.357.086.445.451.459a4.825,4.825,0,0,1,4.563,3.807c.1.415-.1.979.177,1.2s.818.083,1.227.174a4.827,4.827,0,0,1,2.553,7.923c-.416.468-.877.9-1.32,1.34-.135.136-.246.234-.039.429.805.759,1.564,1.569,2.393,2.3a2.2,2.2,0,0,0,2.383.374,2.231,2.231,0,0,0,1.465-1.854,2.416,2.416,0,0,0-.682-2.074,1.141,1.141,0,0,1-.21-1.333,1.174,1.174,0,0,1,1.048-.7,1.557,1.557,0,0,1,1.183.617,2.381,2.381,0,1,0,3.492-3.238,1.2,1.2,0,0,1-.034-1.774,1.226,1.226,0,0,1,1.741.03,2.381,2.381,0,0,0,3.4-3.335q-.816-1.006-.055-1.772a1.209,1.209,0,0,1,1.778.037,2.382,2.382,0,1,0,3.187-3.541q-8.1-8.02-16.2-16.036a.8.8,0,0,0-.628-.257c-1.051.015-2.1.018-3.154,0a.9.9,0,0,0-.72.3c-.822.847-1.643,1.7-2.5,2.513a5.7,5.7,0,0,1-8.1-.025c-.544-.525-1.072-1.067-1.606-1.6-.862-.863-.863-1.425,0-2.287q3.6-3.6,7.2-7.2a.937.937,0,0,0,.394-.671C15.8-.015,7.9.007,0,0M2.294,27.195a2.213,2.213,0,0,0,1.394,2.048,2.238,2.238,0,0,0,2.648-.474q2.918-2.865,5.783-5.784a2.376,2.376,0,1,0-3.4-3.315C6.792,21.575,4.884,23.5,2.97,25.412a2.382,2.382,0,0,0-.676,1.783m15.636-.827A2.237,2.237,0,0,0,16.5,24.2a2.268,2.268,0,0,0-2.645.516q-2.9,2.887-5.789,5.792a2.367,2.367,0,0,0-.036,3.3,2.339,2.339,0,0,0,3.332.115c2.007-1.958,3.977-3.953,5.95-5.945a2.158,2.158,0,0,0,.621-1.61M14.9,39.56a2.217,2.217,0,0,0,1.659-.644c1.951-1.936,3.905-3.869,5.827-5.833A2.374,2.374,0,0,0,19,29.753c-.416.391-.811.805-1.215,1.21-1.513,1.513-3.033,3.019-4.536,4.542A2.377,2.377,0,0,0,14.9,39.56M28.13,36.569a2.345,2.345,0,0,0-1.475-2.2,2.236,2.236,0,0,0-2.631.555q-2.694,2.661-5.355,5.353a2.377,2.377,0,1,0,3.347,3.375c1.8-1.769,3.579-3.56,5.357-5.352a2.371,2.371,0,0,0,.757-1.727" fill="#fff"/>
      </g>
      <g id="Group_2961" data-name="Group 2961" transform="translate(54.223 -46.853)">
        <path id="Path_1700" data-name="Path 1700" d="M0,0Q0-1.218,0-2.437c.078-.812.365-1.208.981-1.356A1.209,1.209,0,0,1,2.443-2.729a4.835,4.835,0,0,1,.01.552v25.2c0,.055,0,.111,0,.166,0,.891-.419,1.431-1.143,1.486C.627,24.728.136,24.248,0,23.4V20.96c.006-.221.017-.441.017-.662q0-8.574,0-17.147C.017,2.1.006,1.051,0,0" fill="#00cecc"/>
      </g>
    </g>
  </g>
</svg>
