<?xml version="1.0" encoding="utf-8"?>
<!-- Generator: Adobe Illustrator 26.3.1, SVG Export Plug-In . SVG Version: 6.00 Build 0)  -->
<svg version="1.1" id="Layer_1" xmlns="http://www.w3.org/2000/svg" xmlns:xlink="http://www.w3.org/1999/xlink" x="0px" y="0px"
	 viewBox="0 0 467.9 590.8" style="enable-background:new 0 0 467.9 590.8;" xml:space="preserve">
<style type="text/css">
	.st0{fill:#2E2E2E;}
	.st1{fill:#FFFFFF;}
</style>
<path class="st0" d="M234,547.4c24.5-7.3,74.8-45.5,93.6-61.9c41.9-36.4,97.3-98.4,97.3-157.8V30.4C300.7,2.5,167.2,2.5,43.1,30.4
	v297.3c0,59,55,121,97.3,157.8C159.2,501.9,209.4,540.1,234,547.4z M0,61c11.1-3,22.2-5.7,33.5-8.2v-30c131.9-30.4,269-30.4,400.9,0
	v30c11.2,2.5,22.4,5.3,33.5,8.2v266.7c0,133.3-195.1,263.1-234,263.1c-38.9,0-234-129.7-234-263.1L0,61z M33.5,72.4
	c-4.8,1.1-9.6,2.3-14.3,3.4v251.9c0,49.2,30.8,97.2,62.2,132.9c26.7,30.4,59.2,58.4,92.9,80.9c10.4,7,47.3,29.9,59.7,30.2
	c35.2-0.8,129.7-85,152.6-111c31.4-35.7,62.2-83.7,62.2-132.9V75.8c-4.8-1.2-9.6-2.3-14.3-3.4v255.3c0,62.6-56.4,126.6-100.6,165
	c-20.7,18.1-74.5,58.8-99.9,64.5c-25.4-5.7-79.2-46.5-99.9-64.6c-44.6-38.8-100.6-102.9-100.6-165L33.5,72.4z"/>
<g>
	<path d="M74.4,154.3l10.3,39.6L95,154.3h14.4V209H98.3v-14.8l1-22.8L88.4,209h-7.5L70,171.4l1,22.8V209H59.9v-54.7H74.4z"/>
	<path d="M150,194c-0.1,2.4-0.5,4.5-1.3,6.4c-0.8,1.9-1.9,3.6-3.3,4.9s-3.2,2.4-5.2,3.2c-2,0.8-4.3,1.1-6.8,1.1
		c-2.7,0-5.1-0.5-7.2-1.5c-2.1-1-3.9-2.4-5.4-4.2c-1.5-1.8-2.6-4.1-3.3-6.7c-0.8-2.7-1.1-5.7-1.1-9v-2c0-3.3,0.4-6.3,1.2-9
		c0.8-2.7,1.9-4.9,3.4-6.8c1.5-1.9,3.3-3.3,5.4-4.3c2.1-1,4.4-1.5,7-1.5c2.7,0,5,0.4,7,1.2c2,0.8,3.7,1.9,5.1,3.3
		c1.4,1.4,2.5,3.1,3.3,5.1c0.8,2,1.3,4.1,1.5,6.4h-10.7c0-1-0.1-1.9-0.3-2.8c-0.2-0.9-0.5-1.6-1-2.3c-0.5-0.6-1.1-1.1-1.9-1.5
		c-0.8-0.4-1.8-0.6-3-0.6c-2.2,0-3.8,1-4.8,3.1c-1,2.1-1.5,5.3-1.5,9.6v2c0,2.2,0.1,4.1,0.3,5.7c0.2,1.6,0.6,2.9,1.1,3.9
		c0.5,1,1.2,1.8,2,2.3c0.8,0.5,1.8,0.8,3.1,0.8c2,0,3.5-0.5,4.5-1.6c1-1.1,1.5-2.8,1.5-5.2H150z"/>
	<path d="M193.5,190.8c-0.3,6.2-2,11-5.3,14.2c-3.2,3.2-7.8,4.8-13.7,4.8c-3,0-5.7-0.5-8.1-1.5c-2.4-1-4.4-2.5-6-4.5
		c-1.6-2-2.9-4.4-3.7-7.3c-0.9-2.9-1.3-6.3-1.3-10.1V177c0-3.8,0.4-7.2,1.3-10.1c0.9-2.9,2.2-5.4,3.9-7.4c1.7-2,3.7-3.5,6.1-4.5
		c2.4-1,5.1-1.5,8-1.5c6,0,10.5,1.7,13.6,5c3.1,3.3,4.9,8.1,5.3,14.4h-11.1c-0.1-2-0.2-3.6-0.5-4.9c-0.3-1.3-0.7-2.4-1.3-3.1
		c-0.6-0.8-1.4-1.3-2.3-1.7c-1-0.3-2.2-0.5-3.6-0.5c-1.5,0-2.7,0.3-3.8,0.8c-1,0.5-1.9,1.3-2.5,2.4c-0.7,1.1-1.1,2.6-1.4,4.4
		c-0.3,1.8-0.5,4-0.5,6.7v9.4c0,2.6,0.1,4.7,0.4,6.5c0.3,1.8,0.7,3.3,1.3,4.4c0.6,1.1,1.5,2,2.5,2.5c1,0.5,2.3,0.8,3.9,0.8
		c1.4,0,2.5-0.1,3.5-0.4c1-0.3,1.8-0.8,2.4-1.5c0.6-0.7,1.1-1.7,1.4-3c0.3-1.3,0.5-2.9,0.6-4.8H193.5z"/>
	<path d="M226.4,197.8h-15.1l-2.9,11.2h-11.7l17.1-54.7h10.1l17.2,54.7h-11.8L226.4,197.8z M213.7,188.6H224l-5.1-19.5L213.7,188.6z
		"/>
	<path d="M262.8,189h-5.5v20h-11.1v-54.7h17.6c2.7,0,5.2,0.4,7.3,1.1c2.1,0.7,4,1.8,5.5,3.2c1.5,1.4,2.6,3.1,3.4,5.2
		c0.8,2.1,1.2,4.4,1.2,7.1c0,2-0.2,3.8-0.5,5.4c-0.4,1.6-0.9,3-1.6,4.2c-0.7,1.2-1.5,2.3-2.5,3.3c-1,0.9-2.1,1.7-3.3,2.4l9.6,22.4
		v0.5h-11.9L262.8,189z M257.3,179.8h6.3c2.2,0,3.9-0.7,5-2.2c1.1-1.5,1.7-3.4,1.7-5.9c0-1.3-0.1-2.4-0.4-3.4
		c-0.2-1-0.6-1.9-1.1-2.6c-0.5-0.7-1.2-1.3-2-1.7c-0.8-0.4-1.8-0.6-2.9-0.6h-6.6V179.8z"/>
	<path d="M322.5,163.5h-13.5V209h-11.1v-45.5h-13.3v-9.2h37.9V163.5z"/>
	<path d="M367.2,209h-11v-23.4h-16.3V209h-11.1v-54.7h11.1v22.1h16.3v-22.1h11V209z"/>
	<path d="M391.5,178.9l8.2-24.6h12l-14.7,34.9V209h-11.2v-19.9l-14.7-34.9h12L391.5,178.9z"/>
</g>
<g>
	<path d="M92.4,268.9c-0.3,0.4-0.7,0.9-1.2,1.4c-0.5,0.6-1.2,1.1-2,1.6c-0.8,0.5-1.9,1-3.1,1.3c-1.2,0.4-2.7,0.5-4.4,0.5
		c-1.8,0-3.5-0.3-5-0.9c-1.5-0.6-2.8-1.5-3.9-2.8c-1.1-1.2-1.9-2.8-2.5-4.7c-0.6-1.9-0.9-4.1-0.9-6.5v-6.7c0-9.9,4-14.9,11.9-14.9
		c1.7,0,3.3,0.2,4.6,0.7c1.3,0.5,2.5,1.2,3.4,2.1c0.9,0.9,1.7,2.1,2.2,3.4c0.5,1.4,0.8,2.9,0.9,4.6H88c-0.2-2.2-0.8-3.9-1.8-5.2
		c-1-1.2-2.6-1.9-4.8-1.9c-1.4,0-2.5,0.2-3.5,0.7c-0.9,0.5-1.7,1.1-2.3,2.1c-0.6,0.9-1,2.1-1.3,3.4c-0.3,1.4-0.4,3-0.4,4.8v6.7
		c0,1.9,0.2,3.5,0.6,4.9c0.4,1.4,0.9,2.6,1.6,3.5c0.7,0.9,1.5,1.6,2.5,2c1,0.4,2.1,0.7,3.3,0.7c1,0,1.9-0.1,2.6-0.3
		c0.7-0.2,1.3-0.4,1.7-0.7c0.5-0.3,0.8-0.5,1.1-0.8c0.3-0.3,0.5-0.5,0.7-0.7v-8.2h-6.5v-3.8h11V268.9z"/>
	<path d="M131.9,237.8v25c0,2-0.3,3.7-0.9,5.1c-0.6,1.4-1.4,2.5-2.4,3.4c-1,0.9-2.2,1.5-3.5,1.9s-2.7,0.6-4.2,0.6
		c-1.5,0-3-0.2-4.3-0.6c-1.3-0.4-2.5-1-3.5-1.9s-1.7-2-2.3-3.4c-0.6-1.4-0.8-3.1-0.8-5.1v-25h4.4v25c0,1.4,0.2,2.5,0.5,3.5
		c0.3,0.9,0.7,1.7,1.3,2.2c0.6,0.6,1.2,0.9,2,1.2c0.8,0.2,1.7,0.3,2.6,0.3s1.9-0.1,2.7-0.3c0.8-0.2,1.5-0.6,2-1.2
		c0.6-0.6,1-1.3,1.3-2.2c0.3-0.9,0.5-2.1,0.5-3.5v-25H131.9z"/>
	<path d="M165.9,264h-12l-2.8,9.3h-4.6l11.5-35.5h3.8l11.5,35.5h-4.6L165.9,264z M155,260.2h9.7l-4.9-16.2L155,260.2z"/>
	<path d="M199.8,258.9h-6.2v14.4h-4.5v-35.5h10c3.5,0,6.1,0.9,7.9,2.7c1.8,1.8,2.7,4.5,2.7,8c0,2.2-0.5,4.1-1.5,5.8
		c-1,1.6-2.3,2.9-4.1,3.7L211,273v0.3h-4.8L199.8,258.9z M193.6,255.1h5.4c1,0,1.9-0.2,2.7-0.5c0.8-0.3,1.4-0.8,1.9-1.4
		c0.5-0.6,0.9-1.3,1.2-2.1c0.3-0.8,0.4-1.7,0.4-2.6c0-1-0.1-2-0.3-2.8c-0.2-0.8-0.6-1.6-1.1-2.2c-0.5-0.6-1.1-1.1-1.9-1.4
		c-0.8-0.3-1.7-0.5-2.8-0.5h-5.5V255.1z"/>
	<path d="M243.2,264h-12l-2.8,9.3h-4.6l11.4-35.5h3.8l11.5,35.5H246L243.2,264z M232.4,260.2h9.7l-4.9-16.2L232.4,260.2z"/>
	<path d="M289.7,273.3h-4.5l-14.2-27.4v27.4h-4.5v-35.5h4.5l14.3,27.5v-27.5h4.4V273.3z"/>
	<path d="M328.5,241.6h-9.4v31.7h-4.5v-31.7h-9.3v-3.9h23.1V241.6z"/>
	<path d="M361.8,256.9h-12.6v12.6h14.6v3.8h-19.1v-35.5h18.9v3.9h-14.4v11.4h12.6V256.9z"/>
	<path d="M397.6,256.9H385v12.6h14.6v3.8h-19.1v-35.5h18.9v3.9H385v11.4h12.6V256.9z"/>
</g>
<g>
	<path d="M206.6,92.8h-9.4v31.7h-4.5V92.8h-9.3V89h23.1V92.8z"/>
	<path d="M246.2,124.5h-4.5v-16.4h-14.3v16.4h-4.5V89h4.5v15.3h14.3V89h4.5V124.5z"/>
	<path d="M281.9,108.1h-12.6v12.6H284v3.8h-19.1V89h18.9v3.9h-14.4v11.4h12.6V108.1z"/>
</g>
<g id="ZiGej7.tif">
	<g>
		<path d="M223.2,479.7c-2.7-0.4-5.5-0.7-8.2-1.2c-15.5-2.8-28.6-10-39.3-21.4c-10.8-11.6-17.1-25.4-18.8-41.2
			c-3.1-28,11.3-55.7,35.9-69.5c6.4-3.6,13.3-6.1,20.6-7.7c-0.3-0.5-0.5-1-0.7-1.4c-2.3-4.3-1.2-9.7,2.6-12.8
			c3.8-3.1,9.4-3.1,13,0.2c4.3,3.9,8.6,8,11.9,12.8c0.4,0.5,1,1,1.7,1.1c5.9,1.3,11.6,3.2,17.1,5.8c0.5,0.2,1.4,0.1,1.9-0.2
			c3.5-2.3,7-4.7,10.5-6.9c6.9-4.3,15.6-0.4,17.2,7.5c0.5,2.5,0.1,4.9-1,7.3c3.5,1,6.2,3,7.7,6.3c1.6,3.3,1.4,6.6-0.1,10
			c3.5,1,6.2,3,7.7,6.3c1.5,3.3,1.3,6.7-0.1,10c0.4,0.2,0.8,0.3,1.1,0.4c4.3,1.6,7,4.7,7.6,9.2c0.6,4.5-1.1,8.2-4.8,10.8
			c-2.2,1.5-4.4,3-6.7,4.4c-0.8,0.5-1,1-1.1,2c-0.2,3.1-0.6,6.1-1,9.2c-0.1,0.8-0.5,1.7-1,2.1c-0.7,0.4-1.9,0.6-2.5,0.3
			c-0.7-0.4-1.3-1.5-1.3-2.3c0-1.8,0.4-3.6,0.6-5.3c0.1-0.4,0-0.9,0-1.5c-0.6,0.4-1.1,0.6-1.5,0.9c-8,5.3-16.1,10.6-24.1,16
			c-3.6,2.4-7.5,3.7-11.9,3c-4.4-0.7-7.8,1.2-10.8,3.6c0.3,1.8,0.8,3.4,0.8,4.9c-0.1,2.4-1.6,4-3.5,5.3
			c-11.2,7.4-22.5,14.9-33.7,22.3c-0.6,0.4-1.2,0.8-1.9,1.3c0,0.2,0,0.3,0,0.5c3.7,0.8,7.3,1.8,11,2.3c21.2,2.8,39.7-3.1,55.4-17.7
			c7.1-6.6,12.3-14.5,15.9-23.5c0.2-0.6,0.4-1.2,0.7-1.7c0.7-1.5,2-2.1,3.3-1.6c1.3,0.5,1.8,1.9,1.2,3.4c-2.1,5.9-5,11.5-8.7,16.5
			c-13,17.8-30.4,27.9-52.4,29.9c-0.5,0-0.9,0.2-1.3,0.3C229.1,479.7,226.2,479.7,223.2,479.7z M242.2,433.6
			c0.9-0.6,1.8-1.1,2.6-1.7c3.6-2.5,7.6-3.4,12-2.8c2.8,0.4,5.4-0.2,7.8-1.8c13-8.6,26.1-17.2,39.1-25.9c3.2-2.1,3.9-6,1.9-9
			c-2-3-5.9-3.7-9.1-1.7c-1.5,0.9-2.9,1.9-4.4,2.9c-1.6,1.1-3.1,0.9-3.9-0.4c-0.9-1.3-0.4-2.6,1.2-3.7c2.3-1.5,4.6-3,6.8-4.5
			c3-2.1,3.8-6,1.8-8.9c-2-2.9-5.8-3.7-9-1.8c-1.6,1-3.1,2-4.6,3c-1.5,1-3,0.8-3.8-0.4c-0.8-1.3-0.5-2.6,1.1-3.6
			c2.2-1.5,4.4-2.9,6.6-4.4c3.3-2.2,4.1-6,2.1-9.1c-2-3.1-5.9-3.8-9.2-1.7c-1.6,1.1-3.2,2.2-4.9,3.2c-1,0.6-2.1,0.6-2.8-0.3
			c-0.5-0.7-0.7-1.8-0.6-2.8c0-0.5,0.8-1,1.3-1.4c2.3-1.6,4.6-3,6.9-4.6c2.3-1.6,3.3-4.3,2.6-6.9c-0.8-2.7-2.6-4.4-5.4-4.8
			c-1.8-0.3-3.4,0.3-4.9,1.3c-8.1,5.4-16.3,10.8-24.5,16.2c-2.9,1.9-4.1,1.5-5.3-1.8c-0.6-1.7-1.3-3.4-1.9-5.2
			c-3.2-9.2-9.4-16.3-16.6-22.7c-1.7-1.5-4.1-1.6-6-0.5c-1.9,1.1-3,3.2-2.6,5.5c0.2,1.1,0.8,2.2,1.4,3.2c4.6,7.8,6.3,16.2,4.4,25.1
			c-2.1,10-4.5,19.9-6.8,29.8c-0.2,1-0.1,1.8,0.5,2.7c7.2,10.8,14.3,21.6,21.5,32.4C239,428.9,240.6,431.2,242.2,433.6z M226,452.8
			c4.7-3.1,9.2-6.1,13.7-9.1c1.9-1.2,2-1.9,0.7-3.7c-4.7-7.2-9.5-14.3-14.2-21.5c-5.9-8.9-11.8-17.8-17.7-26.8
			c-1.2-1.8-1.9-2-3.8-0.7c-1.3,0.8-2.6,1.7-3.8,2.5c-3.4,2.2-6.7,4.5-10.2,6.7c0.8,1.2,1.6,2.4,2.3,3.5c1.1,1.7,1,3.2-0.3,4
			c-1.3,0.8-2.6,0.4-3.8-1.4c-0.8-1.1-1.5-2.3-2.3-3.4c-0.5,0.3-0.9,0.5-1.3,0.8c-7.1,4.7-14.2,9.4-21.3,14
			c-1.4,0.9-1.8,1.7-1.5,3.4c4.8,21.9,17.3,37.7,37.4,47.6c0.8,0.4,1.4,0.4,2.2-0.2c5.3-3.5,10.6-7,15.9-10.5
			c1.2-0.8,2.5-1.6,3.8-2.5c-0.4-0.6-0.7-1-1-1.5c-8.4-12.5-16.8-25.1-25.2-37.6c-0.3-0.5-0.7-0.9-0.9-1.4c-0.5-1.2-0.3-2.2,0.8-3
			c1.1-0.8,2.2-0.6,3.2,0.3c0.4,0.4,0.6,0.8,0.9,1.2c8.4,12.6,16.9,25.2,25.3,37.8C225.3,451.8,225.6,452.3,226,452.8z M211.4,387.3
			c1.7-7.4,3.3-14.6,5-21.7c1.1-4.4,2-8.9,1.5-13.5c-0.3-3-0.9-5.9-2.2-8.7c-36.3,6.5-57.3,40.5-54.1,70.2c0.5-0.3,0.9-0.5,1.3-0.8
			c12.8-8.5,25.6-16.9,38.4-25.5C204.8,385,208,384.4,211.4,387.3z M247.6,353.1c2.4-1.6,4.8-3.2,7.6-5c-3.9-1.4-7.3-2.6-11.1-3.9
			C245.4,347.3,246.5,350.1,247.6,353.1z"/>
		<path class="st1" d="M242.2,433.6c-1.6-2.4-3.2-4.8-4.7-7.1c-7.2-10.8-14.3-21.6-21.5-32.4c-0.6-0.9-0.7-1.6-0.5-2.7
			c2.3-9.9,4.7-19.8,6.8-29.8c1.9-8.9,0.3-17.3-4.4-25.1c-0.6-1-1.2-2.1-1.4-3.2c-0.5-2.3,0.6-4.4,2.6-5.5c2-1.1,4.3-1,6,0.5
			c7.2,6.3,13.4,13.4,16.6,22.7c0.6,1.7,1.3,3.5,1.9,5.2c1.2,3.3,2.4,3.7,5.3,1.8c8.2-5.4,16.3-10.8,24.5-16.2
			c1.5-1,3.1-1.6,4.9-1.3c2.8,0.5,4.6,2.1,5.4,4.8c0.7,2.6-0.3,5.3-2.6,6.9c-2.3,1.6-4.6,3-6.9,4.6c-0.5,0.4-1.3,0.9-1.3,1.4
			c0,0.9,0.1,2,0.6,2.8c0.7,0.9,1.8,0.9,2.8,0.3c1.6-1,3.2-2.1,4.9-3.2c3.3-2.1,7.2-1.4,9.2,1.7c2,3.1,1.2,6.9-2.1,9.1
			c-2.2,1.5-4.4,2.9-6.6,4.4c-1.5,1-1.9,2.4-1.1,3.6c0.8,1.2,2.2,1.4,3.8,0.4c1.5-1,3.1-2.1,4.6-3c3.1-2,7-1.2,9,1.8
			c2,3,1.2,6.8-1.8,8.9c-2.2,1.6-4.5,3-6.8,4.5c-1.6,1.1-2.1,2.5-1.2,3.7c0.9,1.3,2.3,1.4,3.9,0.4c1.5-0.9,2.9-1.9,4.4-2.9
			c3.2-2,7.1-1.3,9.1,1.7c2,3,1.2,6.9-1.9,9c-13,8.6-26,17.3-39.1,25.9c-2.3,1.6-4.9,2.1-7.8,1.8c-4.3-0.6-8.3,0.3-12,2.8
			C244,432.5,243.1,433,242.2,433.6z"/>
		<path class="st1" d="M226,452.8c-0.4-0.6-0.7-1-1-1.5c-8.4-12.6-16.9-25.2-25.3-37.8c-0.3-0.4-0.5-0.9-0.9-1.2
			c-1-1-2.1-1.1-3.2-0.3c-1.1,0.8-1.3,1.8-0.8,3c0.2,0.5,0.6,1,0.9,1.4c8.4,12.5,16.8,25.1,25.2,37.6c0.3,0.5,0.6,0.9,1,1.5
			c-1.3,0.9-2.6,1.7-3.8,2.5c-5.3,3.5-10.6,7-15.9,10.5c-0.8,0.5-1.4,0.6-2.2,0.2c-20.1-9.8-32.6-25.7-37.4-47.6
			c-0.4-1.7,0.1-2.5,1.5-3.4c7.1-4.6,14.2-9.3,21.3-14c0.4-0.2,0.8-0.5,1.3-0.8c0.8,1.2,1.6,2.3,2.3,3.4c1.2,1.7,2.5,2.2,3.8,1.4
			c1.3-0.9,1.4-2.3,0.3-4c-0.8-1.1-1.5-2.3-2.3-3.5c3.5-2.3,6.8-4.5,10.2-6.7c1.3-0.8,2.6-1.7,3.8-2.5c1.9-1.2,2.5-1.1,3.8,0.7
			c5.9,8.9,11.8,17.8,17.7,26.8c4.7,7.2,9.5,14.3,14.2,21.5c1.2,1.9,1.1,2.5-0.7,3.7C235.2,446.7,230.7,449.7,226,452.8z"/>
		<path class="st1" d="M211.4,387.3c-3.5-2.8-6.6-2.3-10,0c-12.7,8.6-25.6,17-38.4,25.5c-0.4,0.3-0.8,0.5-1.3,0.8
			c-3.3-29.6,17.8-63.7,54.1-70.2c1.2,2.7,1.9,5.7,2.2,8.7c0.5,4.6-0.5,9.1-1.5,13.5C214.8,372.7,213.1,379.9,211.4,387.3z"/>
		<path class="st1" d="M247.6,353.1c-1.2-3-2.3-5.7-3.5-8.9c3.8,1.3,7.3,2.6,11.1,3.9C252.4,349.9,250.1,351.5,247.6,353.1z"/>
	</g>
</g>
</svg>
