<?xml version="1.0" encoding="utf-8"?>
<!-- Generator: Adobe Illustrator 26.3.1, SVG Export Plug-In . SVG Version: 6.00 Build 0)  -->
<svg version="1.1" id="Layer_1" xmlns="http://www.w3.org/2000/svg" xmlns:xlink="http://www.w3.org/1999/xlink" x="0px" y="0px"
	 viewBox="0 0 1417.3 1417.3" style="enable-background:new 0 0 1417.3 1417.3;" xml:space="preserve">
<style type="text/css">
	.st0{fill:#FFFFFF;}
</style>
<g>
	<path class="st0" d="M874.9,549.2c-9.3,2.9-18.7,8.7-25.6,15.6C782.4,631,716.1,697.7,648.2,765.7c-6.4-6.8-11.7-12.7-17.2-18.3
		c-22.6-22.7-45-45.5-68-67.8c-21-20.4-49.6-18.8-66.2,2.9c-13.2,17.4-10.6,41,7.1,58.8c36.2,36.5,72.6,72.7,109,109
		c24.4,24.4,47.2,24.3,71.7-0.3c74.6-74.6,149.3-149.3,223.9-223.9c3.6-3.6,7.2-7.4,10.2-11.5c9.9-14,10-33.5,0.5-47.9
		C909.6,552,891.9,543.9,874.9,549.2z"/>
	<path class="st0" d="M1215.4,325.2c0.1-29.7-20.1-47.9-49.6-49.3c-45.2-2.1-90.7-4.9-135.3-12.1c-85.8-13.9-164-47.7-233.4-100.5
		c-26.5-20.2-52-41.8-77.9-62.7c-7.9,0-15.8,0-23.7,0c-11.3,8.9-22.8,17.6-33.9,26.6c-8.3,6.7-16,14.1-24.2,20.9
		C548.9,220.5,447,260,334,271.4c-29.8,3-59.9,3.5-89.8,5c-25.8,1.3-44,17.8-44.3,41.6c-1.6,122.8-7.5,245.7,4.6,368.4
		c6.8,69.3,18.7,137.4,40.8,203.5c37.5,112.3,100.3,207.6,191.8,283.5c76,63.1,162.6,106.6,255.4,138.5c9.6,3.3,22.3,2.6,32.1-0.7
		c66.6-22.8,130.1-52.4,189.3-90.8c129-83.8,215.4-199.5,260.7-346.3c29.1-94.3,40.3-191.4,42.1-289.4
		C1218.1,498.3,1215,411.8,1215.4,325.2z M1131.5,577.6c-1.8,99.3-12,197.7-44.5,292.5c-39.6,115.4-110.9,206.2-212.1,273.9
		c-50.1,33.5-104.1,59.3-160.4,80.4c-3.7,1.4-8.6,2-12.2,0.7c-81-29.8-156.5-69.4-221.9-126.3c-80-69.6-132.9-156.5-162-258
		c-20.7-72-31.7-145.8-33.1-220.6c-1.5-83-0.4-166-0.5-248.9c0-2.7,0.3-5.4,0.5-10.2c158.8-6.1,301.3-53.7,422-160
		c120.9,106.3,263.3,154,421.5,160c0.4,3.5,1,5.7,1,8C1130.5,438.5,1132.7,508.1,1131.5,577.6z"/>
</g>
</svg>
